<svg width="34" height="34" viewBox="0 0 34 34" fill="none" xmlns="http://www.w3.org/2000/svg">
<circle cx="17" cy="17" r="17" fill="#43DD9C"/>
<path fill-rule="evenodd" clip-rule="evenodd" d="M21.8095 19.74C21.8095 20.5684 21.1379 21.24 20.3095 21.24H13.5C12.6716 21.24 12 20.5684 12 19.74V15.6119C12 14.7834 12.6716 14.1119 13.5 14.1119H14.2236C14.4715 14.1119 14.7106 14.0197 14.8945 13.8534L15.5519 13.2585C15.7358 13.0921 15.9749 13 16.2229 13H17.9386C18.1709 13 18.3959 13.0808 18.575 13.2286L19.3684 13.8832C19.5476 14.031 19.7726 14.1119 20.0048 14.1119H20.3095C21.138 14.1119 21.8095 14.7834 21.8095 15.6119V19.74ZM18.5137 17.3162C18.5137 18.1613 17.8286 18.8465 16.9834 18.8465C16.1383 18.8465 15.4531 18.1613 15.4531 17.3162C15.4531 16.471 16.1383 15.7859 16.9834 15.7859C17.8286 15.7859 18.5137 16.471 18.5137 17.3162Z" fill="white"/>
</svg>
