<svg xmlns="http://www.w3.org/2000/svg">
  <symbol id="bell" viewBox="0 0 20 24" fill="none">
    <path d="M18.2499 21.1997H1.74994C0.784973 21.1997 0 20.4169 0 19.4546C0 18.9438 0.223023 18.4603 0.611939 18.1281C2.133 16.8466 3 14.9839 3 13.0103V10.2298C3 6.38053 6.14008 3.24907 9.99994 3.24907C13.86 3.24907 17.0001 6.38053 17.0001 10.2298V13.0103C17.0001 14.9839 17.8671 16.8466 19.3781 18.1212C19.777 18.4603 20.0001 18.9438 20.0001 19.4546C20.0001 20.4169 19.2151 21.1997 18.2499 21.1997Z" fill="#E8F3FF"/>
    <path fill-rule="evenodd" clip-rule="evenodd" d="M10.9844 1.00524C10.9844 0.450059 10.5367 0 9.98438 0C9.43209 0 8.98438 0.450059 8.98438 1.00524V3.32233C5.60407 3.81433 3 6.72443 3 10.2298V13.0103C3 14.9839 2.133 16.8466 0.611939 18.1281C0.223023 18.4603 0 18.9438 0 19.4546C0 20.4169 0.784973 21.1997 1.74994 21.1997H6.63702C6.92074 22.7953 8.31881 24 9.98447 24C11.6504 24 13.0482 22.7953 13.3319 21.1997H18.2499C19.2151 21.1997 20.0001 20.4169 20.0001 19.4546C20.0001 18.9438 19.777 18.4603 19.3781 18.1212C17.8671 16.8466 17.0001 14.9839 17.0001 13.0103V10.2298C17.0001 6.71366 14.38 3.79646 10.9844 3.31787V1.00524ZM9.98447 21.9895C9.42484 21.9895 8.94669 21.6639 8.72182 21.1997H11.2472C11.0223 21.664 10.5442 21.9895 9.98447 21.9895ZM17.5761 19.1892C15.9341 17.5628 15.0001 15.3469 15.0001 13.0103V10.2298C15.0001 7.50599 12.7705 5.25954 9.99994 5.25954C7.22959 5.25954 5 7.50596 5 10.2298V13.0103C5 15.3457 4.06705 17.5589 2.42162 19.1892H17.5761Z" fill="#107EFF"/>
  </symbol>

  
  <symbol id="menu" viewBox="0 0 7 5">
    <path d="M4.38911 4.53557L6.65691 2.26778C7.28687 1.63781 6.8407 0.560669 5.9498 0.560669H1.41421C0.523309 0.560669 0.0771431 1.63781 0.707108 2.26778L2.9749 4.53557C3.36542 4.92609 3.99859 4.92609 4.38911 4.53557Z"/>
  </symbol>

  <symbol id="user" viewBox="0 0 28 31" fill="none">
    <path d="M22.8295 8.96218C22.8295 13.9119 18.8758 17.9244 13.9987 17.9244C9.12164 17.9244 5.16797 13.9119 5.16797 8.96218C5.16797 4.0125 9.12164 0 13.9987 0C18.8758 0 22.8295 4.0125 22.8295 8.96218Z" fill="white"/>
    <path fill-rule="evenodd" clip-rule="evenodd" d="M20.285 8.96218C20.285 12.4851 17.471 15.341 13.9997 15.341C10.5284 15.341 7.71437 12.4851 7.71437 8.96218C7.71437 5.43924 10.5284 2.58333 13.9997 2.58333C17.471 2.58333 20.285 5.43924 20.285 8.96218ZM18.923 16.4033C21.2799 14.794 22.8304 12.0619 22.8304 8.96218C22.8304 4.0125 18.8768 0 13.9997 0C9.12258 0 5.16891 4.0125 5.16891 8.96218C5.16891 12.062 6.71956 14.7942 9.07655 16.4035C3.77354 18.4257 0 23.6198 0 29.7083C0 30.4217 0.569819 31 1.27273 31C1.97564 31 2.54545 30.4217 2.54545 29.7083C2.54545 23.288 7.67383 18.0833 14 18.0833C20.3262 18.0833 25.4545 23.288 25.4545 29.7083C25.4545 30.4217 26.0244 31 26.7273 31C27.4302 31 28 30.4217 28 29.7083C28 23.6196 24.2263 18.4254 18.923 16.4033Z" fill="#D8E3EC"/>
  </symbol>
</svg>