<svg width="16" height="16" viewBox="0 0 16 16" fill="none" xmlns="http://www.w3.org/2000/svg">
<path fill-rule="evenodd" clip-rule="evenodd" d="M5.49976 3.5C5.49976 4.60457 4.60433 5.5 3.49976 5.5H0.999756C0.447471 5.5 -0.000244141 5.05228 -0.000244141 4.5C-0.000244141 3.94772 0.447471 3.5 0.999756 3.5H3.49976V1C3.49976 0.447715 3.94747 0 4.49976 0C5.05204 0 5.49976 0.447715 5.49976 1V3.5Z" fill="white"/>
<path fill-rule="evenodd" clip-rule="evenodd" d="M5.49976 12.5C5.49976 11.3954 4.60433 10.5 3.49976 10.5H0.999756C0.447471 10.5 -0.000244141 10.9477 -0.000244141 11.5C-0.000244141 12.0523 0.447471 12.5 0.999756 12.5H3.49976V15C3.49976 15.5523 3.94747 16 4.49976 16C5.05204 16 5.49976 15.5523 5.49976 15V12.5Z" fill="white"/>
<path fill-rule="evenodd" clip-rule="evenodd" d="M10.4998 3.5C10.4998 4.60457 11.3952 5.5 12.4998 5.5H14.9998C15.552 5.5 15.9998 5.05228 15.9998 4.5C15.9998 3.94772 15.552 3.5 14.9998 3.5H12.4998V1C12.4998 0.447715 12.052 0 11.4998 0C10.9475 0 10.4998 0.447715 10.4998 1V3.5Z" fill="white"/>
<path fill-rule="evenodd" clip-rule="evenodd" d="M10.4998 12.5C10.4998 11.3954 11.3952 10.5 12.4998 10.5H14.9998C15.552 10.5 15.9998 10.9477 15.9998 11.5C15.9998 12.0523 15.552 12.5 14.9998 12.5H12.4998V15C12.4998 15.5523 12.052 16 11.4998 16C10.9475 16 10.4998 15.5523 10.4998 15V12.5Z" fill="white"/>
</svg>
