<svg width="369" height="40" viewBox="0 0 369 40" fill="none" xmlns="http://www.w3.org/2000/svg">
<rect opacity="0.85" width="314" height="40" fill="black"/>
<path d="M368 19.5H345.5" stroke="#107EFF" stroke-width="2" stroke-linecap="round"/>
<path d="M349.5 24L345.354 19.8536C345.158 19.6583 345.158 19.3417 345.354 19.1464L349.5 15" stroke="#107EFF" stroke-width="2" stroke-linecap="round"/>
<path d="M17.8608 20.735C18.4191 20.3362 18.4191 19.5063 17.8608 19.1075L13.5812 16.0507C12.9194 15.5779 12 16.0511 12 16.8644V22.9781C12 23.7914 12.9194 24.2646 13.5812 23.7918L17.8608 20.735Z" fill="white"/>
<path fill-rule="evenodd" clip-rule="evenodd" d="M44.0891 22.0351C44.0891 22.8635 43.4175 23.5351 42.5891 23.5351H35.7795C34.9511 23.5351 34.2795 22.8635 34.2795 22.0351V17.907C34.2795 17.0786 34.9511 16.407 35.7795 16.407H36.5031C36.7511 16.407 36.9902 16.3149 37.1741 16.1485L37.8314 15.5536C38.0153 15.3872 38.2544 15.2951 38.5024 15.2951H40.2182C40.4504 15.2951 40.6754 15.376 40.8545 15.5238L41.648 16.1784C41.8271 16.3262 42.0521 16.407 42.2844 16.407H42.5891C43.4175 16.407 44.0891 17.0786 44.0891 17.907V22.0351ZM40.7929 19.6113C40.7929 20.4565 40.1077 21.1416 39.2626 21.1416C38.4174 21.1416 37.7323 20.4565 37.7323 19.6113C37.7323 18.7662 38.4174 18.081 39.2626 18.081C40.1077 18.081 40.7929 18.7662 40.7929 19.6113Z" fill="white"/>
<path d="M61.7387 17.9213C61.9658 17.9213 62.1861 17.844 62.3634 17.7021L65.4648 15.221C66.1195 14.6972 67.0895 15.1634 67.0895 16.0019V23.8406C67.0895 24.6791 66.1195 25.1453 65.4648 24.6215L62.3634 22.1404C62.1861 21.9985 61.9658 21.9213 61.7387 21.9213H61.0891C60.5368 21.9213 60.0891 21.4735 60.0891 20.9213V18.9213C60.0891 18.369 60.5368 17.9213 61.0891 17.9213H61.7387Z" fill="white"/>
<path fill-rule="evenodd" clip-rule="evenodd" d="M120 14C120 12.8954 120.895 12 122 12H124.5C125.052 12 125.5 12.4477 125.5 13C125.5 13.5523 125.052 14 124.5 14H122V16.5C122 17.0523 121.552 17.5 121 17.5C120.448 17.5 120 17.0523 120 16.5V14Z" fill="white"/>
<path fill-rule="evenodd" clip-rule="evenodd" d="M120 26C120 27.1046 120.895 28 122 28H124.5C125.052 28 125.5 27.5523 125.5 27C125.5 26.4477 125.052 26 124.5 26H122V23.5C122 22.9477 121.552 22.5 121 22.5C120.448 22.5 120 22.9477 120 23.5V26Z" fill="white"/>
<path fill-rule="evenodd" clip-rule="evenodd" d="M136 14C136 12.8954 135.105 12 134 12H131.5C130.948 12 130.5 12.4477 130.5 13C130.5 13.5523 130.948 14 131.5 14H134V16.5C134 17.0523 134.448 17.5 135 17.5C135.552 17.5 136 17.0523 136 16.5V14Z" fill="white"/>
<path fill-rule="evenodd" clip-rule="evenodd" d="M136 26C136 27.1046 135.105 28 134 28H131.5C130.948 28 130.5 27.5523 130.5 27C130.5 26.4477 130.948 26 131.5 26H134V23.5C134 22.9477 134.448 22.5 135 22.5C135.552 22.5 136 22.9477 136 23.5V26Z" fill="white"/>
<path fill-rule="evenodd" clip-rule="evenodd" d="M241.5 15.5C241.5 16.6046 240.604 17.5 239.5 17.5H237C236.447 17.5 236 17.0523 236 16.5C236 15.9477 236.447 15.5 237 15.5H239.5V13C239.5 12.4477 239.947 12 240.5 12C241.052 12 241.5 12.4477 241.5 13V15.5Z" fill="white"/>
<path fill-rule="evenodd" clip-rule="evenodd" d="M241.5 24.5C241.5 23.3954 240.604 22.5 239.5 22.5H237C236.447 22.5 236 22.9477 236 23.5C236 24.0523 236.447 24.5 237 24.5H239.5V27C239.5 27.5523 239.947 28 240.5 28C241.052 28 241.5 27.5523 241.5 27V24.5Z" fill="white"/>
<path fill-rule="evenodd" clip-rule="evenodd" d="M246.5 15.5C246.5 16.6046 247.395 17.5 248.5 17.5H251C251.552 17.5 252 17.0523 252 16.5C252 15.9477 251.552 15.5 251 15.5H248.5V13C248.5 12.4477 248.052 12 247.5 12C246.947 12 246.5 12.4477 246.5 13V15.5Z" fill="white"/>
<path fill-rule="evenodd" clip-rule="evenodd" d="M246.5 24.5C246.5 23.3954 247.395 22.5 248.5 22.5H251C251.552 22.5 252 22.9477 252 23.5C252 24.0523 251.552 24.5 251 24.5H248.5V27C248.5 27.5523 248.052 28 247.5 28C246.947 28 246.5 27.5523 246.5 27V24.5Z" fill="white"/>
<path fill-rule="evenodd" clip-rule="evenodd" d="M162.685 15.0172L158.676 18.0565C158.155 18.4517 157.519 18.6656 156.865 18.6656H156.207V20.3344H156.865C157.519 20.3344 158.155 20.5483 158.676 20.9435L162.685 23.9828V15.0172ZM157.469 16.46C157.295 16.5917 157.083 16.663 156.865 16.663H155.207C154.655 16.663 154.207 17.1113 154.207 17.6643V21.3357C154.207 21.8887 154.655 22.337 155.207 22.337H156.865C157.083 22.337 157.295 22.4083 157.469 22.54L163.081 26.7952C163.74 27.2945 164.685 26.8241 164.685 25.9969V13.0031C164.685 12.1759 163.74 11.7055 163.081 12.2048L157.469 16.46Z" fill="white"/>
<path fill-rule="evenodd" clip-rule="evenodd" d="M168.191 15.9923C168.397 15.4789 168.979 15.2292 169.491 15.4347C171.091 16.0755 172.207 17.6617 172.207 19.4999C172.207 21.3382 171.091 22.9244 169.491 23.5652C168.979 23.7706 168.397 23.521 168.191 23.0076C167.986 22.4942 168.235 21.9114 168.748 21.7059C169.592 21.3678 170.207 20.5152 170.207 19.4999C170.207 18.4847 169.592 17.6321 168.748 17.2939C168.235 17.0885 167.986 16.5057 168.191 15.9923Z" fill="white"/>
<path fill-rule="evenodd" clip-rule="evenodd" d="M165.485 17.6467C165.663 17.1234 166.232 16.844 166.754 17.0228C167.775 17.372 168.624 18.295 168.624 19.4999C168.624 20.7048 167.775 21.6278 166.754 21.977C166.232 22.1558 165.663 21.8765 165.485 21.3532C165.306 20.8298 165.585 20.2607 166.108 20.0819C166.483 19.9536 166.624 19.6869 166.624 19.4999C166.624 19.3129 166.483 19.0462 166.108 18.9179C165.585 18.7391 165.306 18.17 165.485 17.6467Z" fill="white"/>
<path fill-rule="evenodd" clip-rule="evenodd" d="M279.478 16.0133L275.469 19.0487C274.948 19.4434 274.312 19.657 273.658 19.657H273V21.3236H273.658C274.312 21.3236 274.948 21.5372 275.469 21.9319L279.478 24.9673V16.0133ZM274.262 17.4542C274.088 17.5858 273.876 17.657 273.658 17.657H272C271.447 17.657 271 18.1047 271 18.657V22.3236C271 22.8759 271.447 23.3236 272 23.3236H273.658C273.876 23.3236 274.088 23.3948 274.262 23.5264L279.874 27.776C280.533 28.2748 281.478 27.805 281.478 26.9788V14.0018C281.478 13.1757 280.533 12.7059 279.874 13.2046L274.262 17.4542Z" fill="white"/>
<path fill-rule="evenodd" clip-rule="evenodd" d="M287.793 17.2832C288.183 16.8927 288.816 16.8927 289.207 17.2832C289.597 17.6738 289.597 18.3069 289.207 18.6975L287.664 20.2404L289.207 21.7832C289.597 22.1738 289.597 22.8069 289.207 23.1975C288.816 23.588 288.183 23.588 287.793 23.1975L286.25 21.6546L284.707 23.1975C284.316 23.588 283.683 23.588 283.293 23.1975C282.902 22.8069 282.902 22.1738 283.293 21.7832L284.836 20.2404L283.293 18.6975C282.902 18.3069 282.902 17.6738 283.293 17.2832C283.683 16.8927 284.316 16.8927 284.707 17.2832L286.25 18.8261L287.793 17.2832Z" fill="white"/>
<path d="M100.4 21.203C101.2 20.6134 101.2 19.3866 100.4 18.797L94.2663 14.278C93.3177 13.5791 92 14.2785 92 15.481V24.519C92 25.7215 93.3177 26.4209 94.2663 25.722L100.4 21.203Z" fill="white"/>
<path fill-rule="evenodd" clip-rule="evenodd" d="M198.05 15.7071C198.444 15.3166 198.444 14.6834 198.05 14.2929C197.656 13.9024 197.018 13.9024 196.624 14.2929L192.443 18.4393C191.852 19.0251 191.852 19.9749 192.443 20.5607L196.624 24.7071C197.018 25.0976 197.656 25.0976 198.05 24.7071C198.444 24.3166 198.444 23.6834 198.05 23.2929L195.234 20.5H215.991C216.548 20.5 217 20.0523 217 19.5C217 18.9477 216.548 18.5 215.991 18.5H195.234L198.05 15.7071Z" fill="white"/>
</svg>
