<svg width="14" height="16" viewBox="0 0 14 16" fill="none" xmlns="http://www.w3.org/2000/svg">
<path fill-rule="evenodd" clip-rule="evenodd" d="M5.08888 0C4.96223 0 4.84031 0.0480592 4.74772 0.134472L4.31915 0.534473C4.23631 0.611788 4.18782 0.704455 4.16875 0.799988H2.99231H1.09232C0.539812 0.799988 0.0919189 1.24788 0.0919189 1.80038C0.0919189 2.31914 0.486763 2.74567 0.992314 2.79585L0.99231 2.79999V14C0.99231 15.1046 1.88774 16 2.99231 16H10.1923C11.2969 16 12.1923 15.1046 12.1923 14V2.79999L12.1923 2.79577C12.6975 2.74523 13.0919 2.31887 13.0919 1.80038C13.0919 1.24788 12.644 0.799988 12.0915 0.799988H10.1923H9.07615C9.058 0.709643 9.01347 0.621669 8.93825 0.546447L8.53824 0.146447C8.44448 0.0526784 8.3173 0 8.18469 0H5.08888ZM10.1923 2.80078H2.99231L2.99231 14L10.1923 14L10.1923 2.80078ZM6.09192 5.10986C6.09192 4.55758 5.6442 4.10986 5.09192 4.10986C4.53963 4.10986 4.09192 4.55758 4.09192 5.10986V11.7483C4.09192 12.3005 4.53963 12.7483 5.09192 12.7483C5.6442 12.7483 6.09192 12.3005 6.09192 11.7483V5.10986ZM8.0929 4.10986C8.64518 4.10986 9.0929 4.55758 9.0929 5.10986V11.7483C9.0929 12.3005 8.64518 12.7483 8.0929 12.7483C7.54061 12.7483 7.0929 12.3005 7.0929 11.7483V5.10986C7.0929 4.55758 7.54061 4.10986 8.0929 4.10986Z" fill="white"/>
</svg>
