<svg width="302" height="58" viewBox="0 0 302 58" fill="none" xmlns="http://www.w3.org/2000/svg">
<path d="M17.4167 21.0833H4.58333C4.07707 21.0833 3.66667 20.6729 3.66667 20.1667V1.83333C3.66667 1.32707 4.07707 0.916667 4.58333 0.916667H13.603C13.8275 0.916667 14.0442 0.999056 14.212 1.14821L14.8085 0.477065L14.212 1.14821L18.0257 4.53816C18.2214 4.71212 18.3333 4.96145 18.3333 5.22329V20.1667C18.3333 20.6729 17.9229 21.0833 17.4167 21.0833Z" stroke="#96AECD" stroke-width="1.83333"/>
<rect y="6.41667" width="22" height="11.9167" rx="1.83333" fill="#96AECD"/>
<path d="M6.61353 14.001H9.41724V15.0886H4.84912V14.3434L7.64478 10.3151H4.83301V9.22339H9.38904V9.94849L6.61353 14.001Z" fill="white"/>
<path d="M11.5684 15.0886H10.1584V9.22339H11.5684V15.0886Z" fill="white"/>
<path d="M13.9652 13.0986V15.0886H12.5513V9.22339H14.8917C15.3402 9.22339 15.7363 9.30664 16.0801 9.47314C16.4265 9.63696 16.6937 9.87195 16.8817 10.1781C17.0724 10.4816 17.1677 10.8267 17.1677 11.2134C17.1677 11.7854 16.9623 12.2433 16.5514 12.587C16.1432 12.9281 15.5819 13.0986 14.8676 13.0986H13.9652ZM13.9652 12.007H14.8917C15.1656 12.007 15.3738 11.9385 15.5161 11.8015C15.6611 11.6646 15.7336 11.4712 15.7336 11.2214C15.7336 10.9475 15.6598 10.7286 15.5121 10.5648C15.3644 10.401 15.163 10.3177 14.9078 10.3151H13.9652V12.007Z" fill="white"/>
<path d="M97.4167 21.0833H84.5833C84.0771 21.0833 83.6667 20.6729 83.6667 20.1667V1.83333C83.6667 1.32707 84.0771 0.916667 84.5833 0.916667H93.603C93.8275 0.916667 94.0442 0.999056 94.212 1.14821L94.8085 0.477065L94.212 1.14821L98.0257 4.53816C98.2214 4.71212 98.3333 4.96145 98.3333 5.22329V20.1667C98.3333 20.6729 97.9229 21.0833 97.4167 21.0833Z" stroke="#96AECD" stroke-width="1.83333"/>
<rect x="80" y="6.41669" width="22" height="11.9167" rx="1.83333" fill="#96AECD"/>
<path d="M83.2213 15.3333V9.46808H85.1106C85.6289 9.46808 86.0948 9.58624 86.5084 9.82257C86.922 10.0562 87.2443 10.3879 87.4752 10.8176C87.7089 11.2446 87.827 11.7239 87.8297 12.2557V12.5256C87.8297 13.0627 87.7156 13.5447 87.4873 13.9717C87.2617 14.3961 86.9421 14.7291 86.5286 14.9708C86.1177 15.2098 85.6584 15.3306 85.1509 15.3333H83.2213ZM84.6353 10.5598V14.2457H85.1267C85.5322 14.2457 85.8438 14.102 86.0613 13.8146C86.2788 13.5246 86.3876 13.0949 86.3876 12.5256V12.2718C86.3876 11.7051 86.2788 11.2781 86.0613 10.9908C85.8438 10.7034 85.5269 10.5598 85.1106 10.5598H84.6353Z" fill="white"/>
<path d="M93.5217 12.5215C93.5217 13.0936 93.4156 13.5998 93.2035 14.0402C92.9913 14.4807 92.6892 14.8204 92.2971 15.0594C91.9077 15.2957 91.4633 15.4139 90.9637 15.4139C90.4642 15.4139 90.0211 15.2997 89.6344 15.0715C89.2477 14.8405 88.9456 14.5115 88.728 14.0845C88.5132 13.6575 88.4004 13.1674 88.3896 12.6142V12.2839C88.3896 11.7092 88.4944 11.2029 88.7039 10.7652C88.916 10.3248 89.2181 9.98505 89.6102 9.74603C90.005 9.50702 90.4535 9.38751 90.9557 9.38751C91.4525 9.38751 91.8956 9.50568 92.285 9.742C92.6744 9.97833 92.9766 10.3154 93.1914 10.7531C93.4089 11.1882 93.519 11.6877 93.5217 12.2516V12.5215ZM92.0836 12.2758C92.0836 11.6931 91.9856 11.2513 91.7896 10.9505C91.5962 10.647 91.3182 10.4953 90.9557 10.4953C90.2467 10.4953 89.8721 11.027 89.8318 12.0905L89.8278 12.5215C89.8278 13.0963 89.9231 13.538 90.1138 13.8469C90.3044 14.1557 90.5878 14.3101 90.9637 14.3101C91.3209 14.3101 91.5962 14.1584 91.7896 13.8549C91.9829 13.5515 92.0809 13.1151 92.0836 12.5457V12.2758Z" fill="white"/>
<path d="M98.9962 13.3474C98.9774 13.7556 98.8673 14.1168 98.6659 14.431C98.4645 14.7425 98.1812 14.9842 97.8159 15.1561C97.4534 15.3279 97.0385 15.4139 96.5712 15.4139C95.8004 15.4139 95.1935 15.1628 94.7504 14.6606C94.3073 14.1584 94.0857 13.4494 94.0857 12.5336V12.2436C94.0857 11.6689 94.1851 11.1667 94.3838 10.737C94.5852 10.3046 94.8739 9.97162 95.2499 9.73798C95.6259 9.50165 96.0609 9.38348 96.5551 9.38348C97.2667 9.38348 97.8387 9.57147 98.2711 9.94745C98.7035 10.3207 98.9492 10.8364 99.0083 11.4943H97.5984C97.5876 11.1371 97.4977 10.8807 97.3285 10.7249C97.1593 10.5692 96.9015 10.4913 96.5551 10.4913C96.2032 10.4913 95.9454 10.6229 95.7816 10.886C95.6178 11.1492 95.5319 11.5695 95.5238 12.1469V12.5618C95.5238 13.1876 95.6017 13.6347 95.7574 13.9033C95.9159 14.1718 96.1871 14.3061 96.5712 14.3061C96.8961 14.3061 97.1445 14.2296 97.3164 14.0765C97.4883 13.9234 97.5796 13.6804 97.5903 13.3474H98.9962Z" fill="white"/>
<path d="M177.417 21.0833H164.583C164.077 21.0833 163.667 20.6729 163.667 20.1667V1.83333C163.667 1.32707 164.077 0.916667 164.583 0.916667H173.603C173.827 0.916667 174.044 0.999056 174.212 1.14821L174.809 0.477065L174.212 1.14821L178.026 4.53816C178.221 4.71212 178.333 4.96145 178.333 5.22329V20.1667C178.333 20.6729 177.923 21.0833 177.417 21.0833Z" stroke="#96AECD" stroke-width="1.83333"/>
<rect x="160" y="6.41669" width="22" height="11.9167" rx="1.83333" fill="#96AECD"/>
<path d="M165.248 13.3433V15.3333H163.834V9.46808H166.174C166.623 9.46808 167.019 9.55133 167.362 9.71783C167.709 9.88165 167.976 10.1166 168.164 10.4228C168.355 10.7263 168.45 11.0714 168.45 11.4581C168.45 12.0301 168.245 12.488 167.834 12.8317C167.426 13.1728 166.864 13.3433 166.15 13.3433H165.248ZM165.248 12.2516H166.174C166.448 12.2516 166.656 12.1832 166.798 12.0462C166.943 11.9092 167.016 11.7159 167.016 11.4661C167.016 11.1922 166.942 10.9733 166.794 10.8095C166.647 10.6457 166.445 10.5624 166.19 10.5598H165.248V12.2516Z" fill="white"/>
<path d="M169.207 15.3333V9.46808H171.097C171.615 9.46808 172.081 9.58624 172.495 9.82257C172.908 10.0562 173.23 10.3879 173.461 10.8176C173.695 11.2446 173.813 11.7239 173.816 12.2557V12.5256C173.816 13.0627 173.702 13.5447 173.473 13.9717C173.248 14.3961 172.928 14.7291 172.515 14.9708C172.104 15.2098 171.645 15.3306 171.137 15.3333H169.207ZM170.621 10.5598V14.2457H171.113C171.518 14.2457 171.83 14.102 172.047 13.8146C172.265 13.5246 172.374 13.0949 172.374 12.5256V12.2718C172.374 11.7051 172.265 11.2781 172.047 10.9908C171.83 10.7034 171.513 10.5598 171.097 10.5598H170.621Z" fill="white"/>
<path d="M178.235 12.9969H175.955V15.3333H174.541V9.46808H178.464V10.5598H175.955V11.9092H178.235V12.9969Z" fill="white"/>
<path d="M217.417 21.0833H204.583C204.077 21.0833 203.667 20.6729 203.667 20.1667V1.83333C203.667 1.32707 204.077 0.916667 204.583 0.916667H213.603C213.827 0.916667 214.044 0.999056 214.212 1.14821L214.809 0.477065L214.212 1.14821L218.026 4.53816C218.221 4.71212 218.333 4.96145 218.333 5.22329V20.1667C218.333 20.6729 217.923 21.0833 217.417 21.0833Z" stroke="#96AECD" stroke-width="1.83333"/>
<rect x="200" y="6.41669" width="22" height="11.9167" rx="1.83333" fill="#96AECD"/>
<path d="M209.932 14.6082C209.715 14.8499 209.397 15.0446 208.978 15.1923C208.559 15.34 208.1 15.4139 207.6 15.4139C206.832 15.4139 206.218 15.1789 205.759 14.7089C205.3 14.239 205.054 13.585 205.022 12.7471L205.018 12.2396C205.018 11.6622 205.12 11.1586 205.324 10.7289C205.528 10.2966 205.82 9.9649 206.198 9.73395C206.58 9.50031 207.02 9.38348 207.52 9.38348C208.25 9.38348 208.817 9.55133 209.219 9.88702C209.625 10.22 209.861 10.7182 209.928 11.3815H208.567C208.519 11.0539 208.414 10.8203 208.253 10.6806C208.092 10.541 207.863 10.4711 207.568 10.4711C207.213 10.4711 206.939 10.6215 206.746 10.9223C206.553 11.2231 206.455 11.6528 206.452 12.2114V12.5659C206.452 13.1513 206.551 13.5917 206.75 13.8871C206.952 14.1799 207.267 14.3262 207.697 14.3262C208.065 14.3262 208.339 14.2443 208.519 14.0805V13.1701H207.536V12.1993H209.932V14.6082Z" fill="white"/>
<path d="M212.261 15.3333H210.851V9.46808H212.261V15.3333Z" fill="white"/>
<path d="M216.938 12.9969H214.658V15.3333H213.244V9.46808H217.167V10.5598H214.658V11.9092H216.938V12.9969Z" fill="white"/>
<path d="M257.417 21.0833H244.583C244.077 21.0833 243.667 20.6729 243.667 20.1667V1.83333C243.667 1.32707 244.077 0.916667 244.583 0.916667H253.603C253.827 0.916667 254.044 0.999056 254.212 1.14821L254.809 0.477065L254.212 1.14821L258.026 4.53816C258.221 4.71212 258.333 4.96145 258.333 5.22329V20.1667C258.333 20.6729 257.923 21.0833 257.417 21.0833Z" stroke="#96AECD" stroke-width="1.83333"/>
<rect x="240" y="6.41669" width="22" height="11.9167" rx="1.83333" fill="#96AECD"/>
<path d="M245.961 9.46808H247.37V13.4924C247.37 13.8657 247.283 14.1987 247.109 14.4914C246.937 14.7841 246.695 15.011 246.384 15.1722C246.075 15.3333 245.73 15.4139 245.348 15.4139C244.709 15.4139 244.212 15.2527 243.858 14.9305C243.503 14.6082 243.326 14.1517 243.326 13.5609H244.744C244.744 13.8294 244.79 14.0241 244.881 14.145C244.975 14.2658 245.131 14.3262 245.348 14.3262C245.544 14.3262 245.695 14.2537 245.799 14.1087C245.907 13.961 245.961 13.7556 245.961 13.4924V9.46808Z" fill="white"/>
<path d="M249.679 13.3433V15.3333H248.265V9.46808H250.605C251.054 9.46808 251.45 9.55133 251.794 9.71783C252.14 9.88165 252.407 10.1166 252.595 10.4228C252.786 10.7263 252.881 11.0714 252.881 11.4581C252.881 12.0301 252.676 12.488 252.265 12.8317C251.857 13.1728 251.295 13.3433 250.581 13.3433H249.679ZM249.679 12.2516H250.605C250.879 12.2516 251.087 12.1832 251.23 12.0462C251.375 11.9092 251.447 11.7159 251.447 11.4661C251.447 11.1922 251.373 10.9733 251.226 10.8095C251.078 10.6457 250.876 10.5624 250.621 10.5598H249.679V12.2516Z" fill="white"/>
<path d="M258.44 14.6082C258.223 14.8499 257.905 15.0446 257.486 15.1923C257.067 15.34 256.607 15.4139 256.108 15.4139C255.34 15.4139 254.726 15.1789 254.267 14.7089C253.808 14.239 253.562 13.585 253.53 12.7471L253.526 12.2396C253.526 11.6622 253.628 11.1586 253.832 10.7289C254.036 10.2966 254.327 9.9649 254.706 9.73395C255.087 9.50031 255.528 9.38348 256.027 9.38348C256.758 9.38348 257.324 9.55133 257.727 9.88702C258.133 10.22 258.369 10.7182 258.436 11.3815H257.075C257.026 11.0539 256.922 10.8203 256.76 10.6806C256.599 10.541 256.371 10.4711 256.076 10.4711C255.721 10.4711 255.447 10.6215 255.254 10.9223C255.061 11.2231 254.963 11.6528 254.96 12.2114V12.5659C254.96 13.1513 255.059 13.5917 255.258 13.8871C255.459 14.1799 255.775 14.3262 256.205 14.3262C256.573 14.3262 256.846 14.2443 257.026 14.0805V13.1701H256.043V12.1993H258.44V14.6082Z" fill="white"/>
<path d="M297.417 21.0833H284.583C284.077 21.0833 283.667 20.6729 283.667 20.1667V1.83333C283.667 1.32707 284.077 0.916667 284.583 0.916667H293.603C293.827 0.916667 294.044 0.999056 294.212 1.14821L294.809 0.477065L294.212 1.14821L298.026 4.53816C298.221 4.71212 298.333 4.96145 298.333 5.22329V20.1667C298.333 20.6729 297.923 21.0833 297.417 21.0833Z" stroke="#96AECD" stroke-width="1.83333"/>
<rect x="280" y="6.41669" width="22" height="11.9167" rx="1.83333" fill="#96AECD"/>
<path d="M284.712 13.3433V15.3333H283.298V9.46808H285.639C286.087 9.46808 286.483 9.55133 286.827 9.71783C287.173 9.88165 287.441 10.1166 287.629 10.4228C287.819 10.7263 287.915 11.0714 287.915 11.4581C287.915 12.0301 287.709 12.488 287.298 12.8317C286.89 13.1728 286.329 13.3433 285.614 13.3433H284.712ZM284.712 12.2516H285.639C285.912 12.2516 286.121 12.1832 286.263 12.0462C286.408 11.9092 286.48 11.7159 286.48 11.4661C286.48 11.1922 286.407 10.9733 286.259 10.8095C286.111 10.6457 285.91 10.5624 285.655 10.5598H284.712V12.2516Z" fill="white"/>
<path d="M293.57 15.3333H292.164L290.086 11.6837V15.3333H288.672V9.46808H290.086L292.16 13.1177V9.46808H293.57V15.3333Z" fill="white"/>
<path d="M299.266 14.6082C299.049 14.8499 298.731 15.0446 298.312 15.1923C297.893 15.34 297.433 15.4139 296.934 15.4139C296.166 15.4139 295.552 15.1789 295.093 14.7089C294.634 14.239 294.388 13.585 294.356 12.7471L294.352 12.2396C294.352 11.6622 294.454 11.1586 294.658 10.7289C294.862 10.2966 295.153 9.9649 295.532 9.73395C295.913 9.50031 296.354 9.38348 296.853 9.38348C297.584 9.38348 298.151 9.55133 298.553 9.88702C298.959 10.22 299.195 10.7182 299.262 11.3815H297.901C297.852 11.0539 297.748 10.8203 297.587 10.6806C297.425 10.541 297.197 10.4711 296.902 10.4711C296.547 10.4711 296.273 10.6215 296.08 10.9223C295.887 11.2231 295.789 11.6528 295.786 12.2114V12.5659C295.786 13.1513 295.885 13.5917 296.084 13.8871C296.285 14.1799 296.601 14.3262 297.031 14.3262C297.399 14.3262 297.672 14.2443 297.852 14.0805V13.1701H296.87V12.1993H299.266V14.6082Z" fill="white"/>
<path d="M17.4167 57.0833H4.58333C4.07707 57.0833 3.66667 56.6729 3.66667 56.1667V37.8333C3.66667 37.3271 4.07707 36.9167 4.58333 36.9167H13.603C13.8275 36.9167 14.0442 36.9991 14.212 37.1482L14.8085 36.4771L14.212 37.1482L18.0257 40.5382C18.2214 40.7121 18.3333 40.9615 18.3333 41.2233V56.1667C18.3333 56.6729 17.9229 57.0833 17.4167 57.0833Z" stroke="#96AECD" stroke-width="1.83333"/>
<rect y="42.4167" width="22" height="11.9167" rx="1.83333" fill="#96AECD"/>
<path d="M4.63098 49.3433V51.3333H3.21704V45.4681H5.5575C6.00598 45.4681 6.4021 45.5513 6.74585 45.7178C7.09229 45.8817 7.3595 46.1166 7.54749 46.4228C7.73816 46.7263 7.8335 47.0714 7.8335 47.4581C7.8335 48.0301 7.62805 48.488 7.21716 48.8317C6.80896 49.1728 6.24768 49.3433 5.53333 49.3433H4.63098ZM4.63098 48.2516H5.5575C5.83142 48.2516 6.03955 48.1832 6.18188 48.0462C6.3269 47.9092 6.39941 47.7159 6.39941 47.4661C6.39941 47.1922 6.32556 46.9733 6.17786 46.8095C6.03015 46.6457 5.82874 46.5624 5.57361 46.5598H4.63098V48.2516Z" fill="white"/>
<path d="M10.0048 49.3433V51.3333H8.59082V45.4681H10.9313C11.3798 45.4681 11.7759 45.5513 12.1196 45.7178C12.4661 45.8817 12.7333 46.1166 12.9213 46.4228C13.1119 46.7263 13.2073 47.0714 13.2073 47.4581C13.2073 48.0301 13.0018 48.488 12.5909 48.8317C12.1827 49.1728 11.6215 49.3433 10.9071 49.3433H10.0048ZM10.0048 48.2516H10.9313C11.2052 48.2516 11.4133 48.1832 11.5557 48.0462C11.7007 47.9092 11.7732 47.7159 11.7732 47.4661C11.7732 47.1922 11.6993 46.9733 11.5516 46.8095C11.4039 46.6457 11.2025 46.5624 10.9474 46.5598H10.0048V48.2516Z" fill="white"/>
<path d="M18.569 46.5598H16.8086V51.3333H15.3947V46.5598H13.6665V45.4681H18.569V46.5598Z" fill="white"/>
<path d="M57.4167 57.0833H44.5833C44.0771 57.0833 43.6667 56.6729 43.6667 56.1667V37.8333C43.6667 37.3271 44.0771 36.9167 44.5833 36.9167H53.603C53.8275 36.9167 54.0442 36.9991 54.212 37.1482L54.8085 36.4771L54.212 37.1482L58.0257 40.5382C58.2214 40.7121 58.3333 40.9615 58.3333 41.2233V56.1667C58.3333 56.6729 57.9229 57.0833 57.4167 57.0833Z" stroke="#96AECD" stroke-width="1.83333"/>
<rect x="40" y="42.4167" width="22" height="11.9167" rx="1.83333" fill="#96AECD"/>
<path d="M47.9584 46.5598H46.198V51.3333H44.7841V46.5598H43.0559V45.4681H47.9584V46.5598Z" fill="white"/>
<path d="M50.746 47.4178L51.7047 45.4681H53.3201L51.6805 48.3765L53.3644 51.3333H51.7329L50.746 49.3474L49.759 51.3333H48.1316L49.8114 48.3765L48.1759 45.4681H49.7872L50.746 47.4178Z" fill="white"/>
<path d="M58.432 46.5598H56.6716V51.3333H55.2577V46.5598H53.5295V45.4681H58.432V46.5598Z" fill="white"/>
<path d="M97.4167 57.0833H84.5833C84.0771 57.0833 83.6667 56.6729 83.6667 56.1667V37.8333C83.6667 37.3271 84.0771 36.9167 84.5833 36.9167H93.603C93.8275 36.9167 94.0442 36.9991 94.212 37.1482L94.8085 36.4771L94.212 37.1482L98.0257 40.5382C98.2214 40.7121 98.3333 40.9615 98.3333 41.2233V56.1667C98.3333 56.6729 97.9229 57.0833 97.4167 57.0833Z" stroke="#96AECD" stroke-width="1.83333"/>
<rect x="80" y="42.4167" width="22" height="11.9167" rx="1.83333" fill="#96AECD"/>
<path d="M86.4241 49.2628H85.6587V51.3333H84.2448V45.4681H86.553C87.2485 45.4681 87.7924 45.6225 88.1844 45.9313C88.5765 46.2402 88.7726 46.6766 88.7726 47.2405C88.7726 47.6487 88.6893 47.9871 88.5228 48.2557C88.359 48.5242 88.1012 48.7418 87.7494 48.9083L88.974 51.2729V51.3333H87.4594L86.4241 49.2628ZM85.6587 48.1711H86.553C86.8215 48.1711 87.0229 48.1013 87.1572 47.9616C87.2942 47.8193 87.3627 47.6219 87.3627 47.3694C87.3627 47.117 87.2942 46.9196 87.1572 46.7773C87.0203 46.6323 86.8188 46.5598 86.553 46.5598H85.6587V48.1711Z" fill="white"/>
<path d="M94.0295 46.5598H92.2692V51.3333H90.8552V46.5598H89.1271V45.4681H94.0295V46.5598Z" fill="white"/>
<path d="M98.3237 48.9969H96.0437V51.3333H94.6298V45.4681H98.5533V46.5598H96.0437V47.9092H98.3237V48.9969Z" fill="white"/>
<path d="M137.417 57.0833H124.583C124.077 57.0833 123.667 56.6729 123.667 56.1667V37.8333C123.667 37.3271 124.077 36.9167 124.583 36.9167H133.603C133.827 36.9167 134.044 36.9991 134.212 37.1482L134.809 36.4771L134.212 37.1482L138.026 40.5382C138.221 40.7121 138.333 40.9615 138.333 41.2233V56.1667C138.333 56.6729 137.923 57.0833 137.417 57.0833Z" stroke="#96AECD" stroke-width="1.83333"/>
<rect x="120" y="42.4167" width="22" height="11.9167" rx="1.83333" fill="#96AECD"/>
<path d="M124.402 45.4681L125.711 49.5488L127.016 45.4681H128.877V51.3333H127.459V49.9637L127.596 47.16L126.178 51.3333H125.244L123.822 47.1559L123.959 49.9637V51.3333H122.545V45.4681H124.402Z" fill="white"/>
<path d="M134.747 48.5215C134.747 49.0936 134.641 49.5998 134.428 50.0402C134.216 50.4807 133.914 50.8204 133.522 51.0594C133.133 51.2957 132.688 51.4139 132.189 51.4139C131.689 51.4139 131.246 51.2997 130.859 51.0715C130.473 50.8405 130.17 50.5115 129.953 50.0845C129.738 49.6575 129.625 49.1674 129.615 48.6142V48.2839C129.615 47.7092 129.719 47.2029 129.929 46.7652C130.141 46.3248 130.443 45.985 130.835 45.746C131.23 45.507 131.678 45.3875 132.181 45.3875C132.677 45.3875 133.12 45.5057 133.51 45.742C133.899 45.9783 134.201 46.3154 134.416 46.7531C134.634 47.1882 134.744 47.6877 134.747 48.2516V48.5215ZM133.308 48.2758C133.308 47.6931 133.21 47.2513 133.014 46.9505C132.821 46.647 132.543 46.4953 132.181 46.4953C131.472 46.4953 131.097 47.027 131.057 48.0905L131.053 48.5215C131.053 49.0963 131.148 49.538 131.339 49.8469C131.529 50.1557 131.813 50.3101 132.189 50.3101C132.546 50.3101 132.821 50.1584 133.014 49.8549C133.208 49.5515 133.306 49.1151 133.308 48.5457V48.2758Z" fill="white"/>
<path d="M137.663 49.7381L138.831 45.4681H140.41L138.437 51.3333H136.89L134.932 45.4681H136.499L137.663 49.7381Z" fill="white"/>
<path d="M177.417 57.0833H164.583C164.077 57.0833 163.667 56.6729 163.667 56.1667V37.8333C163.667 37.3271 164.077 36.9167 164.583 36.9167H173.603C173.827 36.9167 174.044 36.9991 174.212 37.1482L174.809 36.4771L174.212 37.1482L178.026 40.5382C178.221 40.7121 178.333 40.9615 178.333 41.2233V56.1667C178.333 56.6729 177.923 57.0833 177.417 57.0833Z" stroke="#96AECD" stroke-width="1.83333"/>
<rect x="160" y="42.4167" width="22" height="11.9167" rx="1.83333" fill="#96AECD"/>
<path d="M167.898 50.2376H165.96L165.622 51.3333H164.111L166.262 45.4681H167.592L169.759 51.3333H168.24L167.898 50.2376ZM166.299 49.1459H167.56L166.927 47.1116L166.299 49.1459Z" fill="white"/>
<path d="M172.152 49.7381L173.32 45.4681H174.899L172.925 51.3333H171.378L169.421 45.4681H170.988L172.152 49.7381Z" fill="white"/>
<path d="M176.837 51.3333H175.427V45.4681H176.837V51.3333Z" fill="white"/>
<path d="M217.417 57.0833H204.583C204.077 57.0833 203.667 56.6729 203.667 56.1667V37.8333C203.667 37.3271 204.077 36.9167 204.583 36.9167H213.603C213.827 36.9167 214.044 36.9991 214.212 37.1482L214.809 36.4771L214.212 37.1482L218.026 40.5382C218.221 40.7121 218.333 40.9615 218.333 41.2233V56.1667C218.333 56.6729 217.923 57.0833 217.417 57.0833Z" stroke="#96AECD" stroke-width="1.83333"/>
<rect x="200" y="42.4167" width="22" height="11.9167" rx="1.83333" fill="#96AECD"/>
<path d="M204.357 45.4681L205.666 49.5488L206.971 45.4681H208.833V51.3333H207.415V49.9637L207.552 47.16L206.134 51.3333H205.199L203.777 47.1559L203.914 49.9637V51.3333H202.5V45.4681H204.357Z" fill="white"/>
<path d="M211.149 49.3433V51.3333H209.735V45.4681H212.075C212.524 45.4681 212.92 45.5513 213.264 45.7178C213.61 45.8817 213.877 46.1166 214.065 46.4228C214.256 46.7263 214.351 47.0714 214.351 47.4581C214.351 48.0301 214.146 48.488 213.735 48.8317C213.327 49.1728 212.766 49.3433 212.051 49.3433H211.149ZM211.149 48.2516H212.075C212.349 48.2516 212.557 48.1832 212.7 48.0462C212.845 47.9092 212.917 47.7159 212.917 47.4661C212.917 47.1922 212.843 46.9733 212.696 46.8095C212.548 46.6457 212.347 46.5624 212.091 46.5598H211.149V48.2516Z" fill="white"/>
<path d="M216.265 47.8327H216.905C217.413 47.8327 217.667 47.5843 217.667 47.0875C217.667 46.8941 217.606 46.737 217.485 46.6161C217.365 46.4926 217.194 46.4308 216.974 46.4308C216.794 46.4308 216.637 46.4832 216.502 46.588C216.371 46.6927 216.305 46.8229 216.305 46.9787H214.948C214.948 46.6699 215.033 46.3946 215.205 46.1529C215.377 45.9112 215.615 45.7232 215.918 45.5889C216.224 45.452 216.56 45.3835 216.925 45.3835C217.578 45.3835 218.091 45.5325 218.464 45.8306C218.838 46.1287 219.024 46.5383 219.024 47.0593C219.024 47.3117 218.946 47.5507 218.791 47.7763C218.637 47.9992 218.413 48.1805 218.118 48.3201C218.429 48.4329 218.674 48.6048 218.851 48.8358C219.028 49.064 219.117 49.3474 219.117 49.6857C219.117 50.2094 218.915 50.6284 218.513 50.9426C218.11 51.2568 217.581 51.4139 216.925 51.4139C216.541 51.4139 216.184 51.3414 215.854 51.1964C215.526 51.0486 215.278 50.8459 215.109 50.5881C214.939 50.3276 214.855 50.0322 214.855 49.7018H216.22C216.22 49.8818 216.293 50.0375 216.438 50.1691C216.583 50.3007 216.762 50.3665 216.974 50.3665C217.213 50.3665 217.403 50.3007 217.546 50.1691C217.688 50.0349 217.759 49.8643 217.759 49.6575C217.759 49.3621 217.685 49.1526 217.538 49.0291C217.39 48.9056 217.186 48.8438 216.925 48.8438H216.265V47.8327Z" fill="white"/>
<path d="M257.417 57.0833H244.583C244.077 57.0833 243.667 56.6729 243.667 56.1667V37.8333C243.667 37.3271 244.077 36.9167 244.583 36.9167H253.603C253.827 36.9167 254.044 36.9991 254.212 37.1482L254.809 36.4771L254.212 37.1482L258.026 40.5382C258.221 40.7121 258.333 40.9615 258.333 41.2233V56.1667C258.333 56.6729 257.923 57.0833 257.417 57.0833Z" stroke="#96AECD" stroke-width="1.83333"/>
<rect x="240" y="42.4167" width="22" height="11.9167" rx="1.83333" fill="#96AECD"/>
<path d="M246.859 49.1459L247.531 45.4681H248.933L247.688 51.3333H246.222L245.437 47.9898L244.667 51.3333H243.205L241.956 45.4681H243.362L244.035 49.1459L244.84 45.4681H246.041L246.859 49.1459Z" fill="white"/>
<path d="M252.639 50.2376H250.702L250.363 51.3333H248.853L251.004 45.4681H252.333L254.5 51.3333H252.982L252.639 50.2376ZM251.04 49.1459H252.301L251.668 47.1116L251.04 49.1459Z" fill="white"/>
<path d="M256.893 49.7381L258.061 45.4681H259.641L257.667 51.3333H256.12L254.162 45.4681H255.729L256.893 49.7381Z" fill="white"/>
<path d="M137.417 21.0833H124.583C124.077 21.0833 123.667 20.6729 123.667 20.1667V1.83333C123.667 1.32707 124.077 0.916667 124.583 0.916667H133.603C133.827 0.916667 134.044 0.999056 134.212 1.14821L134.809 0.477065L134.212 1.14821L138.026 4.53816C138.221 4.71212 138.333 4.96145 138.333 5.22329V20.1667C138.333 20.6729 137.923 21.0833 137.417 21.0833Z" stroke="#96AECD" stroke-width="1.83333"/>
<rect x="120" y="6.41669" width="22" height="11.9167" rx="1.83333" fill="#96AECD"/>
<path d="M126.178 11.4178L127.137 9.46808H128.752L127.113 12.3765L128.797 15.3333H127.165L126.178 13.3474L125.191 15.3333H123.564L125.244 12.3765L123.608 9.46808H125.219L126.178 11.4178Z" fill="white"/>
<path d="M130.674 14.2457H133.135V15.3333H129.26V9.46808H130.674V14.2457Z" fill="white"/>
<path d="M136.756 13.7744C136.756 13.5676 136.683 13.4064 136.535 13.291C136.39 13.1755 136.133 13.056 135.766 12.9324C135.398 12.8089 135.097 12.6894 134.863 12.5739C134.103 12.2006 133.723 11.6877 133.723 11.0351C133.723 10.7101 133.817 10.4241 134.005 10.1771C134.196 9.92731 134.464 9.73395 134.811 9.59698C135.157 9.45734 135.547 9.38751 135.979 9.38751C136.401 9.38751 136.778 9.46271 137.111 9.6131C137.447 9.76349 137.707 9.97833 137.892 10.2576C138.078 10.5342 138.17 10.8511 138.17 11.2083H136.76C136.76 10.9693 136.687 10.784 136.539 10.6524C136.394 10.5208 136.197 10.455 135.947 10.455C135.694 10.455 135.494 10.5114 135.347 10.6242C135.202 10.7343 135.129 10.8753 135.129 11.0472C135.129 11.1976 135.21 11.3345 135.371 11.4581C135.532 11.5789 135.815 11.7051 136.221 11.8367C136.626 11.9656 136.959 12.1053 137.22 12.2557C137.854 12.6209 138.17 13.1245 138.17 13.7663C138.17 14.2792 137.977 14.6821 137.59 14.9748C137.204 15.2675 136.673 15.4139 135.999 15.4139C135.524 15.4139 135.093 15.3293 134.706 15.1601C134.322 14.9882 134.032 14.7546 133.836 14.4592C133.643 14.1611 133.546 13.8187 133.546 13.4319H134.964C134.964 13.7462 135.044 13.9785 135.206 14.1288C135.369 14.2766 135.634 14.3504 135.999 14.3504C136.233 14.3504 136.417 14.3007 136.551 14.2014C136.688 14.0993 136.756 13.957 136.756 13.7744Z" fill="white"/>
<path d="M57.4167 21.0833H44.5833C44.0771 21.0833 43.6667 20.6729 43.6667 20.1667V1.83333C43.6667 1.32707 44.0771 0.916667 44.5833 0.916667H53.603C53.8275 0.916667 54.0442 0.999056 54.212 1.14821L54.8085 0.477065L54.212 1.14821L58.0257 4.53816C58.2214 4.71212 58.3333 4.96145 58.3333 5.22329V20.1667C58.3333 20.6729 57.9229 21.0833 57.4167 21.0833Z" stroke="#96AECD" stroke-width="1.83333"/>
<rect x="40" y="6.41669" width="22" height="11.9167" rx="1.83333" fill="#96AECD"/>
<path d="M45.4288 13.2628H44.6635V15.3333H43.2495V9.46808H45.5577C46.2533 9.46808 46.7971 9.6225 47.1892 9.93134C47.5813 10.2402 47.7773 10.6766 47.7773 11.2405C47.7773 11.6487 47.6941 11.9871 47.5276 12.2557C47.3638 12.5242 47.106 12.7418 46.7542 12.9083L47.9788 15.2729V15.3333H46.4641L45.4288 13.2628ZM44.6635 12.1711H45.5577C45.8263 12.1711 46.0277 12.1013 46.162 11.9616C46.299 11.8193 46.3674 11.6219 46.3674 11.3694C46.3674 11.117 46.299 10.9196 46.162 10.7773C46.025 10.6323 45.8236 10.5598 45.5577 10.5598H44.6635V12.1711Z" fill="white"/>
<path d="M51.9628 14.2376H50.0251L49.6868 15.3333H48.1761L50.3273 9.46808H51.6566L53.8239 15.3333H52.3052L51.9628 14.2376ZM50.3635 13.1459H51.6244L50.9919 11.1116L50.3635 13.1459Z" fill="white"/>
<path d="M56.4342 13.2628H55.6688V15.3333H54.2549V9.46808H56.5631C57.2587 9.46808 57.8025 9.6225 58.1946 9.93134C58.5867 10.2402 58.7827 10.6766 58.7827 11.2405C58.7827 11.6487 58.6995 11.9871 58.533 12.2557C58.3691 12.5242 58.1113 12.7418 57.7595 12.9083L58.9841 15.2729V15.3333H57.4695L56.4342 13.2628ZM55.6688 12.1711H56.5631C56.8317 12.1711 57.0331 12.1013 57.1674 11.9616C57.3043 11.8193 57.3728 11.6219 57.3728 11.3694C57.3728 11.117 57.3043 10.9196 57.1674 10.7773C57.0304 10.6323 56.829 10.5598 56.5631 10.5598H55.6688V12.1711Z" fill="white"/>
</svg>
