<svg width="11" height="11" viewBox="0 0 11 11" fill="none" xmlns="http://www.w3.org/2000/svg">
<path fill-rule="evenodd" clip-rule="evenodd" d="M5.44849 1.58597L9.39698 3.99894V4.07924H1.5V3.99894L5.44849 1.58597ZM0 3.71852C0 3.37015 0.181295 3.0469 0.47855 2.86524L4.92704 0.146718C5.24715 -0.0489059 5.64983 -0.0489062 5.96994 0.146718L10.4184 2.86524C10.7157 3.0469 10.897 3.37016 10.897 3.71852V4.57924C10.897 5.13152 10.4493 5.57924 9.89698 5.57924H9.68637V9.42232C9.68637 9.9746 9.23865 10.4223 8.68637 10.4223H2.21094C1.65865 10.4223 1.21094 9.9746 1.21094 9.42232V5.57924H1C0.447716 5.57924 0 5.13152 0 4.57924V3.71852ZM2.71094 8.92232V5.58191H8.18637V8.92232H2.71094Z" fill="#107EFF"/>
</svg>
