<svg xmlns="http://www.w3.org/2000/svg">
  <symbol id="video-icon" width="7" height="10" viewBox="0 0 7 10">
    <path d="M5.86077 5.73498C6.41912 5.33616 6.41912 4.50633 5.86077 4.10751L1.58124 1.0507C0.91937 0.577937 0 1.05106 0 1.86443V7.97806C0 8.79143 0.91937 9.26455 1.58124 8.79179L5.86077 5.73498Z"/>
  </symbol>

  <symbol id="photo-icon" width="10" height="10" viewBox="0 0 10 10">
    <path fill-rule="evenodd" clip-rule="evenodd" d="M10.0891 7.03512C10.0891 7.86355 9.41749 8.53512 8.58906 8.53512H1.77954C0.951114 8.53512 0.279541 7.86355 0.279541 7.03512V2.90699C0.279541 2.07857 0.951114 1.40699 1.77954 1.40699H2.50309C2.75106 1.40699 2.99018 1.31486 3.17405 1.14849L3.83145 0.553626C4.01531 0.387249 4.25444 0.29512 4.50241 0.29512H6.21815C6.4504 0.29512 6.6754 0.375956 6.85455 0.523755L7.64798 1.17836C7.82713 1.32616 8.05213 1.40699 8.28438 1.40699H8.58906C9.41749 1.40699 10.0891 2.07857 10.0891 2.90699V7.03512ZM6.79287 4.61131C6.79287 5.45646 6.10774 6.1416 5.26259 6.1416C4.41743 6.1416 3.7323 5.45646 3.7323 4.61131C3.7323 3.76616 4.41743 3.08102 5.26259 3.08102C6.10774 3.08102 6.79287 3.76616 6.79287 4.61131Z"/>
  </symbol>

  <symbol id="audio-icon" width="8" height="10" viewBox="0 0 8 10"  >
    <path d="M1.73869 2.92125C1.96577 2.92125 2.18608 2.84397 2.36339 2.70212L5.46478 0.221009C6.11954 -0.302802 7.08947 0.163371 7.08947 1.00188V8.84063C7.08947 9.67913 6.11954 10.1453 5.46478 9.6215L2.36339 7.14038C2.18608 6.99853 1.96577 6.92125 1.73869 6.92125H1.08911C0.536827 6.92125 0.0891113 6.47354 0.0891113 5.92125V3.92125C0.0891113 3.36897 0.536826 2.92125 1.08911 2.92125H1.73869Z"/>
  </symbol>

  <symbol id="delete-icon" width="14" height="16" viewBox="0 0 14 16"  >
    <path fill-rule="evenodd" clip-rule="evenodd" d="M5.08888 0C4.96223 0 4.84031 0.0480592 4.74772 0.134472L4.31915 0.534473C4.23631 0.611788 4.18782 0.704455 4.16875 0.799988H2.99231H1.09232C0.539812 0.799988 0.0919189 1.24788 0.0919189 1.80038C0.0919189 2.31914 0.486763 2.74567 0.992314 2.79585L0.99231 2.79999V14C0.99231 15.1046 1.88774 16 2.99231 16H10.1923C11.2969 16 12.1923 15.1046 12.1923 14V2.79999L12.1923 2.79577C12.6975 2.74523 13.0919 2.31887 13.0919 1.80038C13.0919 1.24788 12.644 0.799988 12.0915 0.799988H10.1923H9.07615C9.058 0.709643 9.01347 0.621669 8.93825 0.546447L8.53824 0.146447C8.44448 0.0526784 8.3173 0 8.18469 0H5.08888ZM10.1923 2.80078H2.99231L2.99231 14L10.1923 14L10.1923 2.80078ZM6.09192 5.10986C6.09192 4.55758 5.6442 4.10986 5.09192 4.10986C4.53963 4.10986 4.09192 4.55758 4.09192 5.10986V11.7483C4.09192 12.3005 4.53963 12.7483 5.09192 12.7483C5.6442 12.7483 6.09192 12.3005 6.09192 11.7483V5.10986ZM8.0929 4.10986C8.64518 4.10986 9.0929 4.55758 9.0929 5.10986V11.7483C9.0929 12.3005 8.64518 12.7483 8.0929 12.7483C7.54061 12.7483 7.0929 12.3005 7.0929 11.7483V5.10986C7.0929 4.55758 7.54061 4.10986 8.0929 4.10986Z"/>
  </symbol>

  <symbol id="edit-icon" width="20" height="20" viewBox="0 0 20 20"  >
   <path fill-rule="evenodd" clip-rule="evenodd" d="M16.2971 5.73483L13.3571 2.79483L12.2599 3.89204L15.1999 6.83204L16.2971 5.73483ZM13.7635 8.26844L10.8235 5.32844L4.26675 11.8852L7.20675 14.8252L13.7635 8.26844ZM14.7935 1.35843C14.0432 0.608189 12.792 0.6431 11.9987 1.4364L2.90832 10.5267C2.11502 11.32 2.08011 12.5713 2.83035 13.3216L3.00082 13.492L2.88687 14.5995L2.74016 16.0253C2.72084 16.2131 2.87824 16.3616 3.06531 16.3321L5.46253 15.9538L5.77035 16.2616C6.52058 17.0118 7.77187 16.9769 8.56518 16.1836L17.6555 7.09326C18.4488 6.29995 18.4837 5.04867 17.7335 4.29843L14.7935 1.35843Z"/>
  </symbol>

  <symbol id="search-icon"  width="13" height="14" viewBox="0 0 13 14"  >
    <circle cx="5.78561" cy="5.78561" r="4.78561" fill="#E8F3FF" stroke="#107EFF" stroke-width="2"/>
    <path d="M9 10L12 13" stroke="#107EFF" stroke-width="2" stroke-linecap="round"/>
  </symbol>

  <symbol id="calendar-icon" width="15" height="14" viewBox="0 0 15 14"  >
    <path fill-rule="evenodd" clip-rule="evenodd" d="M13.75 1.27273H1.25L1.25 12.7273H13.75V1.27273ZM1.25 0C0.559644 0 0 0.569819 0 1.27273V12.7273C0 13.4302 0.559644 14 1.25 14H13.75C14.4404 14 15 13.4302 15 12.7273V1.27273C15 0.569819 14.4404 0 13.75 0H1.25Z" fill="#107EFF"/>
    <path d="M2.5 3.18182C1.75 3.18182 1.35417 4.0303 1.25 4.45455H0L0.625 0.636364H14.375L15 4.45455H13.75C13.75 3.69091 13.125 3.18182 12.5 3.18182H2.5Z" fill="#107EFF"/>
    <path d="M5.625 6.36364C5.625 7.06654 5.06536 7.63636 4.375 7.63636C3.68464 7.63636 3.125 7.06654 3.125 6.36364C3.125 5.66073 3.68464 5.09091 4.375 5.09091C5.06536 5.09091 5.625 5.66073 5.625 6.36364Z" fill="#107EFF"/>
    <path d="M8.125 6.36364C8.125 6.71509 7.84518 7 7.5 7C7.15482 7 6.875 6.71509 6.875 6.36364C6.875 6.01218 7.15482 5.72727 7.5 5.72727C7.84518 5.72727 8.125 6.01218 8.125 6.36364Z" fill="#107EFF"/>
    <path d="M11.25 6.36364C11.25 6.71509 10.9702 7 10.625 7C10.2798 7 10 6.71509 10 6.36364C10 6.01218 10.2798 5.72727 10.625 5.72727C10.9702 5.72727 11.25 6.01218 11.25 6.36364Z" fill="#107EFF"/>
    <path d="M8.125 9.54545C8.125 9.89691 7.84518 10.1818 7.5 10.1818C7.15482 10.1818 6.875 9.89691 6.875 9.54545C6.875 9.194 7.15482 8.90909 7.5 8.90909C7.84518 8.90909 8.125 9.194 8.125 9.54545Z" fill="#107EFF"/>
    <path d="M5 9.54545C5 9.89691 4.72018 10.1818 4.375 10.1818C4.02982 10.1818 3.75 9.89691 3.75 9.54545C3.75 9.194 4.02982 8.90909 4.375 8.90909C4.72018 8.90909 5 9.194 5 9.54545Z" fill="#107EFF"/>
    <path d="M11.25 9.54545C11.25 9.89691 10.9702 10.1818 10.625 10.1818C10.2798 10.1818 10 9.89691 10 9.54545C10 9.194 10.2798 8.90909 10.625 8.90909C10.9702 8.90909 11.25 9.194 11.25 9.54545Z" fill="#107EFF"/>
  </symbol>

  <symbol id="plus-icon" width="14" height="14" viewBox="0 0 14 14"  >
    <path fill-rule="evenodd" clip-rule="evenodd" d="M8.05157 1.05155C8.05157 0.470794 7.58077 -4.43179e-08 7.00002 0C6.41927 -4.43179e-08 5.94847 0.470794 5.94847 1.05155V5.94843H1.05155C0.470794 5.94843 -7.0911e-07 6.41922 0 6.99998C-7.0911e-07 7.58073 0.470794 8.05153 1.05155 8.05153H5.94847V12.9485C5.94847 13.5292 6.41927 14 7.00002 14C7.58078 14 8.05157 13.5292 8.05157 12.9485V8.05153H12.9485C13.5292 8.05153 14 7.58073 14 6.99998C14 6.41922 13.5292 5.94843 12.9485 5.94843H8.05157V1.05155Z" fill="#107EFF"/>
  </symbol>

  <symbol id="plus-sm-icon" width="8" height="8" viewBox="0 0 8 8"  >
    <path fill-rule="evenodd" clip-rule="evenodd" d="M5 1C5 0.447715 4.55228 0 4 0C3.44772 0 3 0.447715 3 1V3H1C0.447715 3 0 3.44771 0 4C0 4.55228 0.447715 5 1 5H3V7C3 7.55228 3.44772 8 4 8C4.55228 8 5 7.55228 5 7V5H7C7.55228 5 8 4.55228 8 4C8 3.44772 7.55228 3 7 3H5V1Z" fill="#107EFF"/>
  </symbol>

  <symbol id="cross-sm-icon" width="6" height="6" viewBox="0 0 6 6"  >
    <path fill-rule="evenodd" clip-rule="evenodd" d="M0.175736 0.175736C0.410051 -0.0585787 0.78995 -0.0585787 1.02426 0.175736L5.82426 4.97574C6.05858 5.21005 6.05858 5.58995 5.82426 5.82426C5.58995 6.05858 5.21005 6.05858 4.97574 5.82426L0.175736 1.02426C-0.0585787 0.78995 -0.0585787 0.410051 0.175736 0.175736Z" fill="white"/>
    <path fill-rule="evenodd" clip-rule="evenodd" d="M5.82426 0.175736C5.58995 -0.0585787 5.21005 -0.0585787 4.97574 0.175736L0.175736 4.97574C-0.058579 5.21005 -0.058579 5.58995 0.175736 5.82426C0.41005 6.05858 0.789949 6.05858 1.02426 5.82426L5.82426 1.02426C6.05858 0.78995 6.05858 0.410051 5.82426 0.175736Z" fill="white"/>
  </symbol>

  <symbol id="cross-icon" width="10" height="10" viewBox="0 0 10 10"  >
    <path fill-rule="evenodd" clip-rule="evenodd" d="M8.29289 0.292893C8.68342 -0.0976311 9.31658 -0.0976311 9.70711 0.292893C10.0976 0.683417 10.0976 1.31658 9.70711 1.70711L6.41421 5L9.70711 8.29289C10.0976 8.68342 10.0976 9.31658 9.70711 9.70711C9.31658 10.0976 8.68342 10.0976 8.29289 9.70711L5 6.41421L1.70711 9.70711C1.31658 10.0976 0.683418 10.0976 0.292894 9.70711C-0.0976312 9.31658 -0.0976312 8.68342 0.292894 8.29289L3.58579 5L0.292893 1.70711C-0.0976309 1.31658 -0.0976309 0.683417 0.292893 0.292893C0.683418 -0.0976311 1.31658 -0.0976311 1.70711 0.292893L5 3.58579L8.29289 0.292893Z" fill="#107EFF"/>
  </symbol>

  <symbol id="tick-blue-icon" width="7" height="5" viewBox="0 0 7 5"  >
    <path fill-rule="evenodd" clip-rule="evenodd" d="M6.69175 1.67175C7.10236 1.28931 7.10236 0.669262 6.69175 0.286827C6.28114 -0.0956089 5.61541 -0.0956089 5.20479 0.286827L2.68349 2.63513L1.79491 1.80753C1.3843 1.42509 0.718568 1.42509 0.307958 1.80753C-0.102653 2.18996 -0.102653 2.81001 0.307958 3.19245L1.90793 4.68264C1.91812 4.69296 1.92858 4.70314 1.93933 4.71315C2.14401 4.90378 2.41207 4.99939 2.68033 4.99997C2.95069 5.00088 3.22136 4.90527 3.42764 4.71315C3.4384 4.70313 3.44888 4.69294 3.45907 4.68261L6.69175 1.67175Z" fill="#107EFF"/>
  </symbol>

  <symbol id="icon-notify" width="20" height="24" viewBox="0 0 20 24" fill="none" xmlns="http://www.w3.org/2000/svg">
    <path d="M18.2499 21.1997H1.74994C0.784973 21.1997 0 20.4169 0 19.4546C0 18.9438 0.223023 18.4603 0.611939 18.1281C2.133 16.8466 3 14.9839 3 13.0103V10.2298C3 6.38053 6.14008 3.24907 9.99994 3.24907C13.86 3.24907 17.0001 6.38053 17.0001 10.2298V13.0103C17.0001 14.9839 17.8671 16.8466 19.3781 18.1212C19.777 18.4603 20.0001 18.9438 20.0001 19.4546C20.0001 20.4169 19.2151 21.1997 18.2499 21.1997Z" fill="#E8F3FF" />
    <path fill-rule="evenodd" clip-rule="evenodd" d="M10.9844 1.00524C10.9844 0.450059 10.5367 0 9.98438 0C9.43209 0 8.98438 0.450059 8.98438 1.00524V3.32233C5.60407 3.81433 3 6.72443 3 10.2298V13.0103C3 14.9839 2.133 16.8466 0.611939 18.1281C0.223023 18.4603 0 18.9438 0 19.4546C0 20.4169 0.784973 21.1997 1.74994 21.1997H6.63702C6.92074 22.7953 8.31881 24 9.98447 24C11.6504 24 13.0482 22.7953 13.3319 21.1997H18.2499C19.2151 21.1997 20.0001 20.4169 20.0001 19.4546C20.0001 18.9438 19.777 18.4603 19.3781 18.1212C17.8671 16.8466 17.0001 14.9839 17.0001 13.0103V10.2298C17.0001 6.71366 14.38 3.79646 10.9844 3.31787V1.00524ZM9.98447 21.9895C9.42484 21.9895 8.94669 21.6639 8.72182 21.1997H11.2472C11.0223 21.664 10.5442 21.9895 9.98447 21.9895ZM17.5761 19.1892C15.9341 17.5628 15.0001 15.3469 15.0001 13.0103V10.2298C15.0001 7.50599 12.7705 5.25954 9.99994 5.25954C7.22959 5.25954 5 7.50596 5 10.2298V13.0103C5 15.3457 4.06705 17.5589 2.42162 19.1892H17.5761Z" fill="#107EFF" />
  </symbol>
</svg>