<svg width="14" height="14" viewBox="0 0 14 14" fill="none" xmlns="http://www.w3.org/2000/svg">
<path fill-rule="evenodd" clip-rule="evenodd" d="M8.05157 1.05155C8.05157 0.470794 7.58077 -4.43179e-08 7.00002 0C6.41927 -4.43179e-08 5.94847 0.470794 5.94847 1.05155V5.94843H1.05155C0.470794 5.94843 -7.0911e-07 6.41922 0 6.99998C-7.0911e-07 7.58073 0.470794 8.05153 1.05155 8.05153H5.94847V12.9485C5.94847 13.5292 6.41927 14 7.00002 14C7.58078 14 8.05157 13.5292 8.05157 12.9485V8.05153H12.9485C13.5292 8.05153 14 7.58073 14 6.99998C14 6.41922 13.5292 5.94843 12.9485 5.94843H8.05157V1.05155Z" fill="#107EFF"/>
</svg>
