<svg width="40" height="40" viewBox="0 0 40 40" fill="none" xmlns="http://www.w3.org/2000/svg">
<rect width="40" height="40" rx="4" fill="white"/>
<path d="M17.6001 28.4286C17.6001 29.7419 18.6765 30.8095 20.0001 30.8095C21.3239 30.8095 22.4001 29.7419 22.4001 28.4286" stroke="#107EFF" stroke-width="2"/>
<path d="M11.7656 28.0239C11.3454 28.0239 11.0156 27.6854 11.0156 27.2878C11.0156 27.0754 11.108 26.8733 11.2731 26.732C13.017 25.2689 14.0156 23.1374 14.0156 20.8772V18.1111C14.0156 14.8417 16.7005 12.1667 20.0156 12.1667C23.3309 12.1667 26.0157 14.8417 26.0157 18.1111V20.8772C26.0157 23.1372 27.0143 25.2695 28.7495 26.7263C28.926 26.8762 29.0157 27.0788 29.0157 27.2878C29.0157 27.6853 28.686 28.0239 28.2656 28.0239H11.7656Z" fill="#E8F3FF" stroke="#107EFF" stroke-width="2"/>
<path d="M20 11.9108V8.93457" stroke="#107EFF" stroke-width="2" stroke-linecap="round"/>
<circle cx="29.5" cy="10.5" r="8.5" fill="#FF603E" stroke="white" stroke-width="2"/>
<path d="M28.4648 10.084H29.332C29.7695 10.0801 30.1152 9.9668 30.3691 9.74414C30.627 9.52148 30.7559 9.19922 30.7559 8.77734C30.7559 8.37109 30.6484 8.05664 30.4336 7.83398C30.2227 7.60742 29.8984 7.49414 29.4609 7.49414C29.0781 7.49414 28.7637 7.60547 28.5176 7.82812C28.2715 8.04688 28.1484 8.33398 28.1484 8.68945H26.7246C26.7246 8.25195 26.8398 7.85352 27.0703 7.49414C27.3047 7.13477 27.6289 6.85547 28.043 6.65625C28.4609 6.45312 28.9277 6.35156 29.4434 6.35156C30.2949 6.35156 30.9629 6.56641 31.4473 6.99609C31.9355 7.42188 32.1797 8.01562 32.1797 8.77734C32.1797 9.16016 32.0566 9.52148 31.8105 9.86133C31.5684 10.1973 31.2539 10.4512 30.8672 10.623C31.3359 10.7832 31.6914 11.0352 31.9336 11.3789C32.1797 11.7227 32.3027 12.1328 32.3027 12.6094C32.3027 13.375 32.0391 13.9844 31.5117 14.4375C30.9883 14.8906 30.2988 15.1172 29.4434 15.1172C28.623 15.1172 27.9512 14.8984 27.4277 14.4609C26.9043 14.0234 26.6426 13.4414 26.6426 12.7148H28.0664C28.0664 13.0898 28.1914 13.3945 28.4414 13.6289C28.6953 13.8633 29.0352 13.9805 29.4609 13.9805C29.9023 13.9805 30.25 13.8633 30.5039 13.6289C30.7578 13.3945 30.8848 13.0547 30.8848 12.6094C30.8848 12.1602 30.752 11.8145 30.4863 11.5723C30.2207 11.3301 29.8262 11.209 29.3027 11.209H28.4648V10.084Z" fill="white"/>
</svg>
