<svg width="20" height="20" viewBox="0 0 20 20" fill="none" xmlns="http://www.w3.org/2000/svg">
<path fill-rule="evenodd" clip-rule="evenodd" d="M16.2971 5.73483L13.3571 2.79483L12.2599 3.89204L15.1999 6.83204L16.2971 5.73483ZM13.7635 8.26844L10.8235 5.32844L4.26675 11.8852L7.20675 14.8252L13.7635 8.26844ZM14.7935 1.35843C14.0432 0.608189 12.792 0.6431 11.9987 1.4364L2.90832 10.5267C2.11502 11.32 2.08011 12.5713 2.83035 13.3216L3.00082 13.492L2.88687 14.5995L2.74016 16.0253C2.72084 16.2131 2.87824 16.3616 3.06531 16.3321L5.46253 15.9538L5.77035 16.2616C6.52058 17.0118 7.77187 16.9769 8.56518 16.1836L17.6555 7.09326C18.4488 6.29995 18.4837 5.04867 17.7335 4.29843L14.7935 1.35843Z" fill="white"/>
</svg>
