<svg width="0" height="0" class="hidden">
  <symbol xmlns="http://www.w3.org/2000/svg" viewBox="0 0 20 20" id="edit">
    <path fill-rule="evenodd" clip-rule="evenodd" d="M16.862 5.73483L13.922 2.79483L12.8248 3.89204L15.7648 6.83204L16.862 5.73483ZM14.3284 8.26844L11.3884 5.32844L4.83169 11.8852L7.77169 14.8252L14.3284 8.26844ZM15.3584 1.35843C14.6082 0.608189 13.3569 0.6431 12.5636 1.4364L3.47327 10.5267C2.67996 11.32 2.64505 12.5713 3.39529 13.3216L3.56577 13.492L3.45181 14.5995L3.30511 16.0253C3.28578 16.2131 3.44318 16.3616 3.63025 16.3321L6.02748 15.9538L6.33529 16.2616C7.08553 17.0118 8.33682 16.9769 9.13012 16.1836L18.2204 7.09326C19.0138 6.29995 19.0487 5.04867 18.2984 4.29843L15.3584 1.35843Z"/>
  </symbol>

  <symbol id="cross" viewBox="0 0 10 10">
    <path fill-rule="evenodd" clip-rule="evenodd" d="M0.292893 0.292893C0.683417 -0.0976311 1.31658 -0.0976311 1.70711 0.292893L9.70711 8.29289C10.0976 8.68342 10.0976 9.31658 9.70711 9.70711C9.31658 10.0976 8.68342 10.0976 8.29289 9.70711L0.292893 1.70711C-0.0976311 1.31658 -0.0976311 0.683417 0.292893 0.292893Z"/>
    <path fill-rule="evenodd" clip-rule="evenodd" d="M9.70711 0.292893C9.31658 -0.0976311 8.68342 -0.0976311 8.29289 0.292893L0.292893 8.29289C-0.0976315 8.68342 -0.0976315 9.31658 0.292893 9.70711C0.683417 10.0976 1.31658 10.0976 1.70711 9.70711L9.70711 1.70711C10.0976 1.31658 10.0976 0.683417 9.70711 0.292893Z"/>
  </symbol>

  <symbol id="bell" viewBox="0 0 21 25">
    <path d="M7.6001 21.4286C7.6001 22.7419 8.67646 23.8095 10.0001 23.8095C11.3239 23.8095 12.4001 22.7419 12.4001 21.4286" stroke="#107EFF" stroke-width="2"/>
    <path d="M1.76556 21.0239C1.34536 21.0239 1.01562 20.6854 1.01562 20.2878C1.01562 20.0754 1.10799 19.8733 1.27314 19.732C3.01696 18.2689 4.01562 16.1374 4.01562 13.8772V11.1111C4.01562 7.84168 6.70046 5.16675 10.0156 5.16675C13.3309 5.16675 16.0157 7.8417 16.0157 11.1111V13.8772C16.0157 16.1372 17.0143 18.2695 18.7495 19.7263C18.926 19.8762 19.0157 20.0788 19.0157 20.2878C19.0157 20.6853 18.686 21.0239 18.2656 21.0239H1.76556Z" fill="#E8F3FF" stroke="#107EFF" stroke-width="2"/>
    <path d="M10 4.91076V1.93457" stroke="#107EFF" stroke-width="2" stroke-linecap="round"/>
  </symbol>

  <symbol id="new" viewBox="0 0 40 40">
    <rect width="40" height="40" rx="4" fill="white"/>
    <path d="M17.6001 28.4286C17.6001 29.7419 18.6765 30.8095 20.0001 30.8095C21.3239 30.8095 22.4001 29.7419 22.4001 28.4286" stroke="#107EFF" stroke-width="2"/>
    <path d="M11.7656 28.0239C11.3454 28.0239 11.0156 27.6854 11.0156 27.2878C11.0156 27.0754 11.108 26.8733 11.2731 26.732C13.017 25.2689 14.0156 23.1374 14.0156 20.8772V18.1111C14.0156 14.8417 16.7005 12.1667 20.0156 12.1667C23.3309 12.1667 26.0157 14.8417 26.0157 18.1111V20.8772C26.0157 23.1372 27.0143 25.2695 28.7495 26.7263C28.926 26.8762 29.0157 27.0788 29.0157 27.2878C29.0157 27.6853 28.686 28.0239 28.2656 28.0239H11.7656Z" fill="#E8F3FF" stroke="#107EFF" stroke-width="2"/>
    <path d="M20 11.9108V8.93457" stroke="#107EFF" stroke-width="2" stroke-linecap="round"/>
    <circle cx="29.5" cy="10.5" r="8.5" fill="#FF603E" stroke="white" stroke-width="2"/>
    <path d="M28.4648 10.084H29.332C29.7695 10.0801 30.1152 9.9668 30.3691 9.74414C30.627 9.52148 30.7559 9.19922 30.7559 8.77734C30.7559 8.37109 30.6484 8.05664 30.4336 7.83398C30.2227 7.60742 29.8984 7.49414 29.4609 7.49414C29.0781 7.49414 28.7637 7.60547 28.5176 7.82812C28.2715 8.04688 28.1484 8.33398 28.1484 8.68945H26.7246C26.7246 8.25195 26.8398 7.85352 27.0703 7.49414C27.3047 7.13477 27.6289 6.85547 28.043 6.65625C28.4609 6.45312 28.9277 6.35156 29.4434 6.35156C30.2949 6.35156 30.9629 6.56641 31.4473 6.99609C31.9355 7.42188 32.1797 8.01562 32.1797 8.77734C32.1797 9.16016 32.0566 9.52148 31.8105 9.86133C31.5684 10.1973 31.2539 10.4512 30.8672 10.623C31.3359 10.7832 31.6914 11.0352 31.9336 11.3789C32.1797 11.7227 32.3027 12.1328 32.3027 12.6094C32.3027 13.375 32.0391 13.9844 31.5117 14.4375C30.9883 14.8906 30.2988 15.1172 29.4434 15.1172C28.623 15.1172 27.9512 14.8984 27.4277 14.4609C26.9043 14.0234 26.6426 13.4414 26.6426 12.7148H28.0664C28.0664 13.0898 28.1914 13.3945 28.4414 13.6289C28.6953 13.8633 29.0352 13.9805 29.4609 13.9805C29.9023 13.9805 30.25 13.8633 30.5039 13.6289C30.7578 13.3945 30.8848 13.0547 30.8848 12.6094C30.8848 12.1602 30.752 11.8145 30.4863 11.5723C30.2207 11.3301 29.8262 11.209 29.3027 11.209H28.4648V10.084Z" fill="white"/>
  </symbol>

  <symbol id="video" viewBox="0 0 7 10">
    <path d="M5.86077 5.81371C6.41912 5.41489 6.41912 4.58507 5.86077 4.18625L1.58124 1.12944C0.91937 0.656673 0 1.1298 0 1.94317V8.05679C0 8.87016 0.91937 9.34329 1.58124 8.87052L5.86077 5.81371Z"/>
  </symbol>

  <symbol id="photo" viewBox="0 0 10 9">
    <path fill-rule="evenodd" clip-rule="evenodd" d="M9.80952 7.11378C9.80952 7.94221 9.13795 8.61378 8.30952 8.61378H1.5C0.671573 8.61378 0 7.94221 0 7.11378V2.98565C0 2.15722 0.671573 1.48565 1.5 1.48565H2.22355C2.47152 1.48565 2.71064 1.39352 2.89451 1.22715L3.55191 0.632285C3.73577 0.465908 3.9749 0.373779 4.22287 0.373779H5.93861C6.17086 0.373779 6.39586 0.454616 6.57501 0.602415L7.36844 1.25702C7.54759 1.40482 7.77259 1.48565 8.00483 1.48565H8.30952C9.13795 1.48565 9.80952 2.15722 9.80952 2.98565V7.11378ZM6.51333 4.68995C6.51333 5.53511 5.8282 6.22024 4.98304 6.22024C4.13789 6.22024 3.45276 5.53511 3.45276 4.68995C3.45276 3.8448 4.13789 3.15967 4.98304 3.15967C5.8282 3.15967 6.51333 3.8448 6.51333 4.68995Z" fill="black"/>
  </symbol>

  <symbol id="audio" viewBox="0 0 7 10">
   <path d="M1.64958 3.00011C1.87665 3.00011 2.09696 2.92283 2.27428 2.78098L5.37567 0.299866C6.03043 -0.223945 7.00036 0.242228 7.00036 1.08073V8.91948C7.00036 9.75799 6.03043 10.2242 5.37567 9.70035L2.27428 7.21924C2.09696 7.07739 1.87665 7.00011 1.64958 7.00011H1C0.447716 7.00011 0 6.55239 0 6.00011V4.00011C0 3.44782 0.447715 3.00011 1 3.00011H1.64958Z"/>
  </symbol>

  <symbol id="player-back" viewBox="0 0 26 11">
    <path fill-rule="evenodd" clip-rule="evenodd" d="M6.25713 1.70711C6.65092 1.31658 6.65092 0.683417 6.25713 0.292893C5.86335 -0.0976311 5.2249 -0.0976311 4.83111 0.292893L0.65004 4.43934C0.0593631 5.02513 0.0593604 5.97487 0.65004 6.56066L4.83111 10.7071C5.2249 11.0976 5.86335 11.0976 6.25713 10.7071C6.65092 10.3166 6.65092 9.68342 6.25713 9.29289L3.44092 6.5H24.1987C24.7556 6.5 25.207 6.05228 25.207 5.5C25.207 4.94772 24.7556 4.5 24.1987 4.5H3.44092L6.25713 1.70711Z" fill="white"/>
  </symbol>

  <symbol id="play" viewBox="0 0 9 12">
    <path d="M8.39982 7.20298C9.20006 6.61339 9.20006 5.38661 8.39982 4.79702L2.26627 0.277974C1.31767 -0.420937 0 0.278508 0 1.48096V10.519C0 11.7215 1.31767 12.4209 2.26627 11.722L8.39982 7.20298Z" fill="white"/>
  </symbol>

  <symbol id="pause" viewBox="0 0 7 12">
    <path fill-rule="evenodd" clip-rule="evenodd" d="M1 0C0.447693 0 0 0.447716 0 1V11C0 11.5523 0.447693 12 1 12C1.55231 12 2 11.5523 2 11V1C2 0.447716 1.55231 0 1 0ZM6 0C5.44769 0 5 0.447716 5 1V11C5 11.5523 5.44769 12 6 12C6.55231 12 7 11.5523 7 11V1C7 0.447716 6.55231 0 6 0Z" fill="white"/>
  </symbol>

  <symbol id="volume" viewBox="0 0 18 16">
    <path fill-rule="evenodd" clip-rule="evenodd" d="M8.47789 3.02688L4.46918 6.06617C3.94793 6.46136 3.31201 6.67523 2.65819 6.67523H2V8.34406H2.65819C3.31201 8.34406 3.94793 8.55793 4.46918 8.95312L8.47789 11.9924V3.02688ZM3.26185 4.46962C3.0881 4.60135 2.87613 4.67265 2.65819 4.67265H1C0.447715 4.67265 0 5.12094 0 5.67394V9.34535C0 9.89835 0.447716 10.3466 1 10.3466H2.65819C2.87613 10.3466 3.0881 10.4179 3.26185 10.5497L8.87423 14.8048C9.53288 15.3042 10.4779 14.8338 10.4779 14.0065V1.01276C10.4779 0.185537 9.53288 -0.284873 8.87423 0.214493L3.26185 4.46962Z" fill="white"/>
    <path fill-rule="evenodd" clip-rule="evenodd" d="M13.9842 4.00198C14.1894 3.48857 14.7714 3.23892 15.2842 3.44438C16.8834 4.08519 17.9997 5.67139 17.9997 7.50963C17.9997 9.34786 16.8834 10.9341 15.2842 11.5749C14.7714 11.7803 14.1894 11.5307 13.9842 11.0173C13.779 10.5039 14.0283 9.92109 14.5411 9.71564C15.3851 9.37745 15.9997 8.52491 15.9997 7.50963C15.9997 6.49434 15.3851 5.6418 14.5411 5.30362C14.0283 5.09816 13.779 4.5154 13.9842 4.00198Z" fill="white"/>
    <path fill-rule="evenodd" clip-rule="evenodd" d="M11.2778 5.65639C11.4564 5.13309 12.0248 4.85378 12.5474 5.03255C13.5683 5.38176 14.4167 6.30473 14.4167 7.50964C14.4167 8.71455 13.5683 9.63752 12.5474 9.98673C12.0248 10.1655 11.4564 9.88619 11.2778 9.36289C11.0993 8.83958 11.3782 8.27044 11.9009 8.09167C12.2761 7.96332 12.4167 7.69667 12.4167 7.50964C12.4167 7.32261 12.2761 7.05596 11.9009 6.92761C11.3782 6.74884 11.0993 6.1797 11.2778 5.65639Z" fill="white"/>
  </symbol>

  <symbol id="mute" viewBox="0 0 19 15">
    <path fill-rule="evenodd" clip-rule="evenodd" d="M8.47789 3.02298L4.46918 6.05834C3.94793 6.45303 3.31201 6.66662 2.65819 6.66662H2V8.33329H2.65819C3.31201 8.33329 3.94793 8.54688 4.46918 8.94156L8.47789 11.9769V3.02298ZM3.26185 4.46386C3.0881 4.59542 2.87613 4.66662 2.65819 4.66662H1C0.447715 4.66662 0 5.11433 0 5.66662V9.33329C0 9.88557 0.447716 10.3333 1 10.3333H2.65819C2.87613 10.3333 3.0881 10.4045 3.26185 10.536L8.87423 14.7857C9.53288 15.2844 10.4779 14.8146 10.4779 13.9884V1.01147C10.4779 0.185309 9.53288 -0.284492 8.87423 0.214228L3.26185 4.46386Z" fill="white"/>
    <path fill-rule="evenodd" clip-rule="evenodd" d="M16.7929 4.29289C17.1834 3.90237 17.8166 3.90237 18.2071 4.29289C18.5976 4.68342 18.5976 5.31658 18.2071 5.70711L16.6642 7.25L18.2071 8.79289C18.5976 9.18342 18.5976 9.81658 18.2071 10.2071C17.8166 10.5976 17.1834 10.5976 16.7929 10.2071L15.25 8.66421L13.7071 10.2071C13.3166 10.5976 12.6834 10.5976 12.2929 10.2071C11.9024 9.81658 11.9024 9.18342 12.2929 8.79289L13.8358 7.25L12.2929 5.70711C11.9024 5.31658 11.9024 4.68342 12.2929 4.29289C12.6834 3.90237 13.3166 3.90237 13.7071 4.29289L15.25 5.83579L16.7929 4.29289Z" fill="white"/>
  </symbol>

  <symbol id="fullscreen" viewBox="0 0 16 16">
    <path fill-rule="evenodd" clip-rule="evenodd" d="M0 2C0 0.89543 0.895431 0 2 0H4.5C5.05228 0 5.5 0.447715 5.5 1C5.5 1.55228 5.05228 2 4.5 2H2V4.5C2 5.05228 1.55228 5.5 1 5.5C0.447715 5.5 0 5.05228 0 4.5V2Z" fill="white"/>
    <path fill-rule="evenodd" clip-rule="evenodd" d="M0 14C0 15.1046 0.895431 16 2 16H4.5C5.05228 16 5.5 15.5523 5.5 15C5.5 14.4477 5.05228 14 4.5 14H2V11.5C2 10.9477 1.55228 10.5 1 10.5C0.447715 10.5 0 10.9477 0 11.5V14Z" fill="white"/>
    <path fill-rule="evenodd" clip-rule="evenodd" d="M16 2C16 0.89543 15.1046 0 14 0H11.5C10.9477 0 10.5 0.447715 10.5 1C10.5 1.55228 10.9477 2 11.5 2H14V4.5C14 5.05228 14.4477 5.5 15 5.5C15.5523 5.5 16 5.05228 16 4.5V2Z" fill="white"/>
    <path fill-rule="evenodd" clip-rule="evenodd" d="M16 14C16 15.1046 15.1046 16 14 16H11.5C10.9477 16 10.5 15.5523 10.5 15C10.5 14.4477 10.9477 14 11.5 14H14V11.5C14 10.9477 14.4477 10.5 15 10.5C15.5523 10.5 16 10.9477 16 11.5V14Z" fill="white"/>
  </symbol>

</svg>
