<svg width="10" height="11" viewBox="0 0 10 11" fill="none" xmlns="http://www.w3.org/2000/svg">
<path fill-rule="evenodd" clip-rule="evenodd" d="M2.55899 0C3.97228 0 5.11798 1.1457 5.11798 2.55899V3.53748H8.22719C8.77948 3.53748 9.22719 3.98519 9.22719 4.53748V9.70216C9.22719 10.2544 8.77948 10.7022 8.22719 10.7022H2.77814C2.22585 10.7022 1.77814 10.2544 1.77814 9.70216V4.53747C1.77814 3.98519 2.22585 3.53748 2.77814 3.53748H3.61798V2.55899C3.61798 1.97413 3.14385 1.5 2.55899 1.5C1.97413 1.5 1.5 1.97413 1.5 2.55899C1.5 2.9732 1.16421 3.30899 0.75 3.30899C0.335786 3.30899 0 2.9732 0 2.55899C0 1.1457 1.1457 0 2.55899 0ZM3.27814 5.03748V9.20216H7.72719V5.03748H3.27814ZM6.43804 7.11993C6.43804 7.63547 6.02011 8.05339 5.50457 8.05339C4.98903 8.05339 4.57111 7.63547 4.57111 7.11993C4.57111 6.60439 4.98903 6.18646 5.50457 6.18646C6.02011 6.18646 6.43804 6.60439 6.43804 7.11993Z" fill="#107EFF"/>
</svg>
