<svg width="19" height="19" viewBox="0 0 19 19" fill="none" xmlns="http://www.w3.org/2000/svg">
<circle cx="9.5" cy="9.5" r="8.5" fill="#FF603E" stroke="white" stroke-width="2"/>
<path d="M8.46484 9.08398H9.33203C9.76953 9.08008 10.1152 8.9668 10.3691 8.74414C10.627 8.52148 10.7559 8.19922 10.7559 7.77734C10.7559 7.37109 10.6484 7.05664 10.4336 6.83398C10.2227 6.60742 9.89844 6.49414 9.46094 6.49414C9.07812 6.49414 8.76367 6.60547 8.51758 6.82812C8.27148 7.04688 8.14844 7.33398 8.14844 7.68945H6.72461C6.72461 7.25195 6.83984 6.85352 7.07031 6.49414C7.30469 6.13477 7.62891 5.85547 8.04297 5.65625C8.46094 5.45312 8.92773 5.35156 9.44336 5.35156C10.2949 5.35156 10.9629 5.56641 11.4473 5.99609C11.9355 6.42188 12.1797 7.01562 12.1797 7.77734C12.1797 8.16016 12.0566 8.52148 11.8105 8.86133C11.5684 9.19727 11.2539 9.45117 10.8672 9.62305C11.3359 9.7832 11.6914 10.0352 11.9336 10.3789C12.1797 10.7227 12.3027 11.1328 12.3027 11.6094C12.3027 12.375 12.0391 12.9844 11.5117 13.4375C10.9883 13.8906 10.2988 14.1172 9.44336 14.1172C8.62305 14.1172 7.95117 13.8984 7.42773 13.4609C6.9043 13.0234 6.64258 12.4414 6.64258 11.7148H8.06641C8.06641 12.0898 8.19141 12.3945 8.44141 12.6289C8.69531 12.8633 9.03516 12.9805 9.46094 12.9805C9.90234 12.9805 10.25 12.8633 10.5039 12.6289C10.7578 12.3945 10.8848 12.0547 10.8848 11.6094C10.8848 11.1602 10.752 10.8145 10.4863 10.5723C10.2207 10.3301 9.82617 10.209 9.30273 10.209H8.46484V9.08398Z" fill="white"/>
</svg>
