<svg width="14" height="14" viewBox="0 0 14 14" fill="none" xmlns="http://www.w3.org/2000/svg">
<path fill-rule="evenodd" clip-rule="evenodd" d="M6.17436 0.404493C6.63722 -0.0340823 7.36225 -0.0340823 7.82511 0.404493L10.4148 2.85835C10.8157 3.23821 10.8328 3.87115 10.4529 4.27205C10.073 4.67295 9.4401 4.69 9.0392 4.31013L8 3.32545V8.86525C8 9.41753 7.55228 9.86525 7 9.86525C6.44772 9.86525 6 9.41753 6 8.86525V3.32495L4.96027 4.31013C4.55938 4.69 3.92644 4.67295 3.54657 4.27205C3.16671 3.87115 3.18375 3.23821 3.58465 2.85835L6.17436 0.404493ZM1 8.89899C1.55228 8.89899 2 9.3467 2 9.89899V11.5C2 11.7762 2.22386 12 2.5 12H11.5C11.7761 12 12 11.7762 12 11.5V9.89899C12 9.3467 12.4477 8.89899 13 8.89899C13.5523 8.89899 14 9.3467 14 9.89899V11.5C14 12.8807 12.8807 14 11.5 14H2.5C1.11929 14 0 12.8807 0 11.5V9.89899C0 9.3467 0.447715 8.89899 1 8.89899Z" fill="#107EFF"/>
</svg>
