<svg width="6" height="6" viewBox="0 0 6 6" fill="none" xmlns="http://www.w3.org/2000/svg">
<path fill-rule="evenodd" clip-rule="evenodd" d="M0.175736 0.175736C0.410051 -0.0585787 0.78995 -0.0585787 1.02426 0.175736L5.82426 4.97574C6.05858 5.21005 6.05858 5.58995 5.82426 5.82426C5.58995 6.05858 5.21005 6.05858 4.97574 5.82426L0.175736 1.02426C-0.0585787 0.78995 -0.0585787 0.410051 0.175736 0.175736Z" fill="white"/>
<path fill-rule="evenodd" clip-rule="evenodd" d="M5.82426 0.175736C5.58995 -0.0585787 5.21005 -0.0585787 4.97574 0.175736L0.175736 4.97574C-0.058579 5.21005 -0.058579 5.58995 0.175736 5.82426C0.41005 6.05858 0.789949 6.05858 1.02426 5.82426L5.82426 1.02426C6.05858 0.78995 6.05858 0.410051 5.82426 0.175736Z" fill="white"/>
</svg>
