<svg width="10" height="9" viewBox="0 0 10 9" fill="none" xmlns="http://www.w3.org/2000/svg">
<path fill-rule="evenodd" clip-rule="evenodd" d="M9.80952 6.74C9.80952 7.56843 9.13795 8.24 8.30952 8.24H1.5C0.671573 8.24 0 7.56843 0 6.74V2.61187C0 1.78345 0.671573 1.11187 1.5 1.11187H2.22355C2.47152 1.11187 2.71064 1.01974 2.89451 0.853367L3.55191 0.258506C3.73577 0.0921292 3.9749 0 4.22287 0H5.93861C6.17086 0 6.39586 0.0808362 6.57501 0.228635L7.36844 0.883237C7.54759 1.03104 7.77259 1.11187 8.00483 1.11187H8.30952C9.13795 1.11187 9.80952 1.78345 9.80952 2.61187V6.74ZM6.5137 4.31617C6.5137 5.16133 5.82856 5.84646 4.98341 5.84646C4.13826 5.84646 3.45312 5.16133 3.45312 4.31617C3.45312 3.47102 4.13826 2.78589 4.98341 2.78589C5.82856 2.78589 6.5137 3.47102 6.5137 4.31617Z" fill="white"/>
</svg>
