<svg width="16" height="7" viewBox="0 0 16 7" fill="none" xmlns="http://www.w3.org/2000/svg">
<path d="M2.42883 4.26276H1.66345V6.33331H0.249512V0.468079H2.55774C3.2533 0.468079 3.79712 0.622498 4.18921 0.931335C4.5813 1.24017 4.77734 1.67657 4.77734 2.24054C4.77734 2.64874 4.69409 2.98712 4.52759 3.25568C4.36377 3.52423 4.10596 3.74176 3.75415 3.90826L4.97876 6.27289V6.33331H3.46411L2.42883 4.26276ZM1.66345 3.17108H2.55774C2.82629 3.17108 3.02771 3.10126 3.16199 2.96161C3.29895 2.81927 3.36743 2.62189 3.36743 2.36945C3.36743 2.117 3.29895 1.91962 3.16199 1.77728C3.02502 1.63226 2.82361 1.55975 2.55774 1.55975H1.66345V3.17108Z" fill="white"/>
<path d="M8.96277 5.23761H7.02515L6.68677 6.33331H5.17615L7.32727 0.468079H8.65662L10.8239 6.33331H9.30518L8.96277 5.23761ZM7.36353 4.14594H8.62439L7.99194 2.11163L7.36353 4.14594Z" fill="white"/>
<path d="M13.4342 4.26276H12.6688V6.33331H11.2549V0.468079H13.5631C14.2587 0.468079 14.8025 0.622498 15.1946 0.931335C15.5867 1.24017 15.7827 1.67657 15.7827 2.24054C15.7827 2.64874 15.6995 2.98712 15.533 3.25568C15.3691 3.52423 15.1113 3.74176 14.7595 3.90826L15.9841 6.27289V6.33331H14.4695L13.4342 4.26276ZM12.6688 3.17108H13.5631C13.8317 3.17108 14.0331 3.10126 14.1674 2.96161C14.3043 2.81927 14.3728 2.62189 14.3728 2.36945C14.3728 2.117 14.3043 1.91962 14.1674 1.77728C14.0304 1.63226 13.829 1.55975 13.5631 1.55975H12.6688V3.17108Z" fill="white"/>
</svg>
