<svg xmlns="http://www.w3.org/2000/svg">

  <symbol id="edit" viewBox="0 0 21 20" fill="none"> 
    <rect x="14.2217" y="1.41421" width="6.32853" height="14.6571" rx="1" transform="rotate(45 14.2217 1.41421)"  stroke-width="2"/>
    <path d="M4.98401 14.0922L5.90646 15.0146L4.9048 15.1454L4.98401 14.0922Z"  stroke-width="2"/>
    <path d="M11.6045 3.78589L16.6523 8.83374"  stroke-width="2"/>
  </symbol>

  <symbol id="new-task" viewBox="0 0 14 14" fill="none">
    <circle cx="7" cy="7" r="7" fill="white"/>
    <path d="M7 4V10" stroke="#107EFF" stroke-width="2" stroke-linecap="round"/>
    <path d="M10 7L4 7" stroke="#107EFF" stroke-width="2" stroke-linecap="round"/>
  </symbol>

  <symbol id="confirm" viewBox="0 0 18 18" fill="none">
    <circle cx="9" cy="9" r="9" fill="white"/>
    <path d="M6.85254 9.12134L8.4054 10.6742" stroke="#43DD9C" stroke-width="2" stroke-linecap="round"/>
    <path d="M11.511 7.56848L8.40526 10.6742" stroke="#43DD9C" stroke-width="2" stroke-linecap="round"/>
  </symbol>

  <symbol id="back" viewBox="0 0 25 11" fill="none">
    <path d="M24 5.5H1.5" stroke-width="2" stroke-linecap="round"/>
    <path d="M5.5 10L1.35355 5.85355C1.15829 5.65829 1.15829 5.34171 1.35355 5.14645L5.5 1" stroke-width="2" stroke-linecap="round"/>
  </symbol>

  
  <symbol id="delete" viewBox="0 0 13 16" >
      <rect x="1.90039" y="1.79999" width="9.2" height="13.2" rx="1" stroke-width="2" fill="none"/>
      <rect y="0.799988" width="13" height="2.00079" rx="1.0004" />
      <path d="M5 5.10986V11.7483" stroke-width="2" stroke-linecap="round"/>
      <path d="M8.00098 5.10986V11.7483" stroke-width="2" stroke-linecap="round"/>
      <path d="M4.65622 0.134472C4.7488 0.0480592 4.87073 0 4.99737 0H8.09319C8.22579 0 8.35297 0.0526784 8.44674 0.146447L8.84674 0.546447C9.16172 0.861429 8.93864 1.4 8.49319 1.4H4.5688C4.11499 1.4 3.89588 0.844116 4.22764 0.534473L4.65622 0.134472Z" />
  </symbol>

  <symbol id="cross" viewBox="0 0 10 10">
    <path fill-rule="evenodd" clip-rule="evenodd" d="M0.292893 0.292893C0.683417 -0.0976311 1.31658 -0.0976311 1.70711 0.292893L9.70711 8.29289C10.0976 8.68342 10.0976 9.31658 9.70711 9.70711C9.31658 10.0976 8.68342 10.0976 8.29289 9.70711L0.292893 1.70711C-0.0976311 1.31658 -0.0976311 0.683417 0.292893 0.292893Z"/>
    <path fill-rule="evenodd" clip-rule="evenodd" d="M9.70711 0.292893C9.31658 -0.0976311 8.68342 -0.0976311 8.29289 0.292893L0.292893 8.29289C-0.0976315 8.68342 -0.0976315 9.31658 0.292893 9.70711C0.683417 10.0976 1.31658 10.0976 1.70711 9.70711L9.70711 1.70711C10.0976 1.31658 10.0976 0.683417 9.70711 0.292893Z"/>
  </symbol>

  <symbol id="play" viewBox="0 0 9 12">
    <path d="M8.39982 7.20298C9.20006 6.61339 9.20006 5.38661 8.39982 4.79702L2.26627 0.277974C1.31767 -0.420937 0 0.278508 0 1.48096V10.519C0 11.7215 1.31767 12.4209 2.26627 11.722L8.39982 7.20298Z" />
  </symbol>

  <symbol id="pause" viewBox="0 0 7 12">
    <path fill-rule="evenodd" clip-rule="evenodd" d="M1 0C0.447693 0 0 0.447716 0 1V11C0 11.5523 0.447693 12 1 12C1.55231 12 2 11.5523 2 11V1C2 0.447716 1.55231 0 1 0ZM6 0C5.44769 0 5 0.447716 5 1V11C5 11.5523 5.44769 12 6 12C6.55231 12 7 11.5523 7 11V1C7 0.447716 6.55231 0 6 0Z"/>
  </symbol>

  <symbol id="volume" viewBox="0 0 18 16">
    <path fill-rule="evenodd" clip-rule="evenodd" d="M8.47789 3.02688L4.46918 6.06617C3.94793 6.46136 3.31201 6.67523 2.65819 6.67523H2V8.34406H2.65819C3.31201 8.34406 3.94793 8.55793 4.46918 8.95312L8.47789 11.9924V3.02688ZM3.26185 4.46962C3.0881 4.60135 2.87613 4.67265 2.65819 4.67265H1C0.447715 4.67265 0 5.12094 0 5.67394V9.34535C0 9.89835 0.447716 10.3466 1 10.3466H2.65819C2.87613 10.3466 3.0881 10.4179 3.26185 10.5497L8.87423 14.8048C9.53288 15.3042 10.4779 14.8338 10.4779 14.0065V1.01276C10.4779 0.185537 9.53288 -0.284873 8.87423 0.214493L3.26185 4.46962Z"/>
    <path fill-rule="evenodd" clip-rule="evenodd" d="M13.9842 4.00198C14.1894 3.48857 14.7714 3.23892 15.2842 3.44438C16.8834 4.08519 17.9997 5.67139 17.9997 7.50963C17.9997 9.34786 16.8834 10.9341 15.2842 11.5749C14.7714 11.7803 14.1894 11.5307 13.9842 11.0173C13.779 10.5039 14.0283 9.92109 14.5411 9.71564C15.3851 9.37745 15.9997 8.52491 15.9997 7.50963C15.9997 6.49434 15.3851 5.6418 14.5411 5.30362C14.0283 5.09816 13.779 4.5154 13.9842 4.00198Z"/>
    <path fill-rule="evenodd" clip-rule="evenodd" d="M11.2778 5.65639C11.4564 5.13309 12.0248 4.85378 12.5474 5.03255C13.5683 5.38176 14.4167 6.30473 14.4167 7.50964C14.4167 8.71455 13.5683 9.63752 12.5474 9.98673C12.0248 10.1655 11.4564 9.88619 11.2778 9.36289C11.0993 8.83958 11.3782 8.27044 11.9009 8.09167C12.2761 7.96332 12.4167 7.69667 12.4167 7.50964C12.4167 7.32261 12.2761 7.05596 11.9009 6.92761C11.3782 6.74884 11.0993 6.1797 11.2778 5.65639Z"/>
  </symbol>

  
  <symbol id="volume-muted" viewBox="0 0 19 15">
    <path fill-rule="evenodd" clip-rule="evenodd" d="M8.47789 3.02298L4.46918 6.05834C3.94793 6.45303 3.31201 6.66662 2.65819 6.66662H2V8.33329H2.65819C3.31201 8.33329 3.94793 8.54688 4.46918 8.94156L8.47789 11.9769V3.02298ZM3.26185 4.46386C3.0881 4.59542 2.87613 4.66662 2.65819 4.66662H1C0.447715 4.66662 0 5.11433 0 5.66662V9.33329C0 9.88557 0.447716 10.3333 1 10.3333H2.65819C2.87613 10.3333 3.0881 10.4045 3.26185 10.536L8.87423 14.7857C9.53288 15.2844 10.4779 14.8146 10.4779 13.9884V1.01147C10.4779 0.185309 9.53288 -0.284492 8.87423 0.214228L3.26185 4.46386Z"/>
    <path fill-rule="evenodd" clip-rule="evenodd" d="M16.7929 4.29289C17.1834 3.90237 17.8166 3.90237 18.2071 4.29289C18.5976 4.68342 18.5976 5.31658 18.2071 5.70711L16.6642 7.25L18.2071 8.79289C18.5976 9.18342 18.5976 9.81658 18.2071 10.2071C17.8166 10.5976 17.1834 10.5976 16.7929 10.2071L15.25 8.66421L13.7071 10.2071C13.3166 10.5976 12.6834 10.5976 12.2929 10.2071C11.9024 9.81658 11.9024 9.18342 12.2929 8.79289L13.8358 7.25L12.2929 5.70711C11.9024 5.31658 11.9024 4.68342 12.2929 4.29289C12.6834 3.90237 13.3166 3.90237 13.7071 4.29289L15.25 5.83579L16.7929 4.29289Z"/>
  </symbol>

  
  <symbol id="fullscreen" viewBox="0 0 16 16">
    <path fill-rule="evenodd" clip-rule="evenodd" d="M0 2C0 0.89543 0.895431 0 2 0H4.5C5.05228 0 5.5 0.447715 5.5 1C5.5 1.55228 5.05228 2 4.5 2H2V4.5C2 5.05228 1.55228 5.5 1 5.5C0.447715 5.5 0 5.05228 0 4.5V2Z"/>
    <path fill-rule="evenodd" clip-rule="evenodd" d="M0 14C0 15.1046 0.895431 16 2 16H4.5C5.05228 16 5.5 15.5523 5.5 15C5.5 14.4477 5.05228 14 4.5 14H2V11.5C2 10.9477 1.55228 10.5 1 10.5C0.447715 10.5 0 10.9477 0 11.5V14Z"/>
    <path fill-rule="evenodd" clip-rule="evenodd" d="M16 2C16 0.89543 15.1046 0 14 0H11.5C10.9477 0 10.5 0.447715 10.5 1C10.5 1.55228 10.9477 2 11.5 2H14V4.5C14 5.05228 14.4477 5.5 15 5.5C15.5523 5.5 16 5.05228 16 4.5V2Z"/>
    <path fill-rule="evenodd" clip-rule="evenodd" d="M16 14C16 15.1046 15.1046 16 14 16H11.5C10.9477 16 10.5 15.5523 10.5 15C10.5 14.4477 10.9477 14 11.5 14H14V11.5C14 10.9477 14.4477 10.5 15 10.5C15.5523 10.5 16 10.9477 16 11.5V14Z"/>
  </symbol>


  <symbol id="collapse" viewBox="0 0 16 16">
    <path fill-rule="evenodd" clip-rule="evenodd" d="M5.5 3.5C5.5 4.60457 4.60457 5.5 3.5 5.5H1C0.447715 5.5 0 5.05228 0 4.5C0 3.94772 0.447715 3.5 1 3.5H3.5V1C3.5 0.447715 3.94772 0 4.5 0C5.05228 0 5.5 0.447715 5.5 1V3.5Z"/>
    <path fill-rule="evenodd" clip-rule="evenodd" d="M5.5 12.5C5.5 11.3954 4.60457 10.5 3.5 10.5H1C0.447715 10.5 0 10.9477 0 11.5C0 12.0523 0.447715 12.5 1 12.5H3.5V15C3.5 15.5523 3.94772 16 4.5 16C5.05228 16 5.5 15.5523 5.5 15V12.5Z"/>
    <path fill-rule="evenodd" clip-rule="evenodd" d="M10.5 3.5C10.5 4.60457 11.3954 5.5 12.5 5.5H15C15.5523 5.5 16 5.05228 16 4.5C16 3.94772 15.5523 3.5 15 3.5H12.5V1C12.5 0.447715 12.0523 0 11.5 0C10.9477 0 10.5 0.447715 10.5 1V3.5Z"/>
    <path fill-rule="evenodd" clip-rule="evenodd" d="M10.5 12.5C10.5 11.3954 11.3954 10.5 12.5 10.5H15C15.5523 10.5 16 10.9477 16 11.5C16 12.0523 15.5523 12.5 15 12.5H12.5V15C12.5 15.5523 12.0523 16 11.5 16C10.9477 16 10.5 15.5523 10.5 15V12.5Z"/>
  </symbol>

  <symbol id="login" viewBox="0 0 18 18" fill="none">
    <circle cx="9" cy="9" r="9" fill="white"/>
    <path fill-rule="evenodd" clip-rule="evenodd" d="M6.56876 3.51239C7.98205 3.51239 9.12775 4.65809 9.12775 6.07138V7.04987H12.237C12.7892 7.04987 13.237 7.49758 13.237 8.04987V13.2145C13.237 13.7668 12.7892 14.2145 12.237 14.2145H6.7879C6.23562 14.2145 5.7879 13.7668 5.7879 13.2145V8.04986C5.7879 7.49758 6.23562 7.04987 6.7879 7.04987H7.62775V6.07138C7.62775 5.48652 7.15362 5.01239 6.56876 5.01239C5.98389 5.01239 5.50977 5.48652 5.50977 6.07138C5.50977 6.48559 5.17398 6.82138 4.75977 6.82138C4.34555 6.82138 4.00977 6.48559 4.00977 6.07138C4.00977 4.65809 5.15547 3.51239 6.56876 3.51239ZM7.2879 8.54987V12.7145H11.737V8.54987H7.2879ZM10.4478 10.6323C10.4478 11.1479 10.0299 11.5658 9.51434 11.5658C8.9988 11.5658 8.58087 11.1479 8.58087 10.6323C8.58087 10.1168 8.9988 9.69885 9.51434 9.69885C10.0299 9.69885 10.4478 10.1168 10.4478 10.6323Z" fill="#107EFF"/>
  </symbol>

  <symbol id="home" viewBox="0 0 18 18" fill="none">
    <circle cx="9" cy="9" r="9" fill="white"/>
    <path fill-rule="evenodd" clip-rule="evenodd" d="M9.00122 5.46079L12.9497 7.87376V7.95405H5.05273V7.87376L9.00122 5.46079ZM3.55273 7.59334C3.55273 7.24497 3.73403 6.92171 4.03128 6.74006L8.47977 4.02154C8.79989 3.82591 9.20256 3.82591 9.52267 4.02153L13.9712 6.74006C14.2684 6.92171 14.4497 7.24497 14.4497 7.59334V8.45406C14.4497 9.00634 14.002 9.45405 13.4497 9.45405H13.2391V13.2971C13.2391 13.8494 12.7914 14.2971 12.2391 14.2971H5.76367C5.21139 14.2971 4.76367 13.8494 4.76367 13.2971V9.45405H4.55274C4.00045 9.45405 3.55273 9.00634 3.55273 8.45405V7.59334ZM6.26367 12.7971V9.45673H11.7391V12.7971H6.26367Z" fill="#107EFF"/>
  </symbol>

  <symbol id="download" viewBox="0 0 14 14" fill="none">
    <path d="M1 9.89899V11.5C1 12.3285 1.67157 13 2.5 13H11.5C12.3284 13 13 12.3285 13 11.5V9.89899" stroke="#107EFF" stroke-width="2" stroke-linecap="round"/>
    <path d="M4.27344 3.58423L6.86315 1.13038C6.94029 1.05728 7.06113 1.05728 7.13827 1.13038L9.72798 3.58423" stroke="#107EFF" stroke-width="2" stroke-linecap="round"/>
    <path d="M7 1.62949V8.86525" stroke="#107EFF" stroke-width="2" stroke-linecap="round"/>
  </symbol>

  <symbol id="save" viewBox="0 0 18 18" fill="none" >
    <circle cx="9" cy="9" r="9" fill="white"/>
    <path d="M6.85352 9.12137L8.40638 10.6742" stroke="#107EFF" stroke-width="2" stroke-linecap="round"/>
    <path d="M11.5117 7.56848L8.40599 10.6742" stroke="#107EFF" stroke-width="2" stroke-linecap="round"/>
  </symbol>

  <symbol id="attach" viewBox="0 0 18 18" fill="none" >
    <circle cx="9" cy="9" r="9" fill="#107EFF"/>
    <path fill-rule="evenodd" clip-rule="evenodd" d="M10.1148 3.50001C10.565 3.4987 11.0101 3.59327 11.424 3.77718C11.8379 3.96103 12.2114 4.23002 12.5241 4.56673C12.8367 4.90336 13.0827 5.30122 13.2495 5.73658C13.4163 6.1719 13.5012 6.6373 13.5 7.10631C13.4988 7.57532 13.4115 8.04023 13.2424 8.47461C13.0734 8.90891 12.8254 9.30527 12.5111 9.64004C12.511 9.64012 12.5112 9.63996 12.5111 9.64004L8.69727 13.7124C8.69704 13.7126 8.6968 13.7129 8.69657 13.7131C8.46726 13.9598 8.19308 14.1577 7.88861 14.2935C7.58372 14.4294 7.25549 14.5 6.92301 14.5C6.55269 14.5 6.24469 14.3808 5.98766 14.2661C5.67071 14.1248 5.35973 13.8782 5.14061 13.6422C5.04617 13.5406 4.95767 13.4415 4.87988 13.3234C4.79953 13.2014 4.74189 13.0768 4.68491 12.9286C4.56258 12.6107 4.5 12.271 4.5 11.9287C4.5 11.5865 4.56258 11.2468 4.68491 10.9288C4.80725 10.6108 4.98743 10.3196 5.21682 10.0726L5.21872 10.0706L8.62063 6.44873C8.62071 6.44864 8.62056 6.44881 8.62063 6.44873C8.91904 6.13038 9.33081 5.94443 9.76783 5.94546C9.93198 5.94584 10.117 5.95692 10.3039 6.03331C10.4954 6.11155 10.6386 6.2371 10.765 6.3731C10.8941 6.51209 11.0044 6.662 11.0687 6.85675C11.1288 7.03879 11.1342 7.22046 11.1346 7.38173C11.1354 7.81752 10.9763 8.2426 10.6818 8.56245L10.6785 8.56612L7.62837 11.8132C7.43931 12.0145 7.12288 12.0244 6.9216 11.8353C6.72033 11.6463 6.71043 11.3298 6.89949 11.1286L9.94761 7.88354C10.0641 7.75612 10.135 7.57707 10.1346 7.38376C10.1342 7.23007 10.1251 7.18842 10.1191 7.17018C10.1191 7.17002 10.1192 7.17038 10.1191 7.17018C10.117 7.16356 10.1078 7.13493 10.0323 7.05364C9.9921 7.01041 9.96569 6.98691 9.94862 6.97376C9.93377 6.96232 9.92719 6.95964 9.9257 6.95903C9.9213 6.95724 9.89322 6.94576 9.76547 6.94545C9.61755 6.94511 9.46745 7.0075 9.35037 7.13246L5.94863 10.7541C5.80866 10.9051 5.69583 11.0862 5.61822 11.2879C5.54043 11.4901 5.5 11.708 5.5 11.9287C5.5 12.1495 5.54043 12.3674 5.61822 12.5696C5.66129 12.6815 5.68891 12.7338 5.71502 12.7734C5.74369 12.8169 5.78286 12.8643 5.87331 12.9617C6.02396 13.1239 6.22878 13.2787 6.39497 13.3528C6.62108 13.4537 6.77039 13.5 6.92301 13.5C7.11348 13.5 7.30307 13.4597 7.48131 13.3802C7.65967 13.3006 7.82424 13.1829 7.96456 13.0318L7.96597 13.0303L11.7815 8.95622C12.006 8.71715 12.1867 8.43017 12.3106 8.11188C12.4345 7.79356 12.4991 7.45084 12.5 7.10374C12.5009 6.75663 12.438 6.41351 12.3157 6.0944C12.1935 5.77533 12.0147 5.48772 11.7913 5.24725C11.5681 5.00685 11.3049 4.8185 11.018 4.69105C10.7313 4.56365 10.4254 4.49911 10.1177 4.50001C9.80994 4.50091 9.50437 4.56724 9.21821 4.69634C8.93192 4.82549 8.66965 5.01542 8.44754 5.25718L8.4438 5.26125L5.81721 8.05748C5.62815 8.25875 5.31172 8.26866 5.11045 8.0796C4.90918 7.89054 4.89928 7.57411 5.08834 7.37283L7.71308 4.57853C8.02365 4.24104 8.39501 3.97066 8.80699 3.7848C9.21994 3.5985 9.6645 3.50133 10.1148 3.50001Z" fill="white"/>
  </symbol>
  
</svg>
