<svg width="12" height="12" viewBox="0 0 12 12" fill="none" xmlns="http://www.w3.org/2000/svg">
<path fill-rule="evenodd" clip-rule="evenodd" d="M6.00122 2.46079L9.94971 4.87376V4.95405H2.05273V4.87376L6.00122 2.46079ZM0.552734 4.59334C0.552734 4.24497 0.73403 3.92171 1.03128 3.74006L5.47977 1.02154C5.79989 0.825911 6.20256 0.825911 6.52267 1.02153L10.9712 3.74006C11.2684 3.92171 11.4497 4.24497 11.4497 4.59334V5.45406C11.4497 6.00634 11.002 6.45405 10.4497 6.45405H10.2391V10.2971C10.2391 10.8494 9.79139 11.2971 9.2391 11.2971H2.76367C2.21139 11.2971 1.76367 10.8494 1.76367 10.2971V6.45405H1.55274C1.00045 6.45405 0.552734 6.00634 0.552734 5.45405V4.59334ZM3.26367 9.79713V6.45673H8.7391V9.79713H3.26367Z" fill="#107EFF"/>
</svg>
