<svg width="0" height="0" class="hidden">
  <symbol xmlns="http://www.w3.org/2000/svg" viewBox="0 0 8 10" id="audio">
    <path d="M1.73869 2.92125C1.96577 2.92125 2.18608 2.84397 2.36339 2.70212L5.46478 0.221009C6.11954 -0.302802 7.08947 0.163371 7.08947 1.00188V8.84063C7.08947 9.67913 6.11954 10.1453 5.46478 9.6215L2.36339 7.14038C2.18608 6.99853 1.96577 6.92125 1.73869 6.92125H1.08911C0.536827 6.92125 0.0891113 6.47354 0.0891113 5.92125V3.92125C0.0891113 3.36897 0.536826 2.92125 1.08911 2.92125H1.73869Z"></path>
  </symbol>
  <symbol xmlns="http://www.w3.org/2000/svg" viewBox="0 0 10 10" id="close">
    <path fill-rule="evenodd" clip-rule="evenodd" d="M0.292893 0.292893C0.683417 -0.0976311 1.31658 -0.0976311 1.70711 0.292893L9.70711 8.29289C10.0976 8.68342 10.0976 9.31658 9.70711 9.70711C9.31658 10.0976 8.68342 10.0976 8.29289 9.70711L0.292893 1.70711C-0.0976311 1.31658 -0.0976311 0.683417 0.292893 0.292893Z"></path>
    <path fill-rule="evenodd" clip-rule="evenodd" d="M9.70711 0.292893C9.31658 -0.0976311 8.68342 -0.0976311 8.29289 0.292893L0.292893 8.29289C-0.0976315 8.68342 -0.0976315 9.31658 0.292893 9.70711C0.683417 10.0976 1.31658 10.0976 1.70711 9.70711L9.70711 1.70711C10.0976 1.31658 10.0976 0.683417 9.70711 0.292893Z"></path>
  </symbol>
  <symbol xmlns="http://www.w3.org/2000/svg" viewBox="0 0 11 9" id="photo">
    <path fill-rule="evenodd" clip-rule="evenodd" d="M10.0891 7.03512C10.0891 7.86355 9.41749 8.53512 8.58906 8.53512H1.77954C0.951114 8.53512 0.279541 7.86355 0.279541 7.03512V2.90699C0.279541 2.07857 0.951114 1.40699 1.77954 1.40699H2.50309C2.75106 1.40699 2.99018 1.31486 3.17405 1.14849L3.83145 0.553626C4.01531 0.387249 4.25444 0.29512 4.50241 0.29512H6.21815C6.4504 0.29512 6.6754 0.375956 6.85455 0.523755L7.64798 1.17836C7.82713 1.32616 8.05213 1.40699 8.28438 1.40699H8.58906C9.41749 1.40699 10.0891 2.07857 10.0891 2.90699V7.03512ZM6.79287 4.61131C6.79287 5.45646 6.10774 6.1416 5.26259 6.1416C4.41743 6.1416 3.7323 5.45646 3.7323 4.61131C3.7323 3.76616 4.41743 3.08102 5.26259 3.08102C6.10774 3.08102 6.79287 3.76616 6.79287 4.61131Z"></path>
  </symbol>
  <symbol xmlns="http://www.w3.org/2000/svg" viewBox="0 0 7 9" id="video">
    <path d="M5.86077 5.73498C6.41912 5.33616 6.41912 4.50633 5.86077 4.10751L1.58124 1.0507C0.91937 0.577937 0 1.05106 0 1.86443V7.97806C0 8.79143 0.91937 9.26455 1.58124 8.79179L5.86077 5.73498Z"></path>
  </symbol>
  <symbol  xmlns="http://www.w3.org/2000/svg" viewBox="0 0 20 20" id="edit">
    <path fill-rule="evenodd" clip-rule="evenodd" d="M16.862 5.73483L13.922 2.79483L12.8248 3.89204L15.7648 6.83204L16.862 5.73483ZM14.3284 8.26844L11.3884 5.32844L4.83169 11.8852L7.77169 14.8252L14.3284 8.26844ZM15.3584 1.35843C14.6082 0.608189 13.3569 0.6431 12.5636 1.4364L3.47327 10.5267C2.67996 11.32 2.64505 12.5713 3.39529 13.3216L3.56577 13.492L3.45181 14.5995L3.30511 16.0253C3.28578 16.2131 3.44318 16.3616 3.63025 16.3321L6.02748 15.9538L6.33529 16.2616C7.08553 17.0118 8.33682 16.9769 9.13012 16.1836L18.2204 7.09326C19.0138 6.29995 19.0487 5.04867 18.2984 4.29843L15.3584 1.35843Z"></path>
  </symbol>
  <symbol  xmlns="http://www.w3.org/2000/svg" viewBox="0 0 14 14" id="plus">
    <path fill-rule="evenodd" clip-rule="evenodd" d="M8.00014 1C8.00014 0.447716 7.55242 0 7.00014 0C6.44785 0 6.00014 0.447716 6.00014 1V5.65683H1.34326C0.790976 5.65683 0.343262 6.10455 0.343262 6.65683C0.343262 7.20912 0.790976 7.65683 1.34326 7.65683H6.00014V12.3137C6.00014 12.866 6.44785 13.3137 7.00014 13.3137C7.55242 13.3137 8.00014 12.866 8.00014 12.3137V7.65683H12.657C13.2093 7.65683 13.657 7.20912 13.657 6.65683C13.657 6.10455 13.2093 5.65683 12.657 5.65683H8.00014V1Z"></path>
  </symbol>
  <symbol xmlns="http://www.w3.org/2000/svg" viewBox="0 0 14 16" id="delete">
    <path fill-rule="evenodd" clip-rule="evenodd" d="M5.89735 0C5.77071 0 5.64878 0.0480592 5.55619 0.134472L5.12762 0.534473C5.04478 0.611788 4.99629 0.704455 4.97722 0.799988H3.80078H1.90079C1.34828 0.799988 0.900391 1.24788 0.900391 1.80038C0.900391 2.31914 1.29523 2.74567 1.80079 2.79585L1.80078 2.79999V14C1.80078 15.1046 2.69621 16 3.80078 16H11.0008C12.1054 16 13.0008 15.1046 13.0008 14V2.79999L13.0008 2.79577C13.506 2.74523 13.9004 2.31887 13.9004 1.80038C13.9004 1.24788 13.4525 0.799988 12.9 0.799988H11.0008H9.88462C9.86648 0.709643 9.82194 0.621669 9.74672 0.546447L9.34672 0.146447C9.25295 0.0526784 9.12577 0 8.99316 0H5.89735ZM11.0008 2.80078H3.80078L3.80078 14L11.0008 14L11.0008 2.80078ZM6.90039 5.10986C6.90039 4.55758 6.45268 4.10986 5.90039 4.10986C5.34811 4.10986 4.90039 4.55758 4.90039 5.10986V11.7483C4.90039 12.3005 5.34811 12.7483 5.90039 12.7483C6.45268 12.7483 6.90039 12.3005 6.90039 11.7483V5.10986ZM8.90137 4.10986C9.45365 4.10986 9.90137 4.55758 9.90137 5.10986V11.7483C9.90137 12.3005 9.45365 12.7483 8.90137 12.7483C8.34908 12.7483 7.90137 12.3005 7.90137 11.7483V5.10986C7.90137 4.55758 8.34908 4.10986 8.90137 4.10986Z"></path>
  </symbol>
  <symbol  xmlns="http://www.w3.org/2000/svg" viewBox="0 0 12 13" id="download">
    <path fill-rule="evenodd" clip-rule="evenodd" d="M1.33398 8.18141C1.88627 8.18141 2.33398 8.62913 2.33398 9.18141V10.2269C2.33398 10.503 2.55784 10.7269 2.83398 10.7269H9.16732C9.44346 10.7269 9.66732 10.503 9.66732 10.2269V9.18141C9.66732 8.62913 10.115 8.18141 10.6673 8.18141C11.2196 8.18141 11.6673 8.62913 11.6673 9.18141V10.2269C11.6673 11.6076 10.548 12.7269 9.16732 12.7269H2.83398C1.45327 12.7269 0.333984 11.6076 0.333984 10.2269V9.18141C0.333984 8.62913 0.7817 8.18141 1.33398 8.18141ZM5.15159 8.89867C5.62022 9.3673 6.38002 9.3673 6.84865 8.89867L8.82844 6.91888C9.21896 6.52835 9.21896 5.89519 8.82844 5.50466C8.43791 5.11414 7.80475 5.11414 7.41422 5.50466L7.00098 5.91791V1.87688C7.00098 1.32459 6.55326 0.876876 6.00098 0.876876C5.44869 0.876876 5.00098 1.32459 5.00098 1.87688V5.91963L4.58601 5.50466C4.19549 5.11414 3.56232 5.11414 3.1718 5.50466C2.78128 5.89519 2.78128 6.52835 3.1718 6.91888L5.15159 8.89867Z"></path>
  </symbol>
  <symbol fill="none" xmlns="http://www.w3.org/2000/svg" viewBox="0 0 14 14" id="new-task">
    <circle cx="7" cy="7" r="7" fill="white"></circle>
    <path d="M7 4V10" stroke="#107EFF" stroke-width="2" stroke-linecap="round"></path>
    <path d="M10 7L4 7" stroke="#107EFF" stroke-width="2" stroke-linecap="round"></path>
  </symbol>
  <symbol fill="none" xmlns="http://www.w3.org/2000/svg" viewBox="0 0 18 18" id="publish">
    <circle cx="9" cy="9" r="9" fill="white"></circle>
    <path d="M6.85254 9.12134L8.4054 10.6742" stroke="#43DD9C" stroke-width="2" stroke-linecap="round"></path>
    <path d="M11.511 7.56848L8.40526 10.6742" stroke="#43DD9C" stroke-width="2" stroke-linecap="round"></path>
  </symbol>
  <symbol xmlns="http://www.w3.org/2000/svg" viewBox="0 0 26 11" id="back">
    <path fill-rule="evenodd" clip-rule="evenodd" d="M6.25713 1.70711C6.65092 1.31658 6.65092 0.683417 6.25713 0.292893C5.86335 -0.0976311 5.2249 -0.0976311 4.83111 0.292893L0.65004 4.43934C0.0593631 5.02513 0.0593604 5.97487 0.65004 6.56066L4.83111 10.7071C5.2249 11.0976 5.86335 11.0976 6.25713 10.7071C6.65092 10.3166 6.65092 9.68342 6.25713 9.29289L3.44092 6.5H24.1987C24.7556 6.5 25.207 6.05228 25.207 5.5C25.207 4.94772 24.7556 4.5 24.1987 4.5H3.44092L6.25713 1.70711Z"></path>
  </symbol>
  <symbol  xmlns="http://www.w3.org/2000/svg" viewBox="0 0 16 16" id="fullscreen">
    <path fill-rule="evenodd" clip-rule="evenodd" d="M0 2C0 0.89543 0.895431 0 2 0H4.5C5.05228 0 5.5 0.447715 5.5 1C5.5 1.55228 5.05228 2 4.5 2H2V4.5C2 5.05228 1.55228 5.5 1 5.5C0.447715 5.5 0 5.05228 0 4.5V2Z" ></path>
    <path fill-rule="evenodd" clip-rule="evenodd" d="M0 14C0 15.1046 0.895431 16 2 16H4.5C5.05228 16 5.5 15.5523 5.5 15C5.5 14.4477 5.05228 14 4.5 14H2V11.5C2 10.9477 1.55228 10.5 1 10.5C0.447715 10.5 0 10.9477 0 11.5V14Z"></path>
    <path fill-rule="evenodd" clip-rule="evenodd" d="M16 2C16 0.89543 15.1046 0 14 0H11.5C10.9477 0 10.5 0.447715 10.5 1C10.5 1.55228 10.9477 2 11.5 2H14V4.5C14 5.05228 14.4477 5.5 15 5.5C15.5523 5.5 16 5.05228 16 4.5V2Z" ></path>
    <path fill-rule="evenodd" clip-rule="evenodd" d="M16 14C16 15.1046 15.1046 16 14 16H11.5C10.9477 16 10.5 15.5523 10.5 15C10.5 14.4477 10.9477 14 11.5 14H14V11.5C14 10.9477 14.4477 10.5 15 10.5C15.5523 10.5 16 10.9477 16 11.5V14Z" ></path>
  </symbol>
  <symbol  xmlns="http://www.w3.org/2000/svg" viewBox="0 0 9 12" id="play">
    <path opacity="0.8" d="M8.39982 7.20298C9.20006 6.61339 9.20006 5.38661 8.39982 4.79702L2.26627 0.277974C1.31767 -0.420937 0 0.278508 0 1.48096V10.519C0 11.7215 1.31767 12.4209 2.26627 11.722L8.39982 7.20298Z" ></path>
  </symbol>
  <symbol xmlns="http://www.w3.org/2000/svg" viewBox="0 0 18 16" id="volume">
    <path fill-rule="evenodd" clip-rule="evenodd" d="M8.47789 3.02688L4.46918 6.06617C3.94793 6.46136 3.31201 6.67523 2.65819 6.67523H2V8.34406H2.65819C3.31201 8.34406 3.94793 8.55793 4.46918 8.95312L8.47789 11.9924V3.02688ZM3.26185 4.46962C3.0881 4.60135 2.87613 4.67265 2.65819 4.67265H1C0.447715 4.67265 0 5.12094 0 5.67394V9.34535C0 9.89835 0.447716 10.3466 1 10.3466H2.65819C2.87613 10.3466 3.0881 10.4179 3.26185 10.5497L8.87423 14.8048C9.53288 15.3042 10.4779 14.8338 10.4779 14.0065V1.01276C10.4779 0.185537 9.53288 -0.284873 8.87423 0.214493L3.26185 4.46962Z" ></path>
    <path fill-rule="evenodd" clip-rule="evenodd" d="M13.9842 4.00198C14.1894 3.48857 14.7714 3.23892 15.2842 3.44438C16.8834 4.08519 17.9997 5.67139 17.9997 7.50963C17.9997 9.34786 16.8834 10.9341 15.2842 11.5749C14.7714 11.7803 14.1894 11.5307 13.9842 11.0173C13.779 10.5039 14.0283 9.92109 14.5411 9.71564C15.3851 9.37745 15.9997 8.52491 15.9997 7.50963C15.9997 6.49434 15.3851 5.6418 14.5411 5.30362C14.0283 5.09816 13.779 4.5154 13.9842 4.00198Z"></path>
    <path fill-rule="evenodd" clip-rule="evenodd" d="M11.2778 5.65639C11.4564 5.13309 12.0248 4.85378 12.5474 5.03255C13.5683 5.38176 14.4167 6.30473 14.4167 7.50964C14.4167 8.71455 13.5683 9.63752 12.5474 9.98673C12.0248 10.1655 11.4564 9.88619 11.2778 9.36289C11.0993 8.83958 11.3782 8.27044 11.9009 8.09167C12.2761 7.96332 12.4167 7.69667 12.4167 7.50964C12.4167 7.32261 12.2761 7.05596 11.9009 6.92761C11.3782 6.74884 11.0993 6.1797 11.2778 5.65639Z" ></path>
  </symbol>
    <symbol xmlns="http://www.w3.org/2000/svg" viewBox="0 0 7 12" id="stop">
    <path fill-rule="evenodd" clip-rule="evenodd" d="M1 0C0.447693 0 0 0.447716 0 1V11C0 11.5523 0.447693 12 1 12C1.55231 12 2 11.5523 2 11V1C2 0.447716 1.55231 0 1 0ZM6 0C5.44769 0 5 0.447716 5 1V11C5 11.5523 5.44769 12 6 12C6.55231 12 7 11.5523 7 11V1C7 0.447716 6.55231 0 6 0Z"></path>
  </symbol>
  <symbol xmlns="http://www.w3.org/2000/svg" viewBox="0 0 19 15" id="muted">
    <path fill-rule="evenodd" clip-rule="evenodd" d="M8.47789 3.02298L4.46918 6.05834C3.94793 6.45303 3.31201 6.66662 2.65819 6.66662H2V8.33329H2.65819C3.31201 8.33329 3.94793 8.54688 4.46918 8.94156L8.47789 11.9769V3.02298ZM3.26185 4.46386C3.0881 4.59542 2.87613 4.66662 2.65819 4.66662H1C0.447715 4.66662 0 5.11433 0 5.66662V9.33329C0 9.88557 0.447716 10.3333 1 10.3333H2.65819C2.87613 10.3333 3.0881 10.4045 3.26185 10.536L8.87423 14.7857C9.53288 15.2844 10.4779 14.8146 10.4779 13.9884V1.01147C10.4779 0.185309 9.53288 -0.284492 8.87423 0.214228L3.26185 4.46386Z"></path>
    <path fill-rule="evenodd" clip-rule="evenodd" d="M16.7929 4.29289C17.1834 3.90237 17.8166 3.90237 18.2071 4.29289C18.5976 4.68342 18.5976 5.31658 18.2071 5.70711L16.6642 7.25L18.2071 8.79289C18.5976 9.18342 18.5976 9.81658 18.2071 10.2071C17.8166 10.5976 17.1834 10.5976 16.7929 10.2071L15.25 8.66421L13.7071 10.2071C13.3166 10.5976 12.6834 10.5976 12.2929 10.2071C11.9024 9.81658 11.9024 9.18342 12.2929 8.79289L13.8358 7.25L12.2929 5.70711C11.9024 5.31658 11.9024 4.68342 12.2929 4.29289C12.6834 3.90237 13.3166 3.90237 13.7071 4.29289L15.25 5.83579L16.7929 4.29289Z"></path>
  </symbol>
  <symbol  xmlns="http://www.w3.org/2000/svg" viewBox="0 0 16 16" id="collapse">
    <path fill-rule="evenodd" clip-rule="evenodd" d="M5.5 3.5C5.5 4.60457 4.60457 5.5 3.5 5.5H1C0.447715 5.5 0 5.05228 0 4.5C0 3.94772 0.447715 3.5 1 3.5H3.5V1C3.5 0.447715 3.94772 0 4.5 0C5.05228 0 5.5 0.447715 5.5 1V3.5Z" ></path>
    <path fill-rule="evenodd" clip-rule="evenodd" d="M5.5 12.5C5.5 11.3954 4.60457 10.5 3.5 10.5H1C0.447715 10.5 0 10.9477 0 11.5C0 12.0523 0.447715 12.5 1 12.5H3.5V15C3.5 15.5523 3.94772 16 4.5 16C5.05228 16 5.5 15.5523 5.5 15V12.5Z" ></path>
    <path fill-rule="evenodd" clip-rule="evenodd" d="M10.5 3.5C10.5 4.60457 11.3954 5.5 12.5 5.5H15C15.5523 5.5 16 5.05228 16 4.5C16 3.94772 15.5523 3.5 15 3.5H12.5V1C12.5 0.447715 12.0523 0 11.5 0C10.9477 0 10.5 0.447715 10.5 1V3.5Z" ></path>
    <path fill-rule="evenodd" clip-rule="evenodd" d="M10.5 12.5C10.5 11.3954 11.3954 10.5 12.5 10.5H15C15.5523 10.5 16 10.9477 16 11.5C16 12.0523 15.5523 12.5 15 12.5H12.5V15C12.5 15.5523 12.0523 16 11.5 16C10.9477 16 10.5 15.5523 10.5 15V12.5Z"></path>
  </symbol>
  <symbol fill="none" xmlns="http://www.w3.org/2000/svg" viewBox="0 0 12 13" id="clip-blue">
    <path fill-rule="evenodd" clip-rule="evenodd" d="M8.40893 0.500011C8.8144 0.498923 9.21622 0.577089 9.59134 0.730152C9.96646 0.883219 10.3077 1.10824 10.5952 1.39256C10.8827 1.67689 11.1108 2.01492 11.2662 2.38736C11.4216 2.75981 11.5011 3.15917 11.5 3.56241C11.4989 3.96565 11.4171 4.36456 11.2597 4.73615C11.1024 5.10729 10.8727 5.4437 10.5841 5.72624C10.5837 5.72657 10.5834 5.7269 10.583 5.72723L4.40397 11.8376C4.19125 12.048 3.93902 12.2146 3.66183 12.3281C3.38465 12.4416 3.08775 12.5 2.78805 12.5C2.48836 12.5 2.19146 12.4416 1.91428 12.3281C1.63708 12.2146 1.38486 12.048 1.17214 11.8377C0.959417 11.6273 0.790371 11.3773 0.674934 11.1017C0.559492 10.8261 0.5 10.5305 0.5 10.2319C0.5 9.93324 0.559492 9.63766 0.674934 9.36206C0.790372 9.08648 0.959419 8.83645 1.17215 8.62609L6.51199 3.34576C6.79287 3.07043 7.17145 2.91731 7.56458 2.91817C7.95772 2.91902 8.33562 3.07378 8.6153 3.35034C8.89516 3.62708 9.05381 4.00337 9.05468 4.39719C9.05555 4.791 8.89857 5.16799 8.61992 5.44596L8.61836 5.44752L5.38717 8.64249C5.19081 8.83665 4.87424 8.83487 4.68008 8.63851C4.48592 8.44215 4.4877 8.12557 4.68406 7.93141L7.91368 4.73799C7.91391 4.73777 7.91346 4.73822 7.91368 4.73799C8.00449 4.64705 8.05496 4.52482 8.05468 4.3994C8.0544 4.27367 8.00382 4.15202 7.91217 4.0614C7.82033 3.97058 7.69468 3.91845 7.56242 3.91816C7.43047 3.91788 7.30486 3.96922 7.21267 4.05925C7.21245 4.05947 7.21289 4.05903 7.21267 4.05925L1.87528 9.33715C1.75593 9.45517 1.66156 9.59497 1.59728 9.74842C1.53301 9.90187 1.5 10.0661 1.5 10.2319C1.5 10.3976 1.53301 10.5619 1.59728 10.7153C1.66156 10.8688 1.75593 11.0086 1.87528 11.1266C1.99463 11.2446 2.13664 11.3385 2.29332 11.4027C2.45 11.4669 2.61813 11.5 2.78805 11.5C2.95798 11.5 3.12611 11.4669 3.28279 11.4027C3.43947 11.3385 3.58147 11.2446 3.70082 11.1266L9.88384 5.0123C10.0787 4.82169 10.2333 4.59519 10.3389 4.34595C10.4445 4.09671 10.4992 3.8295 10.5 3.55961C10.5007 3.28972 10.4476 3.02221 10.3433 2.77242C10.2391 2.5226 10.0858 2.29526 9.89201 2.1036C9.69819 1.91193 9.46766 1.75973 9.21354 1.65604C8.9594 1.55234 8.68685 1.49927 8.41161 1.50001C8.13637 1.50075 7.86412 1.55528 7.61056 1.66034C7.35702 1.76539 7.12734 1.91881 6.93458 2.11152L6.93264 2.11345L2.85849 6.14199C2.66213 6.33615 2.34556 6.33437 2.1514 6.13801C1.95724 5.94165 1.95902 5.62507 2.15538 5.43091L6.22758 1.4043C6.22791 1.40397 6.22824 1.40365 6.22857 1.40332C6.51431 1.11792 6.85393 0.891402 7.22778 0.736499C7.60206 0.581422 8.00345 0.501099 8.40893 0.500011Z" fill="#107EFF"></path>
  </symbol>
  <symbol fill="none" xmlns="http://www.w3.org/2000/svg" viewBox="0 0 14 14" id="upload">
    <path d="M1 9.89899V11.5C1 12.3285 1.67157 13 2.5 13H11.5C12.3284 13 13 12.3285 13 11.5V9.89899" stroke="#107EFF" stroke-width="2" stroke-linecap="round"></path>
    <path d="M4.27344 3.58423L6.86315 1.13038C6.94029 1.05728 7.06113 1.05728 7.13827 1.13038L9.72798 3.58423" stroke="#107EFF" stroke-width="2" stroke-linecap="round"></path>
    <path d="M7 1.62949V8.86525" stroke="#107EFF" stroke-width="2" stroke-linecap="round"></path>
  </symbol>
  <symbol fill="none" xmlns="http://www.w3.org/2000/svg" viewBox="0 0 18 18" id="home">
    <circle cx="9" cy="9" r="9" fill="white"></circle>
    <path fill-rule="evenodd" clip-rule="evenodd" d="M9.00122 5.46079L12.9497 7.87376V7.95405H5.05273V7.87376L9.00122 5.46079ZM3.55273 7.59334C3.55273 7.24497 3.73403 6.92171 4.03128 6.74006L8.47977 4.02154C8.79989 3.82591 9.20256 3.82591 9.52267 4.02153L13.9712 6.74006C14.2684 6.92171 14.4497 7.24497 14.4497 7.59334V8.45406C14.4497 9.00634 14.002 9.45405 13.4497 9.45405H13.2391V13.2971C13.2391 13.8494 12.7914 14.2971 12.2391 14.2971H5.76367C5.21139 14.2971 4.76367 13.8494 4.76367 13.2971V9.45405H4.55274C4.00045 9.45405 3.55273 9.00634 3.55273 8.45405V7.59334ZM6.26367 12.7971V9.45673H11.7391V12.7971H6.26367Z" fill="#107EFF"></path>
  </symbol>
  <symbol fill="none" xmlns="http://www.w3.org/2000/svg" viewBox="0 0 18 18" id="lock">
    <circle cx="9" cy="9" r="9" fill="white"></circle>
    <path fill-rule="evenodd" clip-rule="evenodd" d="M6.56876 3.51239C7.98205 3.51239 9.12775 4.65809 9.12775 6.07138V7.04987H12.237C12.7892 7.04987 13.237 7.49758 13.237 8.04987V13.2145C13.237 13.7668 12.7892 14.2145 12.237 14.2145H6.7879C6.23562 14.2145 5.7879 13.7668 5.7879 13.2145V8.04986C5.7879 7.49758 6.23562 7.04987 6.7879 7.04987H7.62775V6.07138C7.62775 5.48652 7.15362 5.01239 6.56876 5.01239C5.98389 5.01239 5.50977 5.48652 5.50977 6.07138C5.50977 6.48559 5.17398 6.82138 4.75977 6.82138C4.34555 6.82138 4.00977 6.48559 4.00977 6.07138C4.00977 4.65809 5.15547 3.51239 6.56876 3.51239ZM7.2879 8.54987V12.7145H11.737V8.54987H7.2879ZM10.4478 10.6323C10.4478 11.1479 10.0299 11.5658 9.51434 11.5658C8.9988 11.5658 8.58087 11.1479 8.58087 10.6323C8.58087 10.1168 8.9988 9.69885 9.51434 9.69885C10.0299 9.69885 10.4478 10.1168 10.4478 10.6323Z" fill="#107EFF"></path>
  </symbol>
  <symbol fill="none" xmlns="http://www.w3.org/2000/svg" viewBox="0 0 18 18" id="clip">
    <circle cx="9" cy="9" r="9" fill="#107EFF"></circle>
    <path fill-rule="evenodd" clip-rule="evenodd" d="M10.1148 3.50001C10.565 3.4987 11.0101 3.59327 11.424 3.77718C11.8379 3.96103 12.2114 4.23002 12.5241 4.56673C12.8367 4.90336 13.0827 5.30122 13.2495 5.73658C13.4163 6.1719 13.5012 6.6373 13.5 7.10631C13.4988 7.57532 13.4115 8.04023 13.2424 8.47461C13.0734 8.90891 12.8254 9.30527 12.5111 9.64004C12.511 9.64012 12.5112 9.63996 12.5111 9.64004L8.69727 13.7124C8.69704 13.7126 8.6968 13.7129 8.69657 13.7131C8.46726 13.9598 8.19308 14.1577 7.88861 14.2935C7.58372 14.4294 7.25549 14.5 6.92301 14.5C6.55269 14.5 6.24469 14.3808 5.98766 14.2661C5.67071 14.1248 5.35973 13.8782 5.14061 13.6422C5.04617 13.5406 4.95767 13.4415 4.87988 13.3234C4.79953 13.2014 4.74189 13.0768 4.68491 12.9286C4.56258 12.6107 4.5 12.271 4.5 11.9287C4.5 11.5865 4.56258 11.2468 4.68491 10.9288C4.80725 10.6108 4.98743 10.3196 5.21682 10.0726L5.21872 10.0706L8.62063 6.44873C8.62071 6.44864 8.62056 6.44881 8.62063 6.44873C8.91904 6.13038 9.33081 5.94443 9.76783 5.94546C9.93198 5.94584 10.117 5.95692 10.3039 6.03331C10.4954 6.11155 10.6386 6.2371 10.765 6.3731C10.8941 6.51209 11.0044 6.662 11.0687 6.85675C11.1288 7.03879 11.1342 7.22046 11.1346 7.38173C11.1354 7.81752 10.9763 8.2426 10.6818 8.56245L10.6785 8.56612L7.62837 11.8132C7.43931 12.0145 7.12288 12.0244 6.9216 11.8353C6.72033 11.6463 6.71043 11.3298 6.89949 11.1286L9.94761 7.88354C10.0641 7.75612 10.135 7.57707 10.1346 7.38376C10.1342 7.23007 10.1251 7.18842 10.1191 7.17018C10.1191 7.17002 10.1192 7.17038 10.1191 7.17018C10.117 7.16356 10.1078 7.13493 10.0323 7.05364C9.9921 7.01041 9.96569 6.98691 9.94862 6.97376C9.93377 6.96232 9.92719 6.95964 9.9257 6.95903C9.9213 6.95724 9.89322 6.94576 9.76547 6.94545C9.61755 6.94511 9.46745 7.0075 9.35037 7.13246L5.94863 10.7541C5.80866 10.9051 5.69583 11.0862 5.61822 11.2879C5.54043 11.4901 5.5 11.708 5.5 11.9287C5.5 12.1495 5.54043 12.3674 5.61822 12.5696C5.66129 12.6815 5.68891 12.7338 5.71502 12.7734C5.74369 12.8169 5.78286 12.8643 5.87331 12.9617C6.02396 13.1239 6.22878 13.2787 6.39497 13.3528C6.62108 13.4537 6.77039 13.5 6.92301 13.5C7.11348 13.5 7.30307 13.4597 7.48131 13.3802C7.65967 13.3006 7.82424 13.1829 7.96456 13.0318L7.96597 13.0303L11.7815 8.95622C12.006 8.71715 12.1867 8.43017 12.3106 8.11188C12.4345 7.79356 12.4991 7.45084 12.5 7.10374C12.5009 6.75663 12.438 6.41351 12.3157 6.0944C12.1935 5.77533 12.0147 5.48772 11.7913 5.24725C11.5681 5.00685 11.3049 4.8185 11.018 4.69105C10.7313 4.56365 10.4254 4.49911 10.1177 4.50001C9.80994 4.50091 9.50437 4.56724 9.21821 4.69634C8.93192 4.82549 8.66965 5.01542 8.44754 5.25718L8.4438 5.26125L5.81721 8.05748C5.62815 8.25875 5.31172 8.26866 5.11045 8.0796C4.90918 7.89054 4.89928 7.57411 5.08834 7.37283L7.71308 4.57853C8.02365 4.24104 8.39501 3.97066 8.80699 3.7848C9.21994 3.5985 9.6645 3.50133 10.1148 3.50001Z" fill="white"></path>
  </symbol>
  <symbol fill="none" xmlns="http://www.w3.org/2000/svg" viewBox="0 0 18 18" id="done">
    <circle cx="9" cy="9" r="9" fill="white"></circle>
    <path d="M6.85254 9.12134L8.4054 10.6742" stroke="#107EFF" stroke-width="2" stroke-linecap="round"></path>
    <path d="M11.5107 7.56848L8.40502 10.6742" stroke="#107EFF" stroke-width="2" stroke-linecap="round"></path>
  </symbol>
  <symbol fill="none" xmlns="http://www.w3.org/2000/svg" viewBox="0 0 15 14" id="calendar">
    <path fill-rule="evenodd" clip-rule="evenodd" d="M13.75 1.27273H1.25L1.25 12.7273H13.75V1.27273ZM1.25 0C0.559644 0 0 0.569819 0 1.27273V12.7273C0 13.4302 0.559644 14 1.25 14H13.75C14.4404 14 15 13.4302 15 12.7273V1.27273C15 0.569819 14.4404 0 13.75 0H1.25Z" fill="currentColor"></path>
    <path d="M2.5 3.18182C1.75 3.18182 1.35417 4.0303 1.25 4.45455H0L0.625 0.636364H14.375L15 4.45455H13.75C13.75 3.69091 13.125 3.18182 12.5 3.18182H2.5Z" fill="currentColor"></path>
    <path d="M5.625 6.36364C5.625 7.06654 5.06536 7.63636 4.375 7.63636C3.68464 7.63636 3.125 7.06654 3.125 6.36364C3.125 5.66073 3.68464 5.09091 4.375 5.09091C5.06536 5.09091 5.625 5.66073 5.625 6.36364Z" fill="currentColor"></path>
    <path d="M8.125 6.36364C8.125 6.71509 7.84518 7 7.5 7C7.15482 7 6.875 6.71509 6.875 6.36364C6.875 6.01218 7.15482 5.72727 7.5 5.72727C7.84518 5.72727 8.125 6.01218 8.125 6.36364Z" fill="currentColor"></path>
    <path d="M11.25 6.36364C11.25 6.71509 10.9702 7 10.625 7C10.2798 7 10 6.71509 10 6.36364C10 6.01218 10.2798 5.72727 10.625 5.72727C10.9702 5.72727 11.25 6.01218 11.25 6.36364Z" fill="currentColor"></path>
    <path d="M8.125 9.54545C8.125 9.89691 7.84518 10.1818 7.5 10.1818C7.15482 10.1818 6.875 9.89691 6.875 9.54545C6.875 9.194 7.15482 8.90909 7.5 8.90909C7.84518 8.90909 8.125 9.194 8.125 9.54545Z" fill="currentColor"></path>
    <path d="M5 9.54545C5 9.89691 4.72018 10.1818 4.375 10.1818C4.02982 10.1818 3.75 9.89691 3.75 9.54545C3.75 9.194 4.02982 8.90909 4.375 8.90909C4.72018 8.90909 5 9.194 5 9.54545Z" fill="currentColor"></path>
    <path d="M11.25 9.54545C11.25 9.89691 10.9702 10.1818 10.625 10.1818C10.2798 10.1818 10 9.89691 10 9.54545C10 9.194 10.2798 8.90909 10.625 8.90909C10.9702 8.90909 11.25 9.194 11.25 9.54545Z" fill="currentColor"></path>
  </symbol>
  <symbol fill="none" xmlns="http://www.w3.org/2000/svg" viewBox="0 0 14 14" id="delete-round">
    <circle cx="7" cy="7" r="7" fill="#107CFA"></circle>
    <path fill-rule="evenodd" clip-rule="evenodd" d="M4.17574 4.17574C4.41005 3.94142 4.78995 3.94142 5.02426 4.17574L9.82426 8.97574C10.0586 9.21005 10.0586 9.58995 9.82426 9.82426C9.58995 10.0586 9.21005 10.0586 8.97574 9.82426L4.17574 5.02426C3.94142 4.78995 3.94142 4.41005 4.17574 4.17574Z" fill="white"></path>
    <path fill-rule="evenodd" clip-rule="evenodd" d="M9.82426 4.17574C9.58995 3.94142 9.21005 3.94142 8.97574 4.17574L4.17574 8.97574C3.94142 9.21005 3.94142 9.58995 4.17574 9.82426C4.41005 10.0586 4.78995 10.0586 5.02426 9.82426L9.82426 5.02426C10.0586 4.78995 10.0586 4.41005 9.82426 4.17574Z" fill="white"></path>
  </symbol>
  <symbol fill="none" xmlns="http://www.w3.org/2000/svg" viewBox="0 0 6 4" id="message">
    <path d="M3.64876 3.72548L5.72943 1.59999C6.30742 1.00955 5.89807 0 5.08067 0H0.919327C0.101932 0 -0.30742 1.00956 0.270566 1.59999L2.35124 3.72549C2.70954 4.09151 3.29046 4.0915 3.64876 3.72548Z" fill="#107EFF"></path>
  </symbol>
  <symbol fill="none" xmlns="http://www.w3.org/2000/svg" viewBox="0 0 13 14" id="search">
    <circle cx="5.78561" cy="5.78561" r="4.78561" fill="#E8F3FF" stroke="#107EFF" stroke-width="2"></circle>
    <path d="M9 10L12 13" stroke="#107EFF" stroke-width="2" stroke-linecap="round"></path>
  </symbol>
  <symbol fill="none" xmlns="http://www.w3.org/2000/svg" viewBox="0 0 6 11" id="btn-next">
    <path fill-rule="evenodd" clip-rule="evenodd" d="M0.279261 0.292893C-0.0930867 0.683417 -0.0930867 1.31658 0.279261 1.70711L3.89562 5.5L0.279261 9.29289C-0.0930867 9.68342 -0.0930867 10.3166 0.279261 10.7071C0.651609 11.0976 1.2553 11.0976 1.62765 10.7071L5.58111 6.56066C6.13963 5.97487 6.13963 5.02513 5.58111 4.43934L1.62765 0.292893C1.2553 -0.0976311 0.651609 -0.0976311 0.279261 0.292893Z" fill="#107EFF"></path>
  </symbol>
  <symbol fill="none" xmlns="http://www.w3.org/2000/svg" viewBox="0 0 6 11" id="btn-prev">
    <path fill-rule="evenodd" clip-rule="evenodd" d="M5.72074 0.292893C6.09309 0.683417 6.09309 1.31658 5.72074 1.70711L2.10438 5.5L5.72074 9.29289C6.09309 9.68342 6.09309 10.3166 5.72074 10.7071C5.34839 11.0976 4.7447 11.0976 4.37235 10.7071L0.418891 6.56066C-0.139632 5.97487 -0.139629 5.02513 0.418892 4.43934L4.37235 0.292893C4.7447 -0.0976311 5.34839 -0.0976311 5.72074 0.292893Z" fill="#107EFF"></path>
  </symbol>
  <symbol fill="none" xmlns="http://www.w3.org/2000/svg" viewBox="0 0 22 22" id="doc">
    <path d="M18.4167 21.0833H5.58333C5.07707 21.0833 4.66667 20.6729 4.66667 20.1667V1.83333C4.66667 1.32707 5.07707 0.916667 5.58333 0.916667H14.603C14.8275 0.916667 15.0442 0.999056 15.212 1.14821L15.8085 0.477065L15.212 1.14821L19.0257 4.53816C19.2214 4.71212 19.3333 4.96145 19.3333 5.22329V20.1667C19.3333 20.6729 18.9229 21.0833 18.4167 21.0833Z" stroke="#96AECD" stroke-width="1.83333"></path>
    <rect y="6.41669" width="22" height="11.9167" rx="1.83333" fill="#96AECD"></rect>
    <path d="M3.22131 15.3333V9.46808H5.1106C5.62891 9.46808 6.09485 9.58624 6.50842 9.82257C6.922 10.0562 7.24426 10.3879 7.47522 10.8176C7.70886 11.2446 7.82703 11.7239 7.82971 12.2557V12.5256C7.82971 13.0627 7.71558 13.5447 7.4873 13.9717C7.26172 14.3961 6.94214 14.7291 6.52856 14.9708C6.11768 15.2098 5.65845 15.3306 5.15088 15.3333H3.22131ZM4.63525 10.5598V14.2457H5.12671C5.53223 14.2457 5.84375 14.102 6.06128 13.8146C6.27881 13.5246 6.38757 13.0949 6.38757 12.5256V12.2718C6.38757 11.7051 6.27881 11.2781 6.06128 10.9908C5.84375 10.7034 5.52686 10.5598 5.1106 10.5598H4.63525ZM13.5217 12.5215C13.5217 13.0936 13.4156 13.5998 13.2035 14.0402C12.9913 14.4807 12.6892 14.8204 12.2971 15.0594C11.9077 15.2957 11.4633 15.4139 10.9637 15.4139C10.4642 15.4139 10.0211 15.2997 9.6344 15.0715C9.24768 14.8405 8.94556 14.5115 8.72803 14.0845C8.51318 13.6575 8.40039 13.1674 8.38965 12.6142V12.2839C8.38965 11.7092 8.49438 11.2029 8.70386 10.7652C8.91602 10.3248 9.21814 9.98505 9.61023 9.74603C10.005 9.50702 10.4535 9.38751 10.9557 9.38751C11.4525 9.38751 11.8956 9.50568 12.285 9.742C12.6744 9.97833 12.9766 10.3154 13.1914 10.7531C13.4089 11.1882 13.519 11.6877 13.5217 12.2516V12.5215ZM12.0836 12.2758C12.0836 11.6931 11.9856 11.2513 11.7896 10.9505C11.5962 10.647 11.3182 10.4953 10.9557 10.4953C10.2467 10.4953 9.87207 11.027 9.83179 12.0905L9.82776 12.5215C9.82776 13.0963 9.9231 13.538 10.1138 13.8469C10.3044 14.1557 10.5878 14.3101 10.9637 14.3101C11.3209 14.3101 11.5962 14.1584 11.7896 13.8549C11.9829 13.5515 12.0809 13.1151 12.0836 12.5457V12.2758ZM18.9962 13.3474C18.9774 13.7556 18.8673 14.1168 18.6659 14.431C18.4645 14.7425 18.1812 14.9842 17.8159 15.1561C17.4534 15.3279 17.0385 15.4139 16.5712 15.4139C15.8004 15.4139 15.1935 15.1628 14.7504 14.6606C14.3073 14.1584 14.0857 13.4494 14.0857 12.5336V12.2436C14.0857 11.6689 14.1851 11.1667 14.3838 10.737C14.5852 10.3046 14.8739 9.97162 15.2499 9.73798C15.6259 9.50165 16.0609 9.38348 16.5551 9.38348C17.2667 9.38348 17.8387 9.57147 18.2711 9.94745C18.7035 10.3207 18.9492 10.8364 19.0083 11.4943H17.5984C17.5876 11.1371 17.4977 10.8807 17.3285 10.7249C17.1593 10.5692 16.9015 10.4913 16.5551 10.4913C16.2032 10.4913 15.9454 10.6229 15.7816 10.886C15.6178 11.1492 15.5319 11.5695 15.5238 12.1469V12.5618C15.5238 13.1876 15.6017 13.6347 15.7574 13.9033C15.9159 14.1718 16.1871 14.3061 16.5712 14.3061C16.8961 14.3061 17.1445 14.2296 17.3164 14.0765C17.4883 13.9234 17.5796 13.6804 17.5903 13.3474H18.9962Z" fill="white"></path>
  </symbol>
  <symbol fill="none" xmlns="http://www.w3.org/2000/svg" viewBox="0 0 30 16" id="flv">
    <rect width="30" height="16" rx="2.30769" fill="#96AECD"></rect>
    <path d="M11.1211 8.60156H7.80469V12H5.74805V3.46875H11.4551V5.05664H7.80469V7.01953H11.1211V8.60156ZM14.3672 10.418H17.9473V12H12.3105V3.46875H14.3672V10.418ZM20.918 9.67969L22.6172 3.46875H24.9141L22.043 12H19.793L16.9453 3.46875H19.2246L20.918 9.67969Z" fill="white"></path>
  </symbol>
  <symbol fill="none" xmlns="http://www.w3.org/2000/svg" viewBox="0 0 22 22" id="mov">
    <path d="M17.4167 21.0833H4.58333C4.07707 21.0833 3.66667 20.6729 3.66667 20.1667V1.83333C3.66667 1.32707 4.07707 0.916667 4.58333 0.916667H13.603C13.8275 0.916667 14.0442 0.999056 14.212 1.14821L14.8085 0.477065L14.212 1.14821L18.0257 4.53816C18.2214 4.71212 18.3333 4.96145 18.3333 5.22329V20.1667C18.3333 20.6729 17.9229 21.0833 17.4167 21.0833Z" stroke="#96AECD" stroke-width="1.83333"></path>
    <rect y="6.41666" width="22" height="11.9167" rx="1.83333" fill="#96AECD"></rect>
    <path d="M6.61328 14.001H9.41699V15.0886H4.84888V14.3434L7.64453 10.3151H4.83276V9.22339H9.38879V9.94849L6.61328 14.001ZM11.5681 15.0886H10.1582V9.22339H11.5681V15.0886ZM13.965 13.0986V15.0886H12.551V9.22339H14.8915C15.34 9.22339 15.7361 9.30664 16.0798 9.47314C16.4263 9.63696 16.6935 9.87195 16.8815 10.1781C17.0721 10.4816 17.1675 10.8267 17.1675 11.2134C17.1675 11.7854 16.962 12.2433 16.5511 12.587C16.1429 12.9281 15.5817 13.0986 14.8673 13.0986H13.965ZM13.965 12.007H14.8915C15.1654 12.007 15.3735 11.9385 15.5159 11.8015C15.6609 11.6646 15.7334 11.4712 15.7334 11.2214C15.7334 10.9475 15.6595 10.7286 15.5118 10.5648C15.3641 10.401 15.1627 10.3177 14.9076 10.3151H13.965V12.007Z" fill="white"></path>
  </symbol>
  <symbol fill="none" xmlns="http://www.w3.org/2000/svg" viewBox="0 0 37 16" id="zip">
    <rect width="37" height="16" rx="2.30769" fill="#96AECD"></rect>
    <path d="M8.53906 3.46875L10.4434 9.4043L12.3418 3.46875H15.0488V12H12.9863V10.0078L13.1855 5.92969L11.123 12H9.76367L7.69531 5.92383L7.89453 10.0078V12H5.83789V3.46875H8.53906ZM23.5859 7.91016C23.5859 8.74219 23.4316 9.47852 23.123 10.1191C22.8145 10.7598 22.375 11.2539 21.8047 11.6016C21.2383 11.9453 20.5918 12.1172 19.8652 12.1172C19.1387 12.1172 18.4941 11.9512 17.9316 11.6191C17.3691 11.2832 16.9297 10.8047 16.6133 10.1836C16.3008 9.5625 16.1367 8.84961 16.1211 8.04492V7.56445C16.1211 6.72852 16.2734 5.99219 16.5781 5.35547C16.8867 4.71484 17.3262 4.2207 17.8965 3.87305C18.4707 3.52539 19.123 3.35156 19.8535 3.35156C20.5762 3.35156 21.2207 3.52344 21.7871 3.86719C22.3535 4.21094 22.793 4.70117 23.1055 5.33789C23.4219 5.9707 23.582 6.69727 23.5859 7.51758V7.91016ZM21.4941 7.55273C21.4941 6.70508 21.3516 6.0625 21.0664 5.625C20.7852 5.18359 20.3809 4.96289 19.8535 4.96289C18.8223 4.96289 18.2773 5.73633 18.2188 7.2832L18.2129 7.91016C18.2129 8.74609 18.3516 9.38867 18.6289 9.83789C18.9062 10.2871 19.3184 10.5117 19.8652 10.5117C20.3848 10.5117 20.7852 10.291 21.0664 9.84961C21.3477 9.4082 21.4902 8.77344 21.4941 7.94531V7.55273ZM27.8281 9.67969L29.5273 3.46875H31.8242L28.9531 12H26.7031L23.8555 3.46875H26.1348L27.8281 9.67969Z" fill="white"></path>
  </symbol>
  <symbol fill="none" xmlns="http://www.w3.org/2000/svg" viewBox="0 0 30 16" id="avi">
    <rect width="30" height="16" rx="2.30769" fill="#96AECD"></rect>
    <path d="M10.8516 10.4062H8.0332L7.54102 12H5.34375L8.47266 3.46875H10.4062L13.5586 12H11.3496L10.8516 10.4062ZM8.52539 8.81836H10.3594L9.43945 5.85938L8.52539 8.81836ZM17.0391 9.67969L18.7383 3.46875H21.0352L18.1641 12H15.9141L13.0664 3.46875H15.3457L17.0391 9.67969ZM23.8535 12H21.8027V3.46875H23.8535V12Z" fill="white"></path>
  </symbol>
  <symbol fill="none" xmlns="http://www.w3.org/2000/svg" viewBox="0 0 21 25" id="bell">
    <path fill-rule="evenodd" clip-rule="evenodd" d="M10.0001 24.9345C8.13176 24.9345 6.6001 23.4188 6.6001 21.5359H8.6001C8.6001 22.2933 9.22117 22.9241 10.0001 22.9241C10.7792 22.9241 11.4001 22.2934 11.4001 21.5359H13.4001C13.4001 23.4188 11.8687 24.9345 10.0001 24.9345Z" fill="#107EFF"></path>
    <path d="M18.2656 22.1342H1.76556C0.800598 22.1342 0.015625 21.3514 0.015625 20.3891C0.015625 19.8783 0.238648 19.3948 0.627564 19.0627C2.14862 17.7811 3.01562 15.9184 3.01562 13.9448V11.1643C3.01562 7.31505 6.1557 4.18359 10.0156 4.18359C13.8756 4.18359 17.0157 7.31505 17.0157 11.1643V13.9448C17.0157 15.9184 17.8827 17.7811 19.3937 19.0557C19.7927 19.3948 20.0157 19.8783 20.0157 20.3891C20.0157 21.3514 19.2307 22.1342 18.2656 22.1342Z" fill="#E8F3FF"></path>
    <path fill-rule="evenodd" clip-rule="evenodd" d="M19.3937 19.0557C17.8827 17.7811 17.0157 15.9184 17.0157 13.9448V11.1643C17.0157 7.31505 13.8756 4.18359 10.0156 4.18359C6.1557 4.18359 3.01562 7.31505 3.01562 11.1643V13.9448C3.01562 15.9184 2.14862 17.7811 0.627564 19.0627C0.238648 19.3948 0.015625 19.8783 0.015625 20.3891C0.015625 21.3514 0.800598 22.1342 1.76556 22.1342H18.2656C19.2307 22.1342 20.0157 21.3514 20.0157 20.3891C20.0157 19.8783 19.7927 19.3948 19.3937 19.0557ZM17.5918 20.1238C15.9498 18.4973 15.0157 16.2814 15.0157 13.9448V11.1643C15.0157 8.44051 12.7861 6.19406 10.0156 6.19406C7.24522 6.19406 5.01562 8.44048 5.01562 11.1643V13.9448C5.01562 16.2802 4.08267 18.4934 2.43725 20.1238H17.5918Z" fill="#107EFF"></path>
    <path fill-rule="evenodd" clip-rule="evenodd" d="M10 0.934525C10.5523 0.934525 11 1.38458 11 1.93976V4.93153C11 5.48671 10.5523 5.93677 10 5.93677C9.44772 5.93677 9 5.48671 9 4.93153V1.93976C9 1.38458 9.44772 0.934525 10 0.934525Z" fill="#107EFF"></path>
  </symbol>
  <symbol fill="none" xmlns="http://www.w3.org/2000/svg" viewBox="0 0 6 4" id="arrow-down">
    <path d="M3.64876 3.72548L5.72943 1.59999C6.30742 1.00955 5.89807 0 5.08067 0H0.919327C0.101932 0 -0.30742 1.00956 0.270566 1.59999L2.35124 3.72549C2.70954 4.09151 3.29046 4.0915 3.64876 3.72548Z" fill="#107EFF"></path>
  </symbol>
  <symbol fill="none" xmlns="http://www.w3.org/2000/svg" viewBox="0 0 22 15" id="not-visible">
    <path fill-rule="evenodd" clip-rule="evenodd" d="M0.160227 0.442884C0.457058 -0.0091736 1.06571 -0.136027 1.51969 0.159549L5.55479 2.78673C7.01319 1.91179 8.71849 1.2582 10.5587 1.2582C16.0055 1.2582 20.2702 6.98429 20.4492 7.22811C20.619 7.45918 20.619 7.77313 20.4492 8.0044C20.3659 8.11786 19.3959 9.42097 17.8329 10.7808L21.5552 13.2043C22.0092 13.4999 22.1366 14.106 21.8398 14.558C21.6596 14.8325 21.3644 14.9871 21.0587 15C20.9889 14.8072 20.8579 14.6346 20.6724 14.5138L0.636874 1.46903C0.458521 1.3529 0.256296 1.30198 0.0584839 1.31036C-0.0424861 1.03138 -0.0153018 0.710204 0.160227 0.442884ZM2.59551 5.08117C1.4396 6.1899 0.738412 7.13216 0.668155 7.22787C0.498636 7.45918 0.498636 7.7729 0.668155 8.0042C0.84695 8.24802 5.11187 13.9741 10.5587 13.9741C12.0326 13.9741 13.42 13.5548 14.6633 12.9383L12.683 11.6489C11.991 11.8829 11.2787 12.0182 10.5587 12.0182C8.50949 12.0182 6.52202 10.922 4.89219 9.57536C4.02833 8.8616 3.33855 8.13822 2.88114 7.6161C3.22605 7.22242 3.70298 6.71443 4.28695 6.18243L2.59551 5.08117ZM7.75898 8.443C8.05912 9.70488 9.19792 10.6437 10.5569 10.6437C10.7318 10.6437 10.9031 10.6282 11.0694 10.5984L7.75898 8.443ZM7.41952 4.00082L9.28217 5.21355C9.66634 5.02403 10.0991 4.91749 10.5569 4.91749C12.1449 4.91749 13.4322 6.19936 13.4322 7.78061C13.4322 7.82518 13.4312 7.8695 13.4291 7.91357L16.1172 9.66373C16.1534 9.6344 16.1893 9.60495 16.2251 9.57537C17.0888 8.86176 17.7785 8.13851 18.2362 7.61619C17.7786 7.09394 17.0889 6.37063 16.2251 5.65693C14.5953 4.31028 12.6079 3.21412 10.5587 3.21412C9.48087 3.21412 8.42013 3.51737 7.41952 4.00082Z" fill="#95AECD"></path>
  </symbol>
</svg>