<svg width="0" height="0" class="hidden">
  <symbol xmlns="http://www.w3.org/2000/svg" viewBox="0 0 8 10" id="audio-icon">
    <path d="M1.73869 2.92125C1.96577 2.92125 2.18608 2.84397 2.36339 2.70212L5.46478 0.221009C6.11954 -0.302802 7.08947 0.163371 7.08947 1.00188V8.84063C7.08947 9.67913 6.11954 10.1453 5.46478 9.6215L2.36339 7.14038C2.18608 6.99853 1.96577 6.92125 1.73869 6.92125H1.08911C0.536827 6.92125 0.0891113 6.47354 0.0891113 5.92125V3.92125C0.0891113 3.36897 0.536826 2.92125 1.08911 2.92125H1.73869Z"></path>
  </symbol>
  <symbol xmlns="http://www.w3.org/2000/svg" viewBox="0 0 10 10" id="close-icon">
    <path fill-rule="evenodd" clip-rule="evenodd" d="M0.292893 0.292893C0.683417 -0.0976311 1.31658 -0.0976311 1.70711 0.292893L9.70711 8.29289C10.0976 8.68342 10.0976 9.31658 9.70711 9.70711C9.31658 10.0976 8.68342 10.0976 8.29289 9.70711L0.292893 1.70711C-0.0976311 1.31658 -0.0976311 0.683417 0.292893 0.292893Z"></path>
    <path fill-rule="evenodd" clip-rule="evenodd" d="M9.70711 0.292893C9.31658 -0.0976311 8.68342 -0.0976311 8.29289 0.292893L0.292893 8.29289C-0.0976315 8.68342 -0.0976315 9.31658 0.292893 9.70711C0.683417 10.0976 1.31658 10.0976 1.70711 9.70711L9.70711 1.70711C10.0976 1.31658 10.0976 0.683417 9.70711 0.292893Z"></path>
  </symbol>
  <symbol xmlns="http://www.w3.org/2000/svg" viewBox="0 0 11 9" id="photo-icon">
    <path fill-rule="evenodd" clip-rule="evenodd" d="M10.0891 7.03512C10.0891 7.86355 9.41749 8.53512 8.58906 8.53512H1.77954C0.951114 8.53512 0.279541 7.86355 0.279541 7.03512V2.90699C0.279541 2.07857 0.951114 1.40699 1.77954 1.40699H2.50309C2.75106 1.40699 2.99018 1.31486 3.17405 1.14849L3.83145 0.553626C4.01531 0.387249 4.25444 0.29512 4.50241 0.29512H6.21815C6.4504 0.29512 6.6754 0.375956 6.85455 0.523755L7.64798 1.17836C7.82713 1.32616 8.05213 1.40699 8.28438 1.40699H8.58906C9.41749 1.40699 10.0891 2.07857 10.0891 2.90699V7.03512ZM6.79287 4.61131C6.79287 5.45646 6.10774 6.1416 5.26259 6.1416C4.41743 6.1416 3.7323 5.45646 3.7323 4.61131C3.7323 3.76616 4.41743 3.08102 5.26259 3.08102C6.10774 3.08102 6.79287 3.76616 6.79287 4.61131Z"></path>
  </symbol>
  <symbol xmlns="http://www.w3.org/2000/svg" viewBox="0 0 7 9" id="video-icon">
    <path d="M5.86077 5.73498C6.41912 5.33616 6.41912 4.50633 5.86077 4.10751L1.58124 1.0507C0.91937 0.577937 0 1.05106 0 1.86443V7.97806C0 8.79143 0.91937 9.26455 1.58124 8.79179L5.86077 5.73498Z"></path>
  </symbol>
  <symbol  xmlns="http://www.w3.org/2000/svg" viewBox="0 0 20 20" id="edit-icon">
    <path fill-rule="evenodd" clip-rule="evenodd" d="M16.862 5.73483L13.922 2.79483L12.8248 3.89204L15.7648 6.83204L16.862 5.73483ZM14.3284 8.26844L11.3884 5.32844L4.83169 11.8852L7.77169 14.8252L14.3284 8.26844ZM15.3584 1.35843C14.6082 0.608189 13.3569 0.6431 12.5636 1.4364L3.47327 10.5267C2.67996 11.32 2.64505 12.5713 3.39529 13.3216L3.56577 13.492L3.45181 14.5995L3.30511 16.0253C3.28578 16.2131 3.44318 16.3616 3.63025 16.3321L6.02748 15.9538L6.33529 16.2616C7.08553 17.0118 8.33682 16.9769 9.13012 16.1836L18.2204 7.09326C19.0138 6.29995 19.0487 5.04867 18.2984 4.29843L15.3584 1.35843Z"></path>
  </symbol>
  <symbol  xmlns="http://www.w3.org/2000/svg" viewBox="0 0 20 20" id="edit-small-icon">
    <path fill-rule="evenodd" clip-rule="evenodd" d="M16.862 5.73483L13.922 2.79483L12.8248 3.89204L15.7648 6.83204L16.862 5.73483ZM14.3284 8.26844L11.3884 5.32844L4.83169 11.8852L7.77169 14.8252L14.3284 8.26844ZM15.3584 1.35843C14.6082 0.608189 13.3569 0.6431 12.5636 1.4364L3.47327 10.5267C2.67996 11.32 2.64505 12.5713 3.39529 13.3216L3.56577 13.492L3.45181 14.5995L3.30511 16.0253C3.28578 16.2131 3.44318 16.3616 3.63025 16.3321L6.02748 15.9538L6.33529 16.2616C7.08553 17.0118 8.33682 16.9769 9.13012 16.1836L18.2204 7.09326C19.0138 6.29995 19.0487 5.04867 18.2984 4.29843L15.3584 1.35843Z"></path>
  </symbol>
  <symbol  xmlns="http://www.w3.org/2000/svg" viewBox="0 0 14 14" id="plus">
    <path fill-rule="evenodd" clip-rule="evenodd" d="M8.00014 1C8.00014 0.447716 7.55242 0 7.00014 0C6.44785 0 6.00014 0.447716 6.00014 1V5.65683H1.34326C0.790976 5.65683 0.343262 6.10455 0.343262 6.65683C0.343262 7.20912 0.790976 7.65683 1.34326 7.65683H6.00014V12.3137C6.00014 12.866 6.44785 13.3137 7.00014 13.3137C7.55242 13.3137 8.00014 12.866 8.00014 12.3137V7.65683H12.657C13.2093 7.65683 13.657 7.20912 13.657 6.65683C13.657 6.10455 13.2093 5.65683 12.657 5.65683H8.00014V1Z"></path>
  </symbol>
  <symbol  xmlns="http://www.w3.org/2000/svg" viewBox="0 0 13 16" id="delete-icon">
    <rect x="1.90039" y="1.79999" width="9.2" height="13.2" rx="1"  stroke-width="2"></rect>
    <rect y="0.799988" width="13" height="2.00079" rx="1.0004" ></rect>
    <path d="M5 5.10986V11.7483"  stroke-width="2" stroke-linecap="round"></path>
    <path d="M8.00098 5.10986V11.7483"  stroke-width="2" stroke-linecap="round"></path>
    <path d="M4.65622 0.134472C4.7488 0.0480592 4.87073 0 4.99737 0H8.09319C8.22579 0 8.35297 0.0526784 8.44674 0.146447L8.84674 0.546447C9.16172 0.861429 8.93864 1.4 8.49319 1.4H4.5688C4.11499 1.4 3.89588 0.844116 4.22764 0.534473L4.65622 0.134472Z" ></path>
  </symbol>
  <symbol  xmlns="http://www.w3.org/2000/svg" viewBox="0 0 13 16" id="delete-small-icon">
    <rect x="1.90039" y="1.79999" width="9.2" height="13.2" rx="1"  stroke-width="2"></rect>
    <rect y="0.799988" width="13" height="2.00079" rx="1.0004" ></rect>
    <path d="M5 5.10986V11.7483"  stroke-width="2" stroke-linecap="round"></path>
    <path d="M8.00098 5.10986V11.7483"  stroke-width="2" stroke-linecap="round"></path>
    <path d="M4.65622 0.134472C4.7488 0.0480592 4.87073 0 4.99737 0H8.09319C8.22579 0 8.35297 0.0526784 8.44674 0.146447L8.84674 0.546447C9.16172 0.861429 8.93864 1.4 8.49319 1.4H4.5688C4.11499 1.4 3.89588 0.844116 4.22764 0.534473L4.65622 0.134472Z" ></path>
  </symbol>
  <symbol  xmlns="http://www.w3.org/2000/svg" viewBox="0 0 12 13" id="upload-icon">
    <path fill-rule="evenodd" clip-rule="evenodd" d="M1.33398 8.18141C1.88627 8.18141 2.33398 8.62913 2.33398 9.18141V10.2269C2.33398 10.503 2.55784 10.7269 2.83398 10.7269H9.16732C9.44346 10.7269 9.66732 10.503 9.66732 10.2269V9.18141C9.66732 8.62913 10.115 8.18141 10.6673 8.18141C11.2196 8.18141 11.6673 8.62913 11.6673 9.18141V10.2269C11.6673 11.6076 10.548 12.7269 9.16732 12.7269H2.83398C1.45327 12.7269 0.333984 11.6076 0.333984 10.2269V9.18141C0.333984 8.62913 0.7817 8.18141 1.33398 8.18141ZM5.15159 8.89867C5.62022 9.3673 6.38002 9.3673 6.84865 8.89867L8.82844 6.91888C9.21896 6.52835 9.21896 5.89519 8.82844 5.50466C8.43791 5.11414 7.80475 5.11414 7.41422 5.50466L7.00098 5.91791V1.87688C7.00098 1.32459 6.55326 0.876876 6.00098 0.876876C5.44869 0.876876 5.00098 1.32459 5.00098 1.87688V5.91963L4.58601 5.50466C4.19549 5.11414 3.56232 5.11414 3.1718 5.50466C2.78128 5.89519 2.78128 6.52835 3.1718 6.91888L5.15159 8.89867Z"></path>
  </symbol>
  <symbol fill="none" xmlns="http://www.w3.org/2000/svg" viewBox="0 0 14 14" id="blue-icon">
    <circle cx="7" cy="7" r="7" fill="white"></circle>
    <path d="M7 4V10" stroke="#107EFF" stroke-width="2" stroke-linecap="round"></path>
    <path d="M10 7L4 7" stroke="#107EFF" stroke-width="2" stroke-linecap="round"></path>
  </symbol>
  <symbol fill="none" xmlns="http://www.w3.org/2000/svg" viewBox="0 0 18 18" id="green-icon">
    <circle cx="9" cy="9" r="9" fill="white"></circle>
    <path d="M6.85254 9.12134L8.4054 10.6742" stroke="#43DD9C" stroke-width="2" stroke-linecap="round"></path>
    <path d="M11.511 7.56848L8.40526 10.6742" stroke="#43DD9C" stroke-width="2" stroke-linecap="round"></path>
  </symbol>
  <symbol xmlns="http://www.w3.org/2000/svg" viewBox="0 0 26 11" id="back">
    <path fill-rule="evenodd" clip-rule="evenodd" d="M6.25713 1.70711C6.65092 1.31658 6.65092 0.683417 6.25713 0.292893C5.86335 -0.0976311 5.2249 -0.0976311 4.83111 0.292893L0.65004 4.43934C0.0593631 5.02513 0.0593604 5.97487 0.65004 6.56066L4.83111 10.7071C5.2249 11.0976 5.86335 11.0976 6.25713 10.7071C6.65092 10.3166 6.65092 9.68342 6.25713 9.29289L3.44092 6.5H24.1987C24.7556 6.5 25.207 6.05228 25.207 5.5C25.207 4.94772 24.7556 4.5 24.1987 4.5H3.44092L6.25713 1.70711Z"></path>
  </symbol>
  <symbol  xmlns="http://www.w3.org/2000/svg" viewBox="0 0 16 16" id="fullscreen-icon">
    <path fill-rule="evenodd" clip-rule="evenodd" d="M0 2C0 0.89543 0.895431 0 2 0H4.5C5.05228 0 5.5 0.447715 5.5 1C5.5 1.55228 5.05228 2 4.5 2H2V4.5C2 5.05228 1.55228 5.5 1 5.5C0.447715 5.5 0 5.05228 0 4.5V2Z" ></path>
    <path fill-rule="evenodd" clip-rule="evenodd" d="M0 14C0 15.1046 0.895431 16 2 16H4.5C5.05228 16 5.5 15.5523 5.5 15C5.5 14.4477 5.05228 14 4.5 14H2V11.5C2 10.9477 1.55228 10.5 1 10.5C0.447715 10.5 0 10.9477 0 11.5V14Z"></path>
    <path fill-rule="evenodd" clip-rule="evenodd" d="M16 2C16 0.89543 15.1046 0 14 0H11.5C10.9477 0 10.5 0.447715 10.5 1C10.5 1.55228 10.9477 2 11.5 2H14V4.5C14 5.05228 14.4477 5.5 15 5.5C15.5523 5.5 16 5.05228 16 4.5V2Z" ></path>
    <path fill-rule="evenodd" clip-rule="evenodd" d="M16 14C16 15.1046 15.1046 16 14 16H11.5C10.9477 16 10.5 15.5523 10.5 15C10.5 14.4477 10.9477 14 11.5 14H14V11.5C14 10.9477 14.4477 10.5 15 10.5C15.5523 10.5 16 10.9477 16 11.5V14Z" ></path>
  </symbol>
  <symbol  xmlns="http://www.w3.org/2000/svg" viewBox="0 0 9 12" id="play-icon">
    <path opacity="0.8" d="M8.39982 7.20298C9.20006 6.61339 9.20006 5.38661 8.39982 4.79702L2.26627 0.277974C1.31767 -0.420937 0 0.278508 0 1.48096V10.519C0 11.7215 1.31767 12.4209 2.26627 11.722L8.39982 7.20298Z" ></path>
  </symbol>
  <symbol xmlns="http://www.w3.org/2000/svg" viewBox="0 0 18 16" id="volume-icon">
    <path fill-rule="evenodd" clip-rule="evenodd" d="M8.47789 3.02688L4.46918 6.06617C3.94793 6.46136 3.31201 6.67523 2.65819 6.67523H2V8.34406H2.65819C3.31201 8.34406 3.94793 8.55793 4.46918 8.95312L8.47789 11.9924V3.02688ZM3.26185 4.46962C3.0881 4.60135 2.87613 4.67265 2.65819 4.67265H1C0.447715 4.67265 0 5.12094 0 5.67394V9.34535C0 9.89835 0.447716 10.3466 1 10.3466H2.65819C2.87613 10.3466 3.0881 10.4179 3.26185 10.5497L8.87423 14.8048C9.53288 15.3042 10.4779 14.8338 10.4779 14.0065V1.01276C10.4779 0.185537 9.53288 -0.284873 8.87423 0.214493L3.26185 4.46962Z" ></path>
    <path fill-rule="evenodd" clip-rule="evenodd" d="M13.9842 4.00198C14.1894 3.48857 14.7714 3.23892 15.2842 3.44438C16.8834 4.08519 17.9997 5.67139 17.9997 7.50963C17.9997 9.34786 16.8834 10.9341 15.2842 11.5749C14.7714 11.7803 14.1894 11.5307 13.9842 11.0173C13.779 10.5039 14.0283 9.92109 14.5411 9.71564C15.3851 9.37745 15.9997 8.52491 15.9997 7.50963C15.9997 6.49434 15.3851 5.6418 14.5411 5.30362C14.0283 5.09816 13.779 4.5154 13.9842 4.00198Z"></path>
    <path fill-rule="evenodd" clip-rule="evenodd" d="M11.2778 5.65639C11.4564 5.13309 12.0248 4.85378 12.5474 5.03255C13.5683 5.38176 14.4167 6.30473 14.4167 7.50964C14.4167 8.71455 13.5683 9.63752 12.5474 9.98673C12.0248 10.1655 11.4564 9.88619 11.2778 9.36289C11.0993 8.83958 11.3782 8.27044 11.9009 8.09167C12.2761 7.96332 12.4167 7.69667 12.4167 7.50964C12.4167 7.32261 12.2761 7.05596 11.9009 6.92761C11.3782 6.74884 11.0993 6.1797 11.2778 5.65639Z" ></path>
  </symbol>
    <symbol xmlns="http://www.w3.org/2000/svg" viewBox="0 0 7 12" id="stop-icon">
    <path fill-rule="evenodd" clip-rule="evenodd" d="M1 0C0.447693 0 0 0.447716 0 1V11C0 11.5523 0.447693 12 1 12C1.55231 12 2 11.5523 2 11V1C2 0.447716 1.55231 0 1 0ZM6 0C5.44769 0 5 0.447716 5 1V11C5 11.5523 5.44769 12 6 12C6.55231 12 7 11.5523 7 11V1C7 0.447716 6.55231 0 6 0Z"></path>
  </symbol>
  <symbol xmlns="http://www.w3.org/2000/svg" viewBox="0 0 19 15" id="muted-icon">
    <path fill-rule="evenodd" clip-rule="evenodd" d="M8.47789 3.02298L4.46918 6.05834C3.94793 6.45303 3.31201 6.66662 2.65819 6.66662H2V8.33329H2.65819C3.31201 8.33329 3.94793 8.54688 4.46918 8.94156L8.47789 11.9769V3.02298ZM3.26185 4.46386C3.0881 4.59542 2.87613 4.66662 2.65819 4.66662H1C0.447715 4.66662 0 5.11433 0 5.66662V9.33329C0 9.88557 0.447716 10.3333 1 10.3333H2.65819C2.87613 10.3333 3.0881 10.4045 3.26185 10.536L8.87423 14.7857C9.53288 15.2844 10.4779 14.8146 10.4779 13.9884V1.01147C10.4779 0.185309 9.53288 -0.284492 8.87423 0.214228L3.26185 4.46386Z"></path>
    <path fill-rule="evenodd" clip-rule="evenodd" d="M16.7929 4.29289C17.1834 3.90237 17.8166 3.90237 18.2071 4.29289C18.5976 4.68342 18.5976 5.31658 18.2071 5.70711L16.6642 7.25L18.2071 8.79289C18.5976 9.18342 18.5976 9.81658 18.2071 10.2071C17.8166 10.5976 17.1834 10.5976 16.7929 10.2071L15.25 8.66421L13.7071 10.2071C13.3166 10.5976 12.6834 10.5976 12.2929 10.2071C11.9024 9.81658 11.9024 9.18342 12.2929 8.79289L13.8358 7.25L12.2929 5.70711C11.9024 5.31658 11.9024 4.68342 12.2929 4.29289C12.6834 3.90237 13.3166 3.90237 13.7071 4.29289L15.25 5.83579L16.7929 4.29289Z"></path>
  </symbol>
  <symbol  xmlns="http://www.w3.org/2000/svg" viewBox="0 0 16 16" id="collapse-icon">
    <path fill-rule="evenodd" clip-rule="evenodd" d="M5.5 3.5C5.5 4.60457 4.60457 5.5 3.5 5.5H1C0.447715 5.5 0 5.05228 0 4.5C0 3.94772 0.447715 3.5 1 3.5H3.5V1C3.5 0.447715 3.94772 0 4.5 0C5.05228 0 5.5 0.447715 5.5 1V3.5Z" ></path>
    <path fill-rule="evenodd" clip-rule="evenodd" d="M5.5 12.5C5.5 11.3954 4.60457 10.5 3.5 10.5H1C0.447715 10.5 0 10.9477 0 11.5C0 12.0523 0.447715 12.5 1 12.5H3.5V15C3.5 15.5523 3.94772 16 4.5 16C5.05228 16 5.5 15.5523 5.5 15V12.5Z" ></path>
    <path fill-rule="evenodd" clip-rule="evenodd" d="M10.5 3.5C10.5 4.60457 11.3954 5.5 12.5 5.5H15C15.5523 5.5 16 5.05228 16 4.5C16 3.94772 15.5523 3.5 15 3.5H12.5V1C12.5 0.447715 12.0523 0 11.5 0C10.9477 0 10.5 0.447715 10.5 1V3.5Z" ></path>
    <path fill-rule="evenodd" clip-rule="evenodd" d="M10.5 12.5C10.5 11.3954 11.3954 10.5 12.5 10.5H15C15.5523 10.5 16 10.9477 16 11.5C16 12.0523 15.5523 12.5 15 12.5H12.5V15C12.5 15.5523 12.0523 16 11.5 16C10.9477 16 10.5 15.5523 10.5 15V12.5Z"></path>
  </symbol>
</svg>