<svg xmlns="http://www.w3.org/2000/svg">
  <symbol id="video-icon" viewBox="0 0 7 10">
    <path d="M5.86077 5.73498C6.41912 5.33616 6.41912 4.50633 5.86077 4.10751L1.58124 1.0507C0.91937 0.577937 0 1.05106 0 1.86443V7.97806C0 8.79143 0.91937 9.26455 1.58124 8.79179L5.86077 5.73498Z"/>
  </symbol>

  <symbol id="photo-icon" viewBox="0 0 10 10">
    <path fill-rule="evenodd" clip-rule="evenodd" d="M10.0891 7.03512C10.0891 7.86355 9.41749 8.53512 8.58906 8.53512H1.77954C0.951114 8.53512 0.279541 7.86355 0.279541 7.03512V2.90699C0.279541 2.07857 0.951114 1.40699 1.77954 1.40699H2.50309C2.75106 1.40699 2.99018 1.31486 3.17405 1.14849L3.83145 0.553626C4.01531 0.387249 4.25444 0.29512 4.50241 0.29512H6.21815C6.4504 0.29512 6.6754 0.375956 6.85455 0.523755L7.64798 1.17836C7.82713 1.32616 8.05213 1.40699 8.28438 1.40699H8.58906C9.41749 1.40699 10.0891 2.07857 10.0891 2.90699V7.03512ZM6.79287 4.61131C6.79287 5.45646 6.10774 6.1416 5.26259 6.1416C4.41743 6.1416 3.7323 5.45646 3.7323 4.61131C3.7323 3.76616 4.41743 3.08102 5.26259 3.08102C6.10774 3.08102 6.79287 3.76616 6.79287 4.61131Z"/>
  </symbol>

  <symbol id="audio-icon" viewBox="0 0 8 10"  >
    <path d="M1.73869 2.92125C1.96577 2.92125 2.18608 2.84397 2.36339 2.70212L5.46478 0.221009C6.11954 -0.302802 7.08947 0.163371 7.08947 1.00188V8.84063C7.08947 9.67913 6.11954 10.1453 5.46478 9.6215L2.36339 7.14038C2.18608 6.99853 1.96577 6.92125 1.73869 6.92125H1.08911C0.536827 6.92125 0.0891113 6.47354 0.0891113 5.92125V3.92125C0.0891113 3.36897 0.536826 2.92125 1.08911 2.92125H1.73869Z"/>
  </symbol>

  <symbol id="delete-icon" viewBox="0 0 14 16"  >
    <path fill-rule="evenodd" clip-rule="evenodd" d="M5.08888 0C4.96223 0 4.84031 0.0480592 4.74772 0.134472L4.31915 0.534473C4.23631 0.611788 4.18782 0.704455 4.16875 0.799988H2.99231H1.09232C0.539812 0.799988 0.0919189 1.24788 0.0919189 1.80038C0.0919189 2.31914 0.486763 2.74567 0.992314 2.79585L0.99231 2.79999V14C0.99231 15.1046 1.88774 16 2.99231 16H10.1923C11.2969 16 12.1923 15.1046 12.1923 14V2.79999L12.1923 2.79577C12.6975 2.74523 13.0919 2.31887 13.0919 1.80038C13.0919 1.24788 12.644 0.799988 12.0915 0.799988H10.1923H9.07615C9.058 0.709643 9.01347 0.621669 8.93825 0.546447L8.53824 0.146447C8.44448 0.0526784 8.3173 0 8.18469 0H5.08888ZM10.1923 2.80078H2.99231L2.99231 14L10.1923 14L10.1923 2.80078ZM6.09192 5.10986C6.09192 4.55758 5.6442 4.10986 5.09192 4.10986C4.53963 4.10986 4.09192 4.55758 4.09192 5.10986V11.7483C4.09192 12.3005 4.53963 12.7483 5.09192 12.7483C5.6442 12.7483 6.09192 12.3005 6.09192 11.7483V5.10986ZM8.0929 4.10986C8.64518 4.10986 9.0929 4.55758 9.0929 5.10986V11.7483C9.0929 12.3005 8.64518 12.7483 8.0929 12.7483C7.54061 12.7483 7.0929 12.3005 7.0929 11.7483V5.10986C7.0929 4.55758 7.54061 4.10986 8.0929 4.10986Z"/>
  </symbol>

  <symbol id="edit-icon" viewBox="0 0 20 20"  >
   <path fill-rule="evenodd" clip-rule="evenodd" d="M16.2971 5.73483L13.3571 2.79483L12.2599 3.89204L15.1999 6.83204L16.2971 5.73483ZM13.7635 8.26844L10.8235 5.32844L4.26675 11.8852L7.20675 14.8252L13.7635 8.26844ZM14.7935 1.35843C14.0432 0.608189 12.792 0.6431 11.9987 1.4364L2.90832 10.5267C2.11502 11.32 2.08011 12.5713 2.83035 13.3216L3.00082 13.492L2.88687 14.5995L2.74016 16.0253C2.72084 16.2131 2.87824 16.3616 3.06531 16.3321L5.46253 15.9538L5.77035 16.2616C6.52058 17.0118 7.77187 16.9769 8.56518 16.1836L17.6555 7.09326C18.4488 6.29995 18.4837 5.04867 17.7335 4.29843L14.7935 1.35843Z"/>
  </symbol>

  <symbol id="search-icon" viewBox="0 0 13 14"  >
    <circle cx="5.78561" cy="5.78561" r="4.78561" fill="#E8F3FF" stroke="#107EFF" stroke-width="2"/>
    <path d="M9 10L12 13" stroke="#107EFF" stroke-width="2" stroke-linecap="round"/>
  </symbol>

  <symbol id="calendar-icon"  viewBox="0 0 15 14"  >
    <path fill-rule="evenodd" clip-rule="evenodd" d="M13.75 1.27273H1.25L1.25 12.7273H13.75V1.27273ZM1.25 0C0.559644 0 0 0.569819 0 1.27273V12.7273C0 13.4302 0.559644 14 1.25 14H13.75C14.4404 14 15 13.4302 15 12.7273V1.27273C15 0.569819 14.4404 0 13.75 0H1.25Z" />
    <path d="M2.5 3.18182C1.75 3.18182 1.35417 4.0303 1.25 4.45455H0L0.625 0.636364H14.375L15 4.45455H13.75C13.75 3.69091 13.125 3.18182 12.5 3.18182H2.5Z" />
    <path d="M5.625 6.36364C5.625 7.06654 5.06536 7.63636 4.375 7.63636C3.68464 7.63636 3.125 7.06654 3.125 6.36364C3.125 5.66073 3.68464 5.09091 4.375 5.09091C5.06536 5.09091 5.625 5.66073 5.625 6.36364Z" />
    <path d="M8.125 6.36364C8.125 6.71509 7.84518 7 7.5 7C7.15482 7 6.875 6.71509 6.875 6.36364C6.875 6.01218 7.15482 5.72727 7.5 5.72727C7.84518 5.72727 8.125 6.01218 8.125 6.36364Z" />
    <path d="M11.25 6.36364C11.25 6.71509 10.9702 7 10.625 7C10.2798 7 10 6.71509 10 6.36364C10 6.01218 10.2798 5.72727 10.625 5.72727C10.9702 5.72727 11.25 6.01218 11.25 6.36364Z" />
    <path d="M8.125 9.54545C8.125 9.89691 7.84518 10.1818 7.5 10.1818C7.15482 10.1818 6.875 9.89691 6.875 9.54545C6.875 9.194 7.15482 8.90909 7.5 8.90909C7.84518 8.90909 8.125 9.194 8.125 9.54545Z" />
    <path d="M5 9.54545C5 9.89691 4.72018 10.1818 4.375 10.1818C4.02982 10.1818 3.75 9.89691 3.75 9.54545C3.75 9.194 4.02982 8.90909 4.375 8.90909C4.72018 8.90909 5 9.194 5 9.54545Z" />
    <path d="M11.25 9.54545C11.25 9.89691 10.9702 10.1818 10.625 10.1818C10.2798 10.1818 10 9.89691 10 9.54545C10 9.194 10.2798 8.90909 10.625 8.90909C10.9702 8.90909 11.25 9.194 11.25 9.54545Z" />
  </symbol>

  <symbol id="plus-icon"  viewBox="0 0 14 14"  >
    <path fill-rule="evenodd" clip-rule="evenodd" d="M8.05157 1.05155C8.05157 0.470794 7.58077 -4.43179e-08 7.00002 0C6.41927 -4.43179e-08 5.94847 0.470794 5.94847 1.05155V5.94843H1.05155C0.470794 5.94843 -7.0911e-07 6.41922 0 6.99998C-7.0911e-07 7.58073 0.470794 8.05153 1.05155 8.05153H5.94847V12.9485C5.94847 13.5292 6.41927 14 7.00002 14C7.58078 14 8.05157 13.5292 8.05157 12.9485V8.05153H12.9485C13.5292 8.05153 14 7.58073 14 6.99998C14 6.41922 13.5292 5.94843 12.9485 5.94843H8.05157V1.05155Z" />
  </symbol>

  <symbol id="plus-sm-icon"  viewBox="0 0 8 8"  >
    <path fill-rule="evenodd" clip-rule="evenodd" d="M5 1C5 0.447715 4.55228 0 4 0C3.44772 0 3 0.447715 3 1V3H1C0.447715 3 0 3.44771 0 4C0 4.55228 0.447715 5 1 5H3V7C3 7.55228 3.44772 8 4 8C4.55228 8 5 7.55228 5 7V5H7C7.55228 5 8 4.55228 8 4C8 3.44772 7.55228 3 7 3H5V1Z" />
  </symbol>

  <symbol id="cross-sm-icon"  viewBox="0 0 6 6"  >
    <path fill-rule="evenodd" clip-rule="evenodd" d="M0.175736 0.175736C0.410051 -0.0585787 0.78995 -0.0585787 1.02426 0.175736L5.82426 4.97574C6.05858 5.21005 6.05858 5.58995 5.82426 5.82426C5.58995 6.05858 5.21005 6.05858 4.97574 5.82426L0.175736 1.02426C-0.0585787 0.78995 -0.0585787 0.410051 0.175736 0.175736Z" />
    <path fill-rule="evenodd" clip-rule="evenodd" d="M5.82426 0.175736C5.58995 -0.0585787 5.21005 -0.0585787 4.97574 0.175736L0.175736 4.97574C-0.058579 5.21005 -0.058579 5.58995 0.175736 5.82426C0.41005 6.05858 0.789949 6.05858 1.02426 5.82426L5.82426 1.02426C6.05858 0.78995 6.05858 0.410051 5.82426 0.175736Z" />
  </symbol>

  <symbol id="cross-icon" viewBox="0 0 10 10"  >
    <path fill-rule="evenodd" clip-rule="evenodd" d="M8.29289 0.292893C8.68342 -0.0976311 9.31658 -0.0976311 9.70711 0.292893C10.0976 0.683417 10.0976 1.31658 9.70711 1.70711L6.41421 5L9.70711 8.29289C10.0976 8.68342 10.0976 9.31658 9.70711 9.70711C9.31658 10.0976 8.68342 10.0976 8.29289 9.70711L5 6.41421L1.70711 9.70711C1.31658 10.0976 0.683418 10.0976 0.292894 9.70711C-0.0976312 9.31658 -0.0976312 8.68342 0.292894 8.29289L3.58579 5L0.292893 1.70711C-0.0976309 1.31658 -0.0976309 0.683417 0.292893 0.292893C0.683418 -0.0976311 1.31658 -0.0976311 1.70711 0.292893L5 3.58579L8.29289 0.292893Z" />
  </symbol>

  <symbol id="tick-blue-icon"  viewBox="0 0 7 5"  >
    <path fill-rule="evenodd" clip-rule="evenodd" d="M6.69175 1.67175C7.10236 1.28931 7.10236 0.669262 6.69175 0.286827C6.28114 -0.0956089 5.61541 -0.0956089 5.20479 0.286827L2.68349 2.63513L1.79491 1.80753C1.3843 1.42509 0.718568 1.42509 0.307958 1.80753C-0.102653 2.18996 -0.102653 2.81001 0.307958 3.19245L1.90793 4.68264C1.91812 4.69296 1.92858 4.70314 1.93933 4.71315C2.14401 4.90378 2.41207 4.99939 2.68033 4.99997C2.95069 5.00088 3.22136 4.90527 3.42764 4.71315C3.4384 4.70313 3.44888 4.69294 3.45907 4.68261L6.69175 1.67175Z" />
  </symbol>

  <symbol id="icon-notify"  viewBox="0 0 20 24" >
    <path d="M18.2499 21.1997H1.74994C0.784973 21.1997 0 20.4169 0 19.4546C0 18.9438 0.223023 18.4603 0.611939 18.1281C2.133 16.8466 3 14.9839 3 13.0103V10.2298C3 6.38053 6.14008 3.24907 9.99994 3.24907C13.86 3.24907 17.0001 6.38053 17.0001 10.2298V13.0103C17.0001 14.9839 17.8671 16.8466 19.3781 18.1212C19.777 18.4603 20.0001 18.9438 20.0001 19.4546C20.0001 20.4169 19.2151 21.1997 18.2499 21.1997Z" fill="#E8F3FF" />
    <path fill-rule="evenodd" clip-rule="evenodd" d="M10.9844 1.00524C10.9844 0.450059 10.5367 0 9.98438 0C9.43209 0 8.98438 0.450059 8.98438 1.00524V3.32233C5.60407 3.81433 3 6.72443 3 10.2298V13.0103C3 14.9839 2.133 16.8466 0.611939 18.1281C0.223023 18.4603 0 18.9438 0 19.4546C0 20.4169 0.784973 21.1997 1.74994 21.1997H6.63702C6.92074 22.7953 8.31881 24 9.98447 24C11.6504 24 13.0482 22.7953 13.3319 21.1997H18.2499C19.2151 21.1997 20.0001 20.4169 20.0001 19.4546C20.0001 18.9438 19.777 18.4603 19.3781 18.1212C17.8671 16.8466 17.0001 14.9839 17.0001 13.0103V10.2298C17.0001 6.71366 14.38 3.79646 10.9844 3.31787V1.00524ZM9.98447 21.9895C9.42484 21.9895 8.94669 21.6639 8.72182 21.1997H11.2472C11.0223 21.664 10.5442 21.9895 9.98447 21.9895ZM17.5761 19.1892C15.9341 17.5628 15.0001 15.3469 15.0001 13.0103V10.2298C15.0001 7.50599 12.7705 5.25954 9.99994 5.25954C7.22959 5.25954 5 7.50596 5 10.2298V13.0103C5 15.3457 4.06705 17.5589 2.42162 19.1892H17.5761Z" fill="#107EFF" />
  </symbol>

  <symbol id="back"  viewBox="0 0 25 11" >
    <path d="M24 5.5H1.5" stroke-width="2" stroke-linecap="round"/>
    <path d="M5.5 10L1.35355 5.85355C1.15829 5.65829 1.15829 5.34171 1.35355 5.14645L5.5 1" stroke-width="2" stroke-linecap="round"/>
  </symbol>

  <symbol id="tick-circle"  viewBox="0 0 18 18" >
    <circle cx="9" cy="9" r="9" fill="white"/>
    <path d="M6.85254 9.12134L8.4054 10.6742" stroke-width="2" stroke-linecap="round"/>
    <path d="M11.511 7.56848L8.40526 10.6742" stroke-width="2" stroke-linecap="round"/>
  </symbol>

  <symbol id="plus-circle" viewBox="0 0 14 14" >
    <circle cx="7" cy="7" r="7" fill="white"/>
    <path d="M7 4V10" stroke="#107EFF" stroke-width="2" stroke-linecap="round"/>
    <path d="M10 7L4 7" stroke="#107EFF" stroke-width="2" stroke-linecap="round"/>
  </symbol>

  <symbol id="home-icon" viewBox="0 0 11 11"  xmlns="http://www.w3.org/2000/svg">
    <path fill-rule="evenodd" clip-rule="evenodd" d="M5.44849 1.58597L9.39698 3.99894V4.07924H1.5V3.99894L5.44849 1.58597ZM0 3.71852C0 3.37015 0.181295 3.0469 0.47855 2.86524L4.92704 0.146718C5.24715 -0.0489059 5.64983 -0.0489062 5.96994 0.146718L10.4184 2.86524C10.7157 3.0469 10.897 3.37016 10.897 3.71852V4.57924C10.897 5.13152 10.4493 5.57924 9.89698 5.57924H9.68637V9.42232C9.68637 9.9746 9.23865 10.4223 8.68637 10.4223H2.21094C1.65865 10.4223 1.21094 9.9746 1.21094 9.42232V5.57924H1C0.447716 5.57924 0 5.13152 0 4.57924V3.71852ZM2.71094 8.92232V5.58191H8.18637V8.92232H2.71094Z" fill="#107EFF"/>
  </symbol>

  <symbol id="home-circle" viewBox="0 0 18 18" xmlns="http://www.w3.org/2000/svg">
    <circle cx="9" cy="9" r="9" fill="white"/>
    <path fill-rule="evenodd" clip-rule="evenodd" d="M9.00122 5.46079L12.9497 7.87376V7.95405H5.05273V7.87376L9.00122 5.46079ZM3.55273 7.59334C3.55273 7.24497 3.73403 6.92171 4.03128 6.74006L8.47977 4.02154C8.79989 3.82591 9.20256 3.82591 9.52267 4.02153L13.9712 6.74006C14.2684 6.92171 14.4497 7.24497 14.4497 7.59334V8.45406C14.4497 9.00634 14.002 9.45405 13.4497 9.45405H13.2391V13.2971C13.2391 13.8494 12.7914 14.2971 12.2391 14.2971H5.76367C5.21139 14.2971 4.76367 13.8494 4.76367 13.2971V9.45405H4.55274C4.00045 9.45405 3.55273 9.00634 3.55273 8.45405V7.59334ZM6.26367 12.7971V9.45673H11.7391V12.7971H6.26367Z" fill="#107EFF"/>
  </symbol>

  <symbol id="upload-icon" viewBox="0 0 14 14">
    <path fill-rule="evenodd" clip-rule="evenodd" d="M6.17436 0.404493C6.63722 -0.0340823 7.36225 -0.0340823 7.82511 0.404493L10.4148 2.85835C10.8157 3.23821 10.8328 3.87115 10.4529 4.27205C10.073 4.67295 9.4401 4.69 9.0392 4.31013L8 3.32545V8.86525C8 9.41753 7.55228 9.86525 7 9.86525C6.44772 9.86525 6 9.41753 6 8.86525V3.32495L4.96027 4.31013C4.55938 4.69 3.92644 4.67295 3.54657 4.27205C3.16671 3.87115 3.18375 3.23821 3.58465 2.85835L6.17436 0.404493ZM1 8.89899C1.55228 8.89899 2 9.3467 2 9.89899V11.5C2 11.7762 2.22386 12 2.5 12H11.5C11.7761 12 12 11.7762 12 11.5V9.89899C12 9.3467 12.4477 8.89899 13 8.89899C13.5523 8.89899 14 9.3467 14 9.89899V11.5C14 12.8807 12.8807 14 11.5 14H2.5C1.11929 14 0 12.8807 0 11.5V9.89899C0 9.3467 0.447715 8.89899 1 8.89899Z" />
  </symbol>

  <symbol id="download-icon" viewBox="0 0 12 12">
    <path fill-rule="evenodd" clip-rule="evenodd" d="M1 7.30454C1.55228 7.30454 2 7.75225 2 8.30454V9.34999C2 9.62613 2.22386 9.84999 2.5 9.84999H8.83333C9.10948 9.84999 9.33333 9.62613 9.33333 9.34999V8.30454C9.33333 7.75225 9.78105 7.30454 10.3333 7.30454C10.8856 7.30454 11.3333 7.75225 11.3333 8.30454V9.34999C11.3333 10.7307 10.214 11.85 8.83333 11.85H2.5C1.11928 11.85 0 10.7307 0 9.34999V8.30454C0 7.75225 0.447715 7.30454 1 7.30454ZM4.81761 8.02179C5.28624 8.49042 6.04603 8.49042 6.51466 8.02179L8.49445 6.042C8.88498 5.65147 8.88498 5.01831 8.49445 4.62778C8.10393 4.23726 7.47076 4.23726 7.08024 4.62778L6.66699 5.04103V0.999999C6.66699 0.447714 6.21928 -9.53674e-07 5.66699 -9.53674e-07C5.11471 -9.53674e-07 4.66699 0.447714 4.66699 0.999999V5.04275L4.25203 4.62778C3.8615 4.23726 3.22834 4.23726 2.83782 4.62778C2.44729 5.01831 2.44729 5.65147 2.83782 6.042L4.81761 8.02179Z" />
  </symbol>

  <symbol id="delete-attachment" viewBox="0 0 14 14">
    <circle cx="7" cy="7" r="7" fill="#107CFA"/>
    <path fill-rule="evenodd" clip-rule="evenodd" d="M4.17574 4.17574C4.41005 3.94142 4.78995 3.94142 5.02426 4.17574L9.82426 8.97574C10.0586 9.21005 10.0586 9.58995 9.82426 9.82426C9.58995 10.0586 9.21005 10.0586 8.97574 9.82426L4.17574 5.02426C3.94142 4.78995 3.94142 4.41005 4.17574 4.17574Z" fill="white"/>
    <path fill-rule="evenodd" clip-rule="evenodd" d="M9.82426 4.17574C9.58995 3.94142 9.21005 3.94142 8.97574 4.17574L4.17574 8.97574C3.94142 9.21005 3.94142 9.58995 4.17574 9.82426C4.41005 10.0586 4.78995 10.0586 5.02426 9.82426L9.82426 5.02426C10.0586 4.78995 10.0586 4.41005 9.82426 4.17574Z" fill="white"/>
  </symbol>

  <symbol id="delete-attachment" width="22" height="15" viewBox="0 0 22 15" fill="none">
    <path fill-rule="evenodd" clip-rule="evenodd" d="M0.160227 0.442884C0.457058 -0.0091736 1.06571 -0.136027 1.51969 0.159549L5.55479 2.78673C7.01319 1.91179 8.71849 1.2582 10.5587 1.2582C16.0055 1.2582 20.2702 6.98429 20.4492 7.22811C20.619 7.45918 20.619 7.77313 20.4492 8.0044C20.3659 8.11786 19.3959 9.42097 17.8329 10.7808L21.5552 13.2043C22.0092 13.4999 22.1366 14.106 21.8398 14.558C21.6596 14.8325 21.3644 14.9871 21.0587 15C20.9889 14.8072 20.8579 14.6346 20.6724 14.5138L0.636874 1.46903C0.458521 1.3529 0.256296 1.30198 0.0584839 1.31036C-0.0424861 1.03138 -0.0153018 0.710204 0.160227 0.442884ZM2.59551 5.08117C1.4396 6.1899 0.738412 7.13216 0.668155 7.22787C0.498636 7.45918 0.498636 7.7729 0.668155 8.0042C0.84695 8.24802 5.11187 13.9741 10.5587 13.9741C12.0326 13.9741 13.42 13.5548 14.6633 12.9383L12.683 11.6489C11.991 11.8829 11.2787 12.0182 10.5587 12.0182C8.50949 12.0182 6.52202 10.922 4.89219 9.57536C4.02833 8.8616 3.33855 8.13822 2.88114 7.6161C3.22605 7.22242 3.70298 6.71443 4.28695 6.18243L2.59551 5.08117ZM7.75898 8.443C8.05912 9.70488 9.19792 10.6437 10.5569 10.6437C10.7318 10.6437 10.9031 10.6282 11.0694 10.5984L7.75898 8.443ZM7.41952 4.00082L9.28217 5.21355C9.66634 5.02403 10.0991 4.91749 10.5569 4.91749C12.1449 4.91749 13.4322 6.19936 13.4322 7.78061C13.4322 7.82518 13.4312 7.8695 13.4291 7.91357L16.1172 9.66373C16.1534 9.6344 16.1893 9.60495 16.2251 9.57537C17.0888 8.86176 17.7785 8.13851 18.2362 7.61619C17.7786 7.09394 17.0889 6.37063 16.2251 5.65693C14.5953 4.31028 12.6079 3.21412 10.5587 3.21412C9.48087 3.21412 8.42013 3.51737 7.41952 4.00082Z" fill="#95AECD"/>
  </symbol>

  <symbol id="visible-icon" width="20" height="14" viewBox="0 0 20 14" fill="none">
    <path fill-rule="evenodd" clip-rule="evenodd" d="M9.99991 0C15.4371 0 19.6942 5.85514 19.8729 6.10445C20.0424 6.34072 20.0424 6.66176 19.8729 6.89823C19.6942 7.1473 15.4371 13.0025 9.99991 13.0025C4.56275 13.0025 0.305391 7.14734 0.126914 6.89803C-0.0423048 6.66152 -0.0423048 6.34073 0.126914 6.10421C0.305391 5.85514 4.56275 0 9.99991 0ZM15.6563 4.49787C16.5185 5.22764 17.207 5.96726 17.6638 6.50128C17.2069 7.03537 16.5184 7.77492 15.6563 8.50462C14.0294 9.88161 12.0455 11.0025 9.99991 11.0025C7.95434 11.0025 5.9704 9.88161 4.34346 8.50461C3.48113 7.77475 2.79257 7.03507 2.33597 6.50118C2.79266 5.96723 3.4812 5.22763 4.34345 4.49786C5.9704 3.12087 7.95434 2 9.99991 2C12.0455 2 14.0294 3.12086 15.6563 4.49787ZM9.99894 9.59699C11.5841 9.59699 12.8691 8.28623 12.8691 6.66934C12.8691 5.05245 11.5841 3.7417 9.99894 3.7417C8.41378 3.7417 7.12876 5.05245 7.12876 6.66934C7.12876 8.28623 8.41378 9.59699 9.99894 9.59699Z" fill="#95AECD"/>
  </symbol>

  <symbol id="not-visible-icon" width="22" height="15" viewBox="0 0 22 15" fill="none">
    <path fill-rule="evenodd" clip-rule="evenodd" d="M0.160227 0.442884C0.457058 -0.0091736 1.06571 -0.136027 1.51969 0.159549L5.55479 2.78673C7.01319 1.91179 8.71849 1.2582 10.5587 1.2582C16.0055 1.2582 20.2702 6.98429 20.4492 7.22811C20.619 7.45918 20.619 7.77313 20.4492 8.0044C20.3659 8.11786 19.3959 9.42097 17.8329 10.7808L21.5552 13.2043C22.0092 13.4999 22.1366 14.106 21.8398 14.558C21.6596 14.8325 21.3644 14.9871 21.0587 15C20.9889 14.8072 20.8579 14.6346 20.6724 14.5138L0.636874 1.46903C0.458521 1.3529 0.256296 1.30198 0.0584839 1.31036C-0.0424861 1.03138 -0.0153018 0.710204 0.160227 0.442884ZM2.59551 5.08117C1.4396 6.1899 0.738412 7.13216 0.668155 7.22787C0.498636 7.45918 0.498636 7.7729 0.668155 8.0042C0.84695 8.24802 5.11187 13.9741 10.5587 13.9741C12.0326 13.9741 13.42 13.5548 14.6633 12.9383L12.683 11.6489C11.991 11.8829 11.2787 12.0182 10.5587 12.0182C8.50949 12.0182 6.52202 10.922 4.89219 9.57536C4.02833 8.8616 3.33855 8.13822 2.88114 7.6161C3.22605 7.22242 3.70298 6.71443 4.28695 6.18243L2.59551 5.08117ZM7.75898 8.443C8.05912 9.70488 9.19792 10.6437 10.5569 10.6437C10.7318 10.6437 10.9031 10.6282 11.0694 10.5984L7.75898 8.443ZM7.41952 4.00082L9.28217 5.21355C9.66634 5.02403 10.0991 4.91749 10.5569 4.91749C12.1449 4.91749 13.4322 6.19936 13.4322 7.78061C13.4322 7.82518 13.4312 7.8695 13.4291 7.91357L16.1172 9.66373C16.1534 9.6344 16.1893 9.60495 16.2251 9.57537C17.0888 8.86176 17.7785 8.13851 18.2362 7.61619C17.7786 7.09394 17.0889 6.37063 16.2251 5.65693C14.5953 4.31028 12.6079 3.21412 10.5587 3.21412C9.48087 3.21412 8.42013 3.51737 7.41952 4.00082Z" fill="#95AECD"/>
  </symbol>

  <symbol id="lock-icon" width="10" height="11" viewBox="0 0 10 11" fill="none">
    <path fill-rule="evenodd" clip-rule="evenodd" d="M2.55899 0C3.97228 0 5.11798 1.1457 5.11798 2.55899V3.53748H8.22719C8.77948 3.53748 9.22719 3.98519 9.22719 4.53748V9.70216C9.22719 10.2544 8.77948 10.7022 8.22719 10.7022H2.77814C2.22585 10.7022 1.77814 10.2544 1.77814 9.70216V4.53747C1.77814 3.98519 2.22585 3.53748 2.77814 3.53748H3.61798V2.55899C3.61798 1.97413 3.14385 1.5 2.55899 1.5C1.97413 1.5 1.5 1.97413 1.5 2.55899C1.5 2.9732 1.16421 3.30899 0.75 3.30899C0.335786 3.30899 0 2.9732 0 2.55899C0 1.1457 1.1457 0 2.55899 0ZM3.27814 5.03748V9.20216H7.72719V5.03748H3.27814ZM6.43804 7.11993C6.43804 7.63547 6.02011 8.05339 5.50457 8.05339C4.98903 8.05339 4.57111 7.63547 4.57111 7.11993C4.57111 6.60439 4.98903 6.18646 5.50457 6.18646C6.02011 6.18646 6.43804 6.60439 6.43804 7.11993Z" fill="#107EFF"/>
  </symbol>

  <symbol id="lock-circle" width="18" height="18" viewBox="0 0 18 18" fill="none">
    <circle cx="9" cy="9" r="9" fill="white"/>
    <path fill-rule="evenodd" clip-rule="evenodd" d="M6.56876 3.51239C7.98205 3.51239 9.12775 4.65809 9.12775 6.07138V7.04987H12.237C12.7892 7.04987 13.237 7.49758 13.237 8.04987V13.2145C13.237 13.7668 12.7892 14.2145 12.237 14.2145H6.7879C6.23562 14.2145 5.7879 13.7668 5.7879 13.2145V8.04986C5.7879 7.49758 6.23562 7.04987 6.7879 7.04987H7.62775V6.07138C7.62775 5.48652 7.15362 5.01239 6.56876 5.01239C5.98389 5.01239 5.50977 5.48652 5.50977 6.07138C5.50977 6.48559 5.17398 6.82138 4.75977 6.82138C4.34555 6.82138 4.00977 6.48559 4.00977 6.07138C4.00977 4.65809 5.15547 3.51239 6.56876 3.51239ZM7.2879 8.54987V12.7145H11.737V8.54987H7.2879ZM10.4478 10.6323C10.4478 11.1479 10.0299 11.5658 9.51434 11.5658C8.9988 11.5658 8.58087 11.1479 8.58087 10.6323C8.58087 10.1168 8.9988 9.69885 9.51434 9.69885C10.0299 9.69885 10.4478 10.1168 10.4478 10.6323Z" fill="#107EFF"/>
  </symbol>


</svg>