<svg xmlns="http://www.w3.org/2000/svg">

  <symbol id="search" viewBox="0 0 13 14" >
    <circle cx="5.78561" cy="5.78561" r="4.78561" fill="#E8F3FF" stroke-width="2"/>
    <path d="M9 10L12 13" stroke="#107EFF" stroke-linecap="round"/>
  </symbol>

  
  <symbol id="calendar" viewBox="0 0 15 14">
    <path fill-rule="evenodd" clip-rule="evenodd" d="M13.75 1.27273H1.25L1.25 12.7273H13.75V1.27273ZM1.25 0C0.559644 0 0 0.569819 0 1.27273V12.7273C0 13.4302 0.559644 14 1.25 14H13.75C14.4404 14 15 13.4302 15 12.7273V1.27273C15 0.569819 14.4404 0 13.75 0H1.25Z" />
    <path d="M2.5 3.18182C1.75 3.18182 1.35417 4.0303 1.25 4.45455H0L0.625 0.636364H14.375L15 4.45455H13.75C13.75 3.69091 13.125 3.18182 12.5 3.18182H2.5Z" />
    <path d="M5.625 6.36364C5.625 7.06654 5.06536 7.63636 4.375 7.63636C3.68464 7.63636 3.125 7.06654 3.125 6.36364C3.125 5.66073 3.68464 5.09091 4.375 5.09091C5.06536 5.09091 5.625 5.66073 5.625 6.36364Z" />
    <path d="M8.125 6.36364C8.125 6.71509 7.84518 7 7.5 7C7.15482 7 6.875 6.71509 6.875 6.36364C6.875 6.01218 7.15482 5.72727 7.5 5.72727C7.84518 5.72727 8.125 6.01218 8.125 6.36364Z" />
    <path d="M11.25 6.36364C11.25 6.71509 10.9702 7 10.625 7C10.2798 7 10 6.71509 10 6.36364C10 6.01218 10.2798 5.72727 10.625 5.72727C10.9702 5.72727 11.25 6.01218 11.25 6.36364Z" />
    <path d="M8.125 9.54545C8.125 9.89691 7.84518 10.1818 7.5 10.1818C7.15482 10.1818 6.875 9.89691 6.875 9.54545C6.875 9.194 7.15482 8.90909 7.5 8.90909C7.84518 8.90909 8.125 9.194 8.125 9.54545Z" />
    <path d="M5 9.54545C5 9.89691 4.72018 10.1818 4.375 10.1818C4.02982 10.1818 3.75 9.89691 3.75 9.54545C3.75 9.194 4.02982 8.90909 4.375 8.90909C4.72018 8.90909 5 9.194 5 9.54545Z" />
    <path d="M11.25 9.54545C11.25 9.89691 10.9702 10.1818 10.625 10.1818C10.2798 10.1818 10 9.89691 10 9.54545C10 9.194 10.2798 8.90909 10.625 8.90909C10.9702 8.90909 11.25 9.194 11.25 9.54545Z" />
  </symbol>

  <symbol id="cross" viewBox="0 0 10 10">
    <path fill-rule="evenodd" clip-rule="evenodd" d="M0.292893 0.292893C0.683417 -0.0976311 1.31658 -0.0976311 1.70711 0.292893L9.70711 8.29289C10.0976 8.68342 10.0976 9.31658 9.70711 9.70711C9.31658 10.0976 8.68342 10.0976 8.29289 9.70711L0.292893 1.70711C-0.0976311 1.31658 -0.0976311 0.683417 0.292893 0.292893Z"/>
    <path fill-rule="evenodd" clip-rule="evenodd" d="M9.70711 0.292893C9.31658 -0.0976311 8.68342 -0.0976311 8.29289 0.292893L0.292893 8.29289C-0.0976315 8.68342 -0.0976315 9.31658 0.292893 9.70711C0.683417 10.0976 1.31658 10.0976 1.70711 9.70711L9.70711 1.70711C10.0976 1.31658 10.0976 0.683417 9.70711 0.292893Z"/>
  </symbol>

  <symbol id="password-visible" viewBox="0 0 20 14" fill="none" >
    <path fill-rule="evenodd" clip-rule="evenodd" d="M9.99991 0C15.4371 0 19.6942 5.85514 19.8729 6.10445C20.0424 6.34072 20.0424 6.66176 19.8729 6.89823C19.6942 7.1473 15.4371 13.0025 9.99991 13.0025C4.56275 13.0025 0.305391 7.14734 0.126914 6.89803C-0.0423048 6.66152 -0.0423048 6.34073 0.126914 6.10421C0.305391 5.85514 4.56275 0 9.99991 0ZM15.6563 4.49787C16.5185 5.22764 17.207 5.96726 17.6638 6.50128C17.2069 7.03537 16.5184 7.77492 15.6563 8.50462C14.0294 9.88161 12.0455 11.0025 9.99991 11.0025C7.95434 11.0025 5.9704 9.88161 4.34346 8.50461C3.48113 7.77475 2.79257 7.03507 2.33597 6.50118C2.79266 5.96723 3.4812 5.22763 4.34345 4.49786C5.9704 3.12087 7.95434 2 9.99991 2C12.0455 2 14.0294 3.12086 15.6563 4.49787ZM9.99894 9.59699C11.5841 9.59699 12.8691 8.28623 12.8691 6.66934C12.8691 5.05245 11.5841 3.7417 9.99894 3.7417C8.41378 3.7417 7.12876 5.05245 7.12876 6.66934C7.12876 8.28623 8.41378 9.59699 9.99894 9.59699Z" fill="#95AECD"/>
  </symbol>

  <symbol id="password-no-visible" viewBox="0 0 22 15" fill="none" >
    <path fill-rule="evenodd" clip-rule="evenodd" d="M0.160227 0.442884C0.457058 -0.0091736 1.06571 -0.136027 1.51969 0.159549L5.55479 2.78673C7.01319 1.91179 8.71849 1.2582 10.5587 1.2582C16.0055 1.2582 20.2702 6.98429 20.4492 7.22811C20.619 7.45918 20.619 7.77313 20.4492 8.0044C20.3659 8.11786 19.3959 9.42097 17.8329 10.7808L21.5552 13.2043C22.0092 13.4999 22.1366 14.106 21.8398 14.558C21.6596 14.8325 21.3644 14.9871 21.0587 15C20.9889 14.8072 20.8579 14.6346 20.6724 14.5138L0.636874 1.46903C0.458521 1.3529 0.256296 1.30198 0.0584839 1.31036C-0.0424861 1.03138 -0.0153018 0.710204 0.160227 0.442884ZM2.59551 5.08117C1.4396 6.1899 0.738412 7.13216 0.668155 7.22787C0.498636 7.45918 0.498636 7.7729 0.668155 8.0042C0.84695 8.24802 5.11187 13.9741 10.5587 13.9741C12.0326 13.9741 13.42 13.5548 14.6633 12.9383L12.683 11.6489C11.991 11.8829 11.2787 12.0182 10.5587 12.0182C8.50949 12.0182 6.52202 10.922 4.89219 9.57536C4.02833 8.8616 3.33855 8.13822 2.88114 7.6161C3.22605 7.22242 3.70298 6.71443 4.28695 6.18243L2.59551 5.08117ZM7.75898 8.443C8.05912 9.70488 9.19792 10.6437 10.5569 10.6437C10.7318 10.6437 10.9031 10.6282 11.0694 10.5984L7.75898 8.443ZM7.41952 4.00082L9.28217 5.21355C9.66634 5.02403 10.0991 4.91749 10.5569 4.91749C12.1449 4.91749 13.4322 6.19936 13.4322 7.78061C13.4322 7.82518 13.4312 7.8695 13.4291 7.91357L16.1172 9.66373C16.1534 9.6344 16.1893 9.60495 16.2251 9.57537C17.0888 8.86176 17.7785 8.13851 18.2362 7.61619C17.7786 7.09394 17.0889 6.37063 16.2251 5.65693C14.5953 4.31028 12.6079 3.21412 10.5587 3.21412C9.48087 3.21412 8.42013 3.51737 7.41952 4.00082Z" fill="#95AECD"/>
  </symbol>

</svg>