<svg width="284" height="79" viewBox="0 0 284 79" fill="none" xmlns="http://www.w3.org/2000/svg">
<g opacity="0.5">
<path d="M2 35.3289V46.0545" stroke="white" stroke-width="3" stroke-linecap="round"/>
<path d="M9 19.8365V59.7593" stroke="white" stroke-width="3" stroke-linecap="round"/>
<path d="M16 11.4945V67.5055" stroke="white" stroke-width="3" stroke-linecap="round"/>
<path d="M23 1.96072V77.0393" stroke="white" stroke-width="3" stroke-linecap="round"/>
<path d="M30 21.0283V59.1634" stroke="white" stroke-width="3" stroke-linecap="round"/>
<path d="M37 30.5621V50.8214" stroke="white" stroke-width="3" stroke-linecap="round"/>
<path d="M44 16.2614V65.122" stroke="white" stroke-width="3" stroke-linecap="round"/>
<path d="M51 23.4117V55.5883" stroke="white" stroke-width="3" stroke-linecap="round"/>
<path d="M58 12.6862V69.8889" stroke="white" stroke-width="3" stroke-linecap="round"/>
<path d="M65 16.2614V65.122" stroke="white" stroke-width="3" stroke-linecap="round"/>
<path d="M72 24.6035V56.78" stroke="white" stroke-width="3" stroke-linecap="round"/>
<path d="M79 37.7124V44.8627" stroke="white" stroke-width="3" stroke-linecap="round"/>
<path d="M86 35.3289V47.2462" stroke="white" stroke-width="3" stroke-linecap="round"/>
<path d="M93 37.7124V44.8627" stroke="white" stroke-width="3" stroke-linecap="round"/>
<path d="M100 29.3704V53.2048" stroke="white" stroke-width="3" stroke-linecap="round"/>
<path d="M107 32.9455V48.4379" stroke="white" stroke-width="3" stroke-linecap="round"/>
<path d="M114 19.8365V61.5468" stroke="white" stroke-width="3" stroke-linecap="round"/>
<path d="M121 24.6035V56.78" stroke="white" stroke-width="3" stroke-linecap="round"/>
<path d="M128 36.5207V47.2462" stroke="white" stroke-width="3" stroke-linecap="round"/>
<path d="M135 31.7538V52.0131" stroke="white" stroke-width="3" stroke-linecap="round"/>
<path d="M142 17.4531V66.3138" stroke="white" stroke-width="3" stroke-linecap="round"/>
<path d="M149 24.6035V56.78" stroke="white" stroke-width="3" stroke-linecap="round"/>
<path d="M156 13.878V71.0807" stroke="white" stroke-width="3" stroke-linecap="round"/>
<path d="M163 17.4531V66.3138" stroke="white" stroke-width="3" stroke-linecap="round"/>
<path d="M170 25.7952V57.9717" stroke="white" stroke-width="3" stroke-linecap="round"/>
<path d="M177 38.9041V46.0545" stroke="white" stroke-width="3" stroke-linecap="round"/>
<path d="M184 36.5207V48.4379" stroke="white" stroke-width="3" stroke-linecap="round"/>
<path d="M191 30.5621V54.3965" stroke="white" stroke-width="3" stroke-linecap="round"/>
<path d="M198 34.1372V49.6296" stroke="white" stroke-width="3" stroke-linecap="round"/>
<path d="M205 21.0283V62.7386" stroke="white" stroke-width="3" stroke-linecap="round"/>
<path d="M212 25.7952V57.9717" stroke="white" stroke-width="3" stroke-linecap="round"/>
<path d="M219 37.7124V47.2462" stroke="white" stroke-width="3" stroke-linecap="round"/>
<path d="M226 38.9041V46.0545" stroke="white" stroke-width="3" stroke-linecap="round"/>
<path d="M233 40.0958V44.8627" stroke="white" stroke-width="3" stroke-linecap="round"/>
<path d="M240 41.2876V43.671" stroke="white" stroke-width="3" stroke-linecap="round"/>
<path d="M247 40.0958V44.8627" stroke="white" stroke-width="3" stroke-linecap="round"/>
<path d="M254 37.7124V47.2462" stroke="white" stroke-width="3" stroke-linecap="round"/>
<path d="M261 25.7952V57.9717" stroke="white" stroke-width="3" stroke-linecap="round"/>
<path d="M268 29.3704V54.3965" stroke="white" stroke-width="3" stroke-linecap="round"/>
<path d="M275 32.9455V50.8214" stroke="white" stroke-width="3" stroke-linecap="round"/>
<path d="M282 41.2876V43.671" stroke="white" stroke-width="3" stroke-linecap="round"/>
</g>
</svg>
