<svg width="12" height="12" viewBox="0 0 12 12" fill="none" xmlns="http://www.w3.org/2000/svg">
<path fill-rule="evenodd" clip-rule="evenodd" d="M1 7.30454C1.55228 7.30454 2 7.75225 2 8.30454V9.34999C2 9.62613 2.22386 9.84999 2.5 9.84999H8.83333C9.10948 9.84999 9.33333 9.62613 9.33333 9.34999V8.30454C9.33333 7.75225 9.78105 7.30454 10.3333 7.30454C10.8856 7.30454 11.3333 7.75225 11.3333 8.30454V9.34999C11.3333 10.7307 10.214 11.85 8.83333 11.85H2.5C1.11928 11.85 0 10.7307 0 9.34999V8.30454C0 7.75225 0.447715 7.30454 1 7.30454ZM4.81761 8.02179C5.28624 8.49042 6.04603 8.49042 6.51466 8.02179L8.49445 6.042C8.88498 5.65147 8.88498 5.01831 8.49445 4.62778C8.10393 4.23726 7.47076 4.23726 7.08024 4.62778L6.66699 5.04103V0.999999C6.66699 0.447714 6.21928 -9.53674e-07 5.66699 -9.53674e-07C5.11471 -9.53674e-07 4.66699 0.447714 4.66699 0.999999V5.04275L4.25203 4.62778C3.8615 4.23726 3.22834 4.23726 2.83782 4.62778C2.44729 5.01831 2.44729 5.65147 2.83782 6.042L4.81761 8.02179Z" fill="#107EFF"/>
</svg>
