<svg width="19" height="15" viewBox="0 0 19 15" fill="none" xmlns="http://www.w3.org/2000/svg">
<path fill-rule="evenodd" clip-rule="evenodd" d="M8.68493 3.01724L4.67621 6.05652C4.15496 6.45172 3.51904 6.66559 2.86522 6.66559H2.20703V8.33441H2.86522C3.51904 8.33441 4.15496 8.54828 4.67621 8.94348L8.68493 11.9828V3.01724ZM3.46888 4.45998C3.29513 4.59171 3.08316 4.663 2.86522 4.663H1.20703C0.654746 4.663 0.207031 5.11129 0.207031 5.66429V9.33571C0.207031 9.88871 0.654747 10.337 1.20703 10.337H2.86522C3.08316 10.337 3.29513 10.4083 3.46888 10.54L9.08126 14.7952C9.73991 15.2945 10.6849 14.8241 10.6849 13.9969V1.00312C10.6849 0.175893 9.73991 -0.294516 9.08126 0.20485L3.46888 4.45998Z" fill="white"/>
<path fill-rule="evenodd" clip-rule="evenodd" d="M14.1914 3.99229C14.3965 3.47888 14.9786 3.22923 15.4913 3.43469C17.0906 4.0755 18.2068 5.6617 18.2068 7.49994C18.2068 9.33817 17.0906 10.9244 15.4913 11.5652C14.9786 11.7706 14.3965 11.521 14.1914 11.0076C13.9862 10.4942 14.2355 9.91141 14.7482 9.70595C15.5922 9.36776 16.2068 8.51522 16.2068 7.49994C16.2068 6.48465 15.5922 5.63211 14.7482 5.29393C14.2355 5.08847 13.9862 4.50571 14.1914 3.99229Z" fill="white"/>
<path fill-rule="evenodd" clip-rule="evenodd" d="M11.4849 5.64666C11.6634 5.12335 12.2318 4.84405 12.7545 5.02282C13.7754 5.37202 14.6238 6.29499 14.6238 7.4999C14.6238 8.70482 13.7754 9.62779 12.7545 9.97699C12.2318 10.1558 11.6634 9.87646 11.4849 9.35315C11.3063 8.82984 11.5853 8.2607 12.1079 8.08193C12.4831 7.95358 12.6238 7.68694 12.6238 7.4999C12.6238 7.31287 12.4831 7.04623 12.1079 6.91788C11.5853 6.73911 11.3063 6.16996 11.4849 5.64666Z" fill="white"/>
</svg>
