<svg width="12" height="13" viewBox="0 0 12 13" fill="none" xmlns="http://www.w3.org/2000/svg">
<path fill-rule="evenodd" clip-rule="evenodd" d="M8.40893 0.500011C8.8144 0.498923 9.21622 0.577089 9.59134 0.730152C9.96646 0.883219 10.3077 1.10824 10.5952 1.39256C10.8827 1.67689 11.1108 2.01492 11.2662 2.38736C11.4216 2.75981 11.5011 3.15917 11.5 3.56241C11.4989 3.96565 11.4171 4.36456 11.2597 4.73615C11.1024 5.10729 10.8727 5.4437 10.5841 5.72624C10.5837 5.72657 10.5834 5.7269 10.583 5.72723L4.40397 11.8376C4.19125 12.048 3.93902 12.2146 3.66183 12.3281C3.38465 12.4416 3.08775 12.5 2.78805 12.5C2.48836 12.5 2.19146 12.4416 1.91428 12.3281C1.63708 12.2146 1.38486 12.048 1.17214 11.8377C0.959417 11.6273 0.790371 11.3773 0.674934 11.1017C0.559492 10.8261 0.5 10.5305 0.5 10.2319C0.5 9.93324 0.559492 9.63766 0.674934 9.36206C0.790372 9.08648 0.959419 8.83645 1.17215 8.62609L6.51199 3.34576C6.79287 3.07043 7.17145 2.91731 7.56458 2.91817C7.95772 2.91902 8.33562 3.07378 8.6153 3.35034C8.89516 3.62708 9.05381 4.00337 9.05468 4.39719C9.05555 4.791 8.89857 5.16799 8.61992 5.44596L8.61836 5.44752L5.38717 8.64249C5.19081 8.83665 4.87424 8.83487 4.68008 8.63851C4.48592 8.44215 4.4877 8.12557 4.68406 7.93141L7.91368 4.73799C7.91391 4.73777 7.91346 4.73822 7.91368 4.73799C8.00449 4.64705 8.05496 4.52482 8.05468 4.3994C8.0544 4.27367 8.00382 4.15202 7.91217 4.0614C7.82033 3.97058 7.69468 3.91845 7.56242 3.91816C7.43047 3.91788 7.30486 3.96922 7.21267 4.05925C7.21245 4.05947 7.21289 4.05903 7.21267 4.05925L1.87528 9.33715C1.75593 9.45517 1.66156 9.59497 1.59728 9.74842C1.53301 9.90187 1.5 10.0661 1.5 10.2319C1.5 10.3976 1.53301 10.5619 1.59728 10.7153C1.66156 10.8688 1.75593 11.0086 1.87528 11.1266C1.99463 11.2446 2.13664 11.3385 2.29332 11.4027C2.45 11.4669 2.61813 11.5 2.78805 11.5C2.95798 11.5 3.12611 11.4669 3.28279 11.4027C3.43947 11.3385 3.58147 11.2446 3.70082 11.1266L9.88384 5.0123C10.0787 4.82169 10.2333 4.59519 10.3389 4.34595C10.4445 4.09671 10.4992 3.8295 10.5 3.55961C10.5007 3.28972 10.4476 3.02221 10.3433 2.77242C10.2391 2.5226 10.0858 2.29526 9.89201 2.1036C9.69819 1.91193 9.46766 1.75973 9.21354 1.65604C8.9594 1.55234 8.68685 1.49927 8.41161 1.50001C8.13637 1.50075 7.86412 1.55528 7.61056 1.66034C7.35702 1.76539 7.12734 1.91881 6.93458 2.11152L6.93264 2.11345L2.85849 6.14199C2.66213 6.33615 2.34556 6.33437 2.1514 6.13801C1.95724 5.94165 1.95902 5.62507 2.15538 5.43091L6.22758 1.4043C6.22791 1.40397 6.22824 1.40365 6.22857 1.40332C6.51431 1.11792 6.85393 0.891402 7.22778 0.736499C7.60206 0.581422 8.00345 0.501099 8.40893 0.500011Z" fill="#107EFF"/>
</svg>
