<svg width="19" height="15" viewBox="0 0 19 15" fill="none" xmlns="http://www.w3.org/2000/svg">
<path fill-rule="evenodd" clip-rule="evenodd" d="M8.47765 3.01334L4.46893 6.0487C3.94768 6.44338 3.31176 6.65698 2.65795 6.65698H1.99976V8.32364H2.65795C3.31176 8.32364 3.94768 8.53724 4.46893 8.93192L8.47765 11.9673V3.01334ZM3.26161 4.45422C3.08786 4.58578 2.87589 4.65698 2.65795 4.65698H0.999756C0.447471 4.65698 -0.000244141 5.10469 -0.000244141 5.65698V9.32364C-0.000244141 9.87593 0.447471 10.3236 0.999756 10.3236H2.65795C2.87589 10.3236 3.08786 10.3948 3.26161 10.5264L8.87399 14.776C9.53264 15.2748 10.4776 14.805 10.4776 13.9788V1.00182C10.4776 0.175666 9.53263 -0.294136 8.87399 0.204585L3.26161 4.45422Z" fill="white"/>
<path fill-rule="evenodd" clip-rule="evenodd" d="M16.7926 4.28325C17.1832 3.89273 17.8163 3.89273 18.2069 4.28325C18.5974 4.67377 18.5974 5.30694 18.2069 5.69746L16.664 7.24036L18.2069 8.78325C18.5974 9.17377 18.5974 9.80694 18.2069 10.1975C17.8163 10.588 17.1832 10.588 16.7926 10.1975L15.2498 8.65457L13.7069 10.1975C13.3163 10.588 12.6832 10.588 12.2926 10.1975C11.9021 9.80694 11.9021 9.17377 12.2926 8.78325L13.8355 7.24036L12.2926 5.69746C11.9021 5.30694 11.9021 4.67377 12.2926 4.28325C12.6832 3.89273 13.3163 3.89273 13.7069 4.28325L15.2498 5.82614L16.7926 4.28325Z" fill="white"/>
</svg>
