<svg width="22" height="22" viewBox="0 0 22 22" fill="none" xmlns="http://www.w3.org/2000/svg">
<path d="M17.4167 21.0833H4.58333C4.07707 21.0833 3.66667 20.6729 3.66667 20.1667V1.83333C3.66667 1.32707 4.07707 0.916667 4.58333 0.916667H13.603C13.8275 0.916667 14.0442 0.999056 14.212 1.14821L14.8085 0.477065L14.212 1.14821L18.0257 4.53816C18.2214 4.71212 18.3333 4.96145 18.3333 5.22329V20.1667C18.3333 20.6729 17.9229 21.0833 17.4167 21.0833Z" stroke="#96AECD" stroke-width="1.83333"/>
<rect y="6.41666" width="22" height="11.9167" rx="1.83333" fill="#96AECD"/>
<path d="M6.61328 14.001H9.41699V15.0886H4.84888V14.3434L7.64453 10.3151H4.83276V9.22339H9.38879V9.94849L6.61328 14.001ZM11.5681 15.0886H10.1582V9.22339H11.5681V15.0886ZM13.965 13.0986V15.0886H12.551V9.22339H14.8915C15.34 9.22339 15.7361 9.30664 16.0798 9.47314C16.4263 9.63696 16.6935 9.87195 16.8815 10.1781C17.0721 10.4816 17.1675 10.8267 17.1675 11.2134C17.1675 11.7854 16.962 12.2433 16.5511 12.587C16.1429 12.9281 15.5817 13.0986 14.8673 13.0986H13.965ZM13.965 12.007H14.8915C15.1654 12.007 15.3735 11.9385 15.5159 11.8015C15.6609 11.6646 15.7334 11.4712 15.7334 11.2214C15.7334 10.9475 15.6595 10.7286 15.5118 10.5648C15.3641 10.401 15.1627 10.3177 14.9076 10.3151H13.965V12.007Z" fill="white"/>
</svg>
