<svg width="14" height="14" viewBox="0 0 14 14" fill="none" xmlns="http://www.w3.org/2000/svg">
<path fill-rule="evenodd" clip-rule="evenodd" d="M8.00014 1C8.00014 0.447716 7.55242 0 7.00014 0C6.44785 0 6.00014 0.447716 6.00014 1V5.65683H1.34326C0.790976 5.65683 0.343262 6.10455 0.343262 6.65683C0.343262 7.20912 0.790976 7.65683 1.34326 7.65683H6.00014V12.3137C6.00014 12.866 6.44785 13.3137 7.00014 13.3137C7.55242 13.3137 8.00014 12.866 8.00014 12.3137V7.65683H12.657C13.2093 7.65683 13.657 7.20912 13.657 6.65683C13.657 6.10455 13.2093 5.65683 12.657 5.65683H8.00014V1Z" fill="#95AECD"/>
</svg>
