<svg width="14" height="16" viewBox="0 0 14 16" fill="none" xmlns="http://www.w3.org/2000/svg">
<path fill-rule="evenodd" clip-rule="evenodd" d="M5.89735 0C5.77071 0 5.64878 0.0480592 5.55619 0.134472L5.12762 0.534473C5.04478 0.611788 4.99629 0.704455 4.97722 0.799988H3.80078H1.90079C1.34828 0.799988 0.900391 1.24788 0.900391 1.80038C0.900391 2.31914 1.29523 2.74567 1.80079 2.79585L1.80078 2.79999V14C1.80078 15.1046 2.69621 16 3.80078 16H11.0008C12.1054 16 13.0008 15.1046 13.0008 14V2.79999L13.0008 2.79577C13.506 2.74523 13.9004 2.31887 13.9004 1.80038C13.9004 1.24788 13.4525 0.799988 12.9 0.799988H11.0008H9.88462C9.86648 0.709643 9.82194 0.621669 9.74672 0.546447L9.34672 0.146447C9.25295 0.0526784 9.12577 0 8.99316 0H5.89735ZM11.0008 2.80078H3.80078L3.80078 14L11.0008 14L11.0008 2.80078ZM6.90039 5.10986C6.90039 4.55758 6.45268 4.10986 5.90039 4.10986C5.34811 4.10986 4.90039 4.55758 4.90039 5.10986V11.7483C4.90039 12.3005 5.34811 12.7483 5.90039 12.7483C6.45268 12.7483 6.90039 12.3005 6.90039 11.7483V5.10986ZM8.90137 4.10986C9.45365 4.10986 9.90137 4.55758 9.90137 5.10986V11.7483C9.90137 12.3005 9.45365 12.7483 8.90137 12.7483C8.34908 12.7483 7.90137 12.3005 7.90137 11.7483V5.10986C7.90137 4.55758 8.34908 4.10986 8.90137 4.10986Z" fill="#107EFF"/>
</svg>
