<svg width="14" height="14" viewBox="0 0 14 14" fill="none" xmlns="http://www.w3.org/2000/svg">
<circle cx="7" cy="7" r="7" fill="#107CFA"/>
<path fill-rule="evenodd" clip-rule="evenodd" d="M4.17574 4.17574C4.41005 3.94142 4.78995 3.94142 5.02426 4.17574L9.82426 8.97574C10.0586 9.21005 10.0586 9.58995 9.82426 9.82426C9.58995 10.0586 9.21005 10.0586 8.97574 9.82426L4.17574 5.02426C3.94142 4.78995 3.94142 4.41005 4.17574 4.17574Z" fill="white"/>
<path fill-rule="evenodd" clip-rule="evenodd" d="M9.82426 4.17574C9.58995 3.94142 9.21005 3.94142 8.97574 4.17574L4.17574 8.97574C3.94142 9.21005 3.94142 9.58995 4.17574 9.82426C4.41005 10.0586 4.78995 10.0586 5.02426 9.82426L9.82426 5.02426C10.0586 4.78995 10.0586 4.41005 9.82426 4.17574Z" fill="white"/>
</svg>
