<svg width="21" height="20" viewBox="0 0 21 20" fill="none" xmlns="http://www.w3.org/2000/svg">
<path fill-rule="evenodd" clip-rule="evenodd" d="M17.2824 5.88916L14.2217 2.82843L13.1414 3.90869L16.2022 6.96942L17.2824 5.88916ZM14.7879 8.38364L11.7272 5.3229L5.27179 11.7783L8.33252 14.8391L14.7879 8.38364ZM15.6359 1.41421C14.8548 0.633165 13.5885 0.633164 12.8075 1.41421L3.85757 10.3641C3.07652 11.1452 3.07652 12.4115 3.85757 13.1925L4.03508 13.37L3.95096 14.4884L3.84267 15.9283C3.8284 16.118 3.99202 16.2729 4.18065 16.2483L6.59787 15.9328L6.91831 16.2533C7.69935 17.0343 8.96568 17.0343 9.74673 16.2533L18.6966 7.30337C19.4777 6.52233 19.4777 5.256 18.6966 4.47495L15.6359 1.41421Z" fill="#107EFF"/>
</svg>
