<svg width="10" height="9" viewBox="0 0 10 9" fill="none" xmlns="http://www.w3.org/2000/svg">
<path fill-rule="evenodd" clip-rule="evenodd" d="M9.80952 7.11378C9.80952 7.94221 9.13795 8.61378 8.30952 8.61378H1.5C0.671573 8.61378 0 7.94221 0 7.11378V2.98565C0 2.15722 0.671573 1.48565 1.5 1.48565H2.22355C2.47152 1.48565 2.71064 1.39352 2.89451 1.22715L3.55191 0.632285C3.73577 0.465908 3.9749 0.373779 4.22287 0.373779H5.93861C6.17086 0.373779 6.39586 0.454616 6.57501 0.602415L7.36844 1.25702C7.54759 1.40482 7.77259 1.48565 8.00483 1.48565H8.30952C9.13795 1.48565 9.80952 2.15722 9.80952 2.98565V7.11378ZM6.51333 4.68995C6.51333 5.53511 5.8282 6.22024 4.98304 6.22024C4.13789 6.22024 3.45276 5.53511 3.45276 4.68995C3.45276 3.8448 4.13789 3.15967 4.98304 3.15967C5.8282 3.15967 6.51333 3.8448 6.51333 4.68995Z" fill="white"/>
</svg>
