<svg width="10" height="9" viewBox="0 0 10 9" fill="none" xmlns="http://www.w3.org/2000/svg">
<path fill-rule="evenodd" clip-rule="evenodd" d="M9.80952 7.11387C9.80952 7.9423 9.13795 8.61387 8.30952 8.61387H1.5C0.671573 8.61387 0 7.9423 0 7.11387V2.98574C0 2.15732 0.671573 1.48574 1.5 1.48574H2.22355C2.47152 1.48574 2.71064 1.39361 2.89451 1.22724L3.55191 0.632376C3.73577 0.466 3.9749 0.373871 4.22287 0.373871H5.93861C6.17086 0.373871 6.39586 0.454707 6.57501 0.602506L7.36844 1.25711C7.54759 1.40491 7.77259 1.48574 8.00483 1.48574H8.30952C9.13795 1.48574 9.80952 2.15732 9.80952 2.98574V7.11387ZM6.51333 4.69006C6.51333 5.53521 5.8282 6.22035 4.98304 6.22035C4.13789 6.22035 3.45276 5.53521 3.45276 4.69006C3.45276 3.84491 4.13789 3.15977 4.98304 3.15977C5.8282 3.15977 6.51333 3.84491 6.51333 4.69006Z" fill="#43DD9C"/>
</svg>
