<svg width="14" height="14" viewBox="0 0 14 14" fill="none" xmlns="http://www.w3.org/2000/svg">
<path fill-rule="evenodd" clip-rule="evenodd" d="M8.05161 1.05155C8.05161 0.470794 7.58081 -4.43251e-08 7.00005 0C6.41928 -4.43251e-08 5.94848 0.470794 5.94848 1.05155V5.94843H1.05132C0.470558 5.94843 -0.00024485 6.41922 -0.000244141 6.99998C-0.00024485 7.58073 0.470558 8.05153 1.05132 8.05152H5.94848V12.9485C5.94848 13.5292 6.41928 14 7.00005 14C7.58081 14 8.05161 13.5292 8.05161 12.9485V8.05153H12.9485C13.5292 8.05153 14 7.58073 14 6.99998C14 6.41922 13.5292 5.94843 12.9485 5.94843H8.05161V1.05155Z" fill="#95AECD"/>
</svg>
