<svg xmlns="http://www.w3.org/2000/svg">

  <symbol id="bell-icon">
    <path d="M7.6001 21.4286C7.6001 22.7419 8.67646 23.8095 10.0001 23.8095C11.3239 23.8095 12.4001 22.7419 12.4001 21.4286" stroke="#107EFF" stroke-width="2"/>
    <path d="M1.76556 21.0239C1.34536 21.0239 1.01562 20.6854 1.01562 20.2878C1.01562 20.0754 1.10799 19.8733 1.27314 19.732C3.01696 18.2689 4.01562 16.1374 4.01562 13.8772V11.1111C4.01562 7.84168 6.70046 5.16675 10.0156 5.16675C13.3309 5.16675 16.0157 7.8417 16.0157 11.1111V13.8772C16.0157 16.1372 17.0143 18.2695 18.7495 19.7263C18.926 19.8762 19.0157 20.0788 19.0157 20.2878C19.0157 20.6853 18.686 21.0239 18.2656 21.0239H1.76556Z" fill="#E8F3FF" stroke="#107EFF" stroke-width="2"/>
    <path d="M10 4.91076V1.93457" stroke="#107EFF" stroke-width="2" stroke-linecap="round"/>
  </symbol>
  
  <symbol id="plas-icon" >
    <circle cx="7" cy="7" r="7" fill="white"/>
    <path d="M7 4V10" stroke="#107EFF" stroke-width="2" stroke-linecap="round"/>
    <path d="M10 7L4 7" stroke="#107EFF" stroke-width="2" stroke-linecap="round"/>
  </symbol>

  <symbol id="audio-icon">
    <path d="M1.64958 3C1.87665 3 2.09696 2.92272 2.27428 2.78087L5.37567 0.299759C6.03043 -0.224052 7.00036 0.242121 7.00036 1.08063V8.91938C7.00036 9.75788 6.03043 10.2241 5.37567 9.70025L2.27428 7.21913C2.09696 7.07728 1.87665 7 1.64958 7H1C0.447716 7 0 6.55229 0 6V4C0 3.44772 0.447715 3 1 3H1.64958Z"/>
  </symbol>

  <symbol id="photo-icon">
    <path fill-rule="evenodd" clip-rule="evenodd" d="M9.80952 7.11387C9.80952 7.9423 9.13795 8.61387 8.30952 8.61387H1.5C0.671573 8.61387 0 7.9423 0 7.11387V2.98574C0 2.15732 0.671573 1.48574 1.5 1.48574H2.22355C2.47152 1.48574 2.71064 1.39361 2.89451 1.22724L3.55191 0.632376C3.73577 0.466 3.9749 0.373871 4.22287 0.373871H5.93861C6.17086 0.373871 6.39586 0.454707 6.57501 0.602506L7.36844 1.25711C7.54759 1.40491 7.77259 1.48574 8.00483 1.48574H8.30952C9.13795 1.48574 9.80952 2.15732 9.80952 2.98574V7.11387ZM6.51333 4.69006C6.51333 5.53521 5.8282 6.22035 4.98304 6.22035C4.13789 6.22035 3.45276 5.53521 3.45276 4.69006C3.45276 3.84491 4.13789 3.15977 4.98304 3.15977C5.8282 3.15977 6.51333 3.84491 6.51333 4.69006Z"/>
  </symbol>

  <symbol id="video-icon">
    <path d="M5.86077 5.81373C6.41912 5.41491 6.41912 4.58508 5.86077 4.18626L1.58124 1.12945C0.91937 0.656688 0 1.12981 0 1.94318V8.05681C0 8.87018 0.91937 9.3433 1.58124 8.87054L5.86077 5.81373Z"/>
  </symbol>

  <symbol id="calendar-icon-gray" >
    <path fill-rule="evenodd" clip-rule="evenodd" d="M13.75 1.27273H1.25L1.25 12.7273H13.75V1.27273ZM1.25 0C0.559644 0 0 0.569819 0 1.27273V12.7273C0 13.4302 0.559644 14 1.25 14H13.75C14.4404 14 15 13.4302 15 12.7273V1.27273C15 0.569819 14.4404 0 13.75 0H1.25Z" fill="#96AECD"/>
    <path d="M2.5 3.18182C1.75 3.18182 1.35417 4.0303 1.25 4.45455H0L0.625 0.636364H14.375L15 4.45455H13.75C13.75 3.69091 13.125 3.18182 12.5 3.18182H2.5Z" fill="#96AECD"/>
    <path d="M5.625 6.36364C5.625 7.06654 5.06536 7.63636 4.375 7.63636C3.68464 7.63636 3.125 7.06654 3.125 6.36364C3.125 5.66073 3.68464 5.09091 4.375 5.09091C5.06536 5.09091 5.625 5.66073 5.625 6.36364Z" fill="#96AECD"/>
    <path d="M8.125 6.36364C8.125 6.71509 7.84518 7 7.5 7C7.15482 7 6.875 6.71509 6.875 6.36364C6.875 6.01218 7.15482 5.72727 7.5 5.72727C7.84518 5.72727 8.125 6.01218 8.125 6.36364Z" fill="#96AECD"/>
    <path d="M11.25 6.36364C11.25 6.71509 10.9702 7 10.625 7C10.2798 7 10 6.71509 10 6.36364C10 6.01218 10.2798 5.72727 10.625 5.72727C10.9702 5.72727 11.25 6.01218 11.25 6.36364Z" fill="#96AECD"/>
    <path d="M8.125 9.54545C8.125 9.89691 7.84518 10.1818 7.5 10.1818C7.15482 10.1818 6.875 9.89691 6.875 9.54545C6.875 9.194 7.15482 8.90909 7.5 8.90909C7.84518 8.90909 8.125 9.194 8.125 9.54545Z" fill="#96AECD"/>
    <path d="M5 9.54545C5 9.89691 4.72018 10.1818 4.375 10.1818C4.02982 10.1818 3.75 9.89691 3.75 9.54545C3.75 9.194 4.02982 8.90909 4.375 8.90909C4.72018 8.90909 5 9.194 5 9.54545Z" fill="#96AECD"/>
    <path d="M11.25 9.54545C11.25 9.89691 10.9702 10.1818 10.625 10.1818C10.2798 10.1818 10 9.89691 10 9.54545C10 9.194 10.2798 8.90909 10.625 8.90909C10.9702 8.90909 11.25 9.194 11.25 9.54545Z" fill="#96AECD"/>
  </symbol>

  <symbol id="edit-icon">
    <path fill-rule="evenodd" clip-rule="evenodd" d="M17.2824 5.88916L14.2217 2.82843L13.1414 3.90869L16.2022 6.96942L17.2824 5.88916ZM14.7879 8.38364L11.7272 5.3229L5.27179 11.7783L8.33252 14.8391L14.7879 8.38364ZM15.6359 1.41421C14.8548 0.633165 13.5885 0.633164 12.8075 1.41421L3.85757 10.3641C3.07652 11.1452 3.07652 12.4115 3.85757 13.1925L4.03508 13.37L3.95096 14.4884L3.84267 15.9283C3.8284 16.118 3.99202 16.2729 4.18065 16.2483L6.59787 15.9328L6.91831 16.2533C7.69935 17.0343 8.96568 17.0343 9.74673 16.2533L18.6966 7.30337C19.4777 6.52233 19.4777 5.256 18.6966 4.47495L15.6359 1.41421Z"/>
  </symbol>

  <symbol id="bin-icon">
    <path fill-rule="evenodd" clip-rule="evenodd" d="M5.89735 0C5.77071 0 5.64878 0.0480592 5.55619 0.134472L5.12762 0.534473C5.04478 0.611788 4.99629 0.704455 4.97722 0.799988H3.80078H1.90079C1.34828 0.799988 0.900391 1.24788 0.900391 1.80038C0.900391 2.31914 1.29523 2.74567 1.80079 2.79585L1.80078 2.79999V14C1.80078 15.1046 2.69621 16 3.80078 16H11.0008C12.1054 16 13.0008 15.1046 13.0008 14V2.79999L13.0008 2.79577C13.506 2.74523 13.9004 2.31887 13.9004 1.80038C13.9004 1.24788 13.4525 0.799988 12.9 0.799988H11.0008H9.88462C9.86648 0.709643 9.82194 0.621669 9.74672 0.546447L9.34672 0.146447C9.25295 0.0526784 9.12577 0 8.99316 0H5.89735ZM11.0008 2.80078H3.80078L3.80078 14L11.0008 14L11.0008 2.80078ZM6.90039 5.10986C6.90039 4.55758 6.45268 4.10986 5.90039 4.10986C5.34811 4.10986 4.90039 4.55758 4.90039 5.10986V11.7483C4.90039 12.3005 5.34811 12.7483 5.90039 12.7483C6.45268 12.7483 6.90039 12.3005 6.90039 11.7483V5.10986ZM8.90137 4.10986C9.45365 4.10986 9.90137 4.55758 9.90137 5.10986V11.7483C9.90137 12.3005 9.45365 12.7483 8.90137 12.7483C8.34908 12.7483 7.90137 12.3005 7.90137 11.7483V5.10986C7.90137 4.55758 8.34908 4.10986 8.90137 4.10986Z"/>
  </symbol>

  <symbol id="arrow-left">
    <path d="M492,236H68.442l70.164-69.824c7.829-7.792,7.859-20.455,0.067-28.284c-7.792-7.83-20.456-7.859-28.285-0.068
			l-104.504,104c-0.007,0.006-0.012,0.013-0.018,0.019c-7.809,7.792-7.834,20.496-0.002,28.314c0.007,0.006,0.012,0.013,0.018,0.019
			l104.504,104c7.828,7.79,20.492,7.763,28.285-0.068c7.792-7.829,7.762-20.492-0.067-28.284L68.442,276H492
			c11.046,0,20-8.954,20-20C512,244.954,503.046,236,492,236z"/>
  </symbol>

  <symbol id="upload-icon">
    <path fill-rule="evenodd" clip-rule="evenodd" d="M1.33398 8.18141C1.88627 8.18141 2.33398 8.62913 2.33398 9.18141V10.2269C2.33398 10.503 2.55784 10.7269 2.83398 10.7269H9.16732C9.44346 10.7269 9.66732 10.503 9.66732 10.2269V9.18141C9.66732 8.62913 10.115 8.18141 10.6673 8.18141C11.2196 8.18141 11.6673 8.62913 11.6673 9.18141V10.2269C11.6673 11.6076 10.548 12.7269 9.16732 12.7269H2.83398C1.45327 12.7269 0.333984 11.6076 0.333984 10.2269V9.18141C0.333984 8.62913 0.7817 8.18141 1.33398 8.18141ZM5.15159 8.89867C5.62022 9.3673 6.38002 9.3673 6.84865 8.89867L8.82844 6.91888C9.21896 6.52835 9.21896 5.89519 8.82844 5.50466C8.43791 5.11414 7.80475 5.11414 7.41422 5.50466L7.00098 5.91791V1.87688C7.00098 1.32459 6.55326 0.876876 6.00098 0.876876C5.44869 0.876876 5.00098 1.32459 5.00098 1.87688V5.91963L4.58601 5.50466C4.19549 5.11414 3.56232 5.11414 3.1718 5.50466C2.78128 5.89519 2.78128 6.52835 3.1718 6.91888L5.15159 8.89867Z" fill="#107EFF"/>
  </symbol>
  
  <symbol id="zip-icon">
    <path d="M17.4167 21.0833H4.58333C4.07707 21.0833 3.66667 20.6729 3.66667 20.1667V1.83333C3.66667 1.32707 4.07707 0.916667 4.58333 0.916667H13.603C13.8275 0.916667 14.0442 0.999056 14.212 1.14821L14.8085 0.477065L14.212 1.14821L18.0257 4.53816C18.2214 4.71212 18.3333 4.96145 18.3333 5.22329V20.1667C18.3333 20.6729 17.9229 21.0833 17.4167 21.0833Z" stroke="#96AECD" stroke-width="1.83333"/>
    <rect y="6.41666" width="22" height="11.9167" rx="1.83333" fill="#96AECD"/>
    <path d="M6.61328 14.001H9.41699V15.0886H4.84888V14.3434L7.64453 10.3151H4.83276V9.22339H9.38879V9.94849L6.61328 14.001ZM11.5681 15.0886H10.1582V9.22339H11.5681V15.0886ZM13.965 13.0986V15.0886H12.551V9.22339H14.8915C15.34 9.22339 15.7361 9.30664 16.0798 9.47314C16.4263 9.63696 16.6935 9.87195 16.8815 10.1781C17.0721 10.4816 17.1675 10.8267 17.1675 11.2134C17.1675 11.7854 16.962 12.2433 16.5511 12.587C16.1429 12.9281 15.5817 13.0986 14.8673 13.0986H13.965ZM13.965 12.007H14.8915C15.1654 12.007 15.3735 11.9385 15.5159 11.8015C15.6609 11.6646 15.7334 11.4712 15.7334 11.2214C15.7334 10.9475 15.6595 10.7286 15.5118 10.5648C15.3641 10.401 15.1627 10.3177 14.9076 10.3151H13.965V12.007Z" fill="white"/>
  </symbol>

  <symbol id="doc-icon">
    <path d="M17.4167 21.0833H4.58333C4.07707 21.0833 3.66667 20.6729 3.66667 20.1667V1.83333C3.66667 1.32707 4.07707 0.916667 4.58333 0.916667H13.603C13.8275 0.916667 14.0442 0.999056 14.212 1.14821L14.8085 0.477065L14.212 1.14821L18.0257 4.53816C18.2214 4.71212 18.3333 4.96145 18.3333 5.22329V20.1667C18.3333 20.6729 17.9229 21.0833 17.4167 21.0833Z" stroke="#96AECD" stroke-width="1.83333"/>
    <rect y="6.41669" width="22" height="11.9167" rx="1.83333" fill="#96AECD"/>
    <path d="M3.22131 15.3333V9.46808H5.1106C5.62891 9.46808 6.09485 9.58624 6.50842 9.82257C6.922 10.0562 7.24426 10.3879 7.47522 10.8176C7.70886 11.2446 7.82703 11.7239 7.82971 12.2557V12.5256C7.82971 13.0627 7.71558 13.5447 7.4873 13.9717C7.26172 14.3961 6.94214 14.7291 6.52856 14.9708C6.11768 15.2098 5.65845 15.3306 5.15088 15.3333H3.22131ZM4.63525 10.5598V14.2457H5.12671C5.53223 14.2457 5.84375 14.102 6.06128 13.8146C6.27881 13.5246 6.38757 13.0949 6.38757 12.5256V12.2718C6.38757 11.7051 6.27881 11.2781 6.06128 10.9908C5.84375 10.7034 5.52686 10.5598 5.1106 10.5598H4.63525ZM13.5217 12.5215C13.5217 13.0936 13.4156 13.5998 13.2035 14.0402C12.9913 14.4807 12.6892 14.8204 12.2971 15.0594C11.9077 15.2957 11.4633 15.4139 10.9637 15.4139C10.4642 15.4139 10.0211 15.2997 9.6344 15.0715C9.24768 14.8405 8.94556 14.5115 8.72803 14.0845C8.51318 13.6575 8.40039 13.1674 8.38965 12.6142V12.2839C8.38965 11.7092 8.49438 11.2029 8.70386 10.7652C8.91602 10.3248 9.21814 9.98505 9.61023 9.74603C10.005 9.50702 10.4535 9.38751 10.9557 9.38751C11.4525 9.38751 11.8956 9.50568 12.285 9.742C12.6744 9.97833 12.9766 10.3154 13.1914 10.7531C13.4089 11.1882 13.519 11.6877 13.5217 12.2516V12.5215ZM12.0836 12.2758C12.0836 11.6931 11.9856 11.2513 11.7896 10.9505C11.5962 10.647 11.3182 10.4953 10.9557 10.4953C10.2467 10.4953 9.87207 11.027 9.83179 12.0905L9.82776 12.5215C9.82776 13.0963 9.9231 13.538 10.1138 13.8469C10.3044 14.1557 10.5878 14.3101 10.9637 14.3101C11.3209 14.3101 11.5962 14.1584 11.7896 13.8549C11.9829 13.5515 12.0809 13.1151 12.0836 12.5457V12.2758ZM18.9962 13.3474C18.9774 13.7556 18.8673 14.1168 18.6659 14.431C18.4645 14.7425 18.1812 14.9842 17.8159 15.1561C17.4534 15.3279 17.0385 15.4139 16.5712 15.4139C15.8004 15.4139 15.1935 15.1628 14.7504 14.6606C14.3073 14.1584 14.0857 13.4494 14.0857 12.5336V12.2436C14.0857 11.6689 14.1851 11.1667 14.3838 10.737C14.5852 10.3046 14.8739 9.97162 15.2499 9.73798C15.6259 9.50165 16.0609 9.38348 16.5551 9.38348C17.2667 9.38348 17.8387 9.57147 18.2711 9.94745C18.7035 10.3207 18.9492 10.8364 19.0083 11.4943H17.5984C17.5876 11.1371 17.4977 10.8807 17.3285 10.7249C17.1593 10.5692 16.9015 10.4913 16.5551 10.4913C16.2032 10.4913 15.9454 10.6229 15.7816 10.886C15.6178 11.1492 15.5319 11.5695 15.5238 12.1469V12.5618C15.5238 13.1876 15.6017 13.6347 15.7574 13.9033C15.9159 14.1718 16.1871 14.3061 16.5712 14.3061C16.8961 14.3061 17.1445 14.2296 17.3164 14.0765C17.4883 13.9234 17.5796 13.6804 17.5903 13.3474H18.9962Z" fill="white"/>
  </symbol>
</svg>