<svg xmlns="http://www.w3.org/2000/svg">

  <symbol id="bell-icon">
    <path d="M7.6001 21.4286C7.6001 22.7419 8.67646 23.8095 10.0001 23.8095C11.3239 23.8095 12.4001 22.7419 12.4001 21.4286" stroke="#107EFF" stroke-width="2"/>
    <path d="M1.76556 21.0239C1.34536 21.0239 1.01562 20.6854 1.01562 20.2878C1.01562 20.0754 1.10799 19.8733 1.27314 19.732C3.01696 18.2689 4.01562 16.1374 4.01562 13.8772V11.1111C4.01562 7.84168 6.70046 5.16675 10.0156 5.16675C13.3309 5.16675 16.0157 7.8417 16.0157 11.1111V13.8772C16.0157 16.1372 17.0143 18.2695 18.7495 19.7263C18.926 19.8762 19.0157 20.0788 19.0157 20.2878C19.0157 20.6853 18.686 21.0239 18.2656 21.0239H1.76556Z" fill="#E8F3FF" stroke="#107EFF" stroke-width="2"/>
    <path d="M10 4.91076V1.93457" stroke="#107EFF" stroke-width="2" stroke-linecap="round"/>
  </symbol>
  
  <symbol id="plas-icon" >
    <circle cx="7" cy="7" r="7" fill="white"/>
    <path d="M7 4V10" stroke="#107EFF" stroke-width="2" stroke-linecap="round"/>
    <path d="M10 7L4 7" stroke="#107EFF" stroke-width="2" stroke-linecap="round"/>
  </symbol>

  <symbol id="audio-icon">
    <path d="M1.64958 3C1.87665 3 2.09696 2.92272 2.27428 2.78087L5.37567 0.299759C6.03043 -0.224052 7.00036 0.242121 7.00036 1.08063V8.91938C7.00036 9.75788 6.03043 10.2241 5.37567 9.70025L2.27428 7.21913C2.09696 7.07728 1.87665 7 1.64958 7H1C0.447716 7 0 6.55229 0 6V4C0 3.44772 0.447715 3 1 3H1.64958Z"/>
  </symbol>

  <symbol id="photo-icon">
    <path fill-rule="evenodd" clip-rule="evenodd" d="M9.80952 7.11387C9.80952 7.9423 9.13795 8.61387 8.30952 8.61387H1.5C0.671573 8.61387 0 7.9423 0 7.11387V2.98574C0 2.15732 0.671573 1.48574 1.5 1.48574H2.22355C2.47152 1.48574 2.71064 1.39361 2.89451 1.22724L3.55191 0.632376C3.73577 0.466 3.9749 0.373871 4.22287 0.373871H5.93861C6.17086 0.373871 6.39586 0.454707 6.57501 0.602506L7.36844 1.25711C7.54759 1.40491 7.77259 1.48574 8.00483 1.48574H8.30952C9.13795 1.48574 9.80952 2.15732 9.80952 2.98574V7.11387ZM6.51333 4.69006C6.51333 5.53521 5.8282 6.22035 4.98304 6.22035C4.13789 6.22035 3.45276 5.53521 3.45276 4.69006C3.45276 3.84491 4.13789 3.15977 4.98304 3.15977C5.8282 3.15977 6.51333 3.84491 6.51333 4.69006Z"/>
  </symbol>

  <symbol id="video-icon">
    <path d="M5.86077 5.81373C6.41912 5.41491 6.41912 4.58508 5.86077 4.18626L1.58124 1.12945C0.91937 0.656688 0 1.12981 0 1.94318V8.05681C0 8.87018 0.91937 9.3433 1.58124 8.87054L5.86077 5.81373Z"/>
  </symbol>

  <symbol id="calendar-icon-gray" >
    <path fill-rule="evenodd" clip-rule="evenodd" d="M13.75 1.27273H1.25L1.25 12.7273H13.75V1.27273ZM1.25 0C0.559644 0 0 0.569819 0 1.27273V12.7273C0 13.4302 0.559644 14 1.25 14H13.75C14.4404 14 15 13.4302 15 12.7273V1.27273C15 0.569819 14.4404 0 13.75 0H1.25Z" fill="#96AECD"/>
    <path d="M2.5 3.18182C1.75 3.18182 1.35417 4.0303 1.25 4.45455H0L0.625 0.636364H14.375L15 4.45455H13.75C13.75 3.69091 13.125 3.18182 12.5 3.18182H2.5Z" fill="#96AECD"/>
    <path d="M5.625 6.36364C5.625 7.06654 5.06536 7.63636 4.375 7.63636C3.68464 7.63636 3.125 7.06654 3.125 6.36364C3.125 5.66073 3.68464 5.09091 4.375 5.09091C5.06536 5.09091 5.625 5.66073 5.625 6.36364Z" fill="#96AECD"/>
    <path d="M8.125 6.36364C8.125 6.71509 7.84518 7 7.5 7C7.15482 7 6.875 6.71509 6.875 6.36364C6.875 6.01218 7.15482 5.72727 7.5 5.72727C7.84518 5.72727 8.125 6.01218 8.125 6.36364Z" fill="#96AECD"/>
    <path d="M11.25 6.36364C11.25 6.71509 10.9702 7 10.625 7C10.2798 7 10 6.71509 10 6.36364C10 6.01218 10.2798 5.72727 10.625 5.72727C10.9702 5.72727 11.25 6.01218 11.25 6.36364Z" fill="#96AECD"/>
    <path d="M8.125 9.54545C8.125 9.89691 7.84518 10.1818 7.5 10.1818C7.15482 10.1818 6.875 9.89691 6.875 9.54545C6.875 9.194 7.15482 8.90909 7.5 8.90909C7.84518 8.90909 8.125 9.194 8.125 9.54545Z" fill="#96AECD"/>
    <path d="M5 9.54545C5 9.89691 4.72018 10.1818 4.375 10.1818C4.02982 10.1818 3.75 9.89691 3.75 9.54545C3.75 9.194 4.02982 8.90909 4.375 8.90909C4.72018 8.90909 5 9.194 5 9.54545Z" fill="#96AECD"/>
    <path d="M11.25 9.54545C11.25 9.89691 10.9702 10.1818 10.625 10.1818C10.2798 10.1818 10 9.89691 10 9.54545C10 9.194 10.2798 8.90909 10.625 8.90909C10.9702 8.90909 11.25 9.194 11.25 9.54545Z" fill="#96AECD"/>
  </symbol>

  <symbol id="edit-icon">
    <path fill-rule="evenodd" clip-rule="evenodd" d="M17.2824 5.88916L14.2217 2.82843L13.1414 3.90869L16.2022 6.96942L17.2824 5.88916ZM14.7879 8.38364L11.7272 5.3229L5.27179 11.7783L8.33252 14.8391L14.7879 8.38364ZM15.6359 1.41421C14.8548 0.633165 13.5885 0.633164 12.8075 1.41421L3.85757 10.3641C3.07652 11.1452 3.07652 12.4115 3.85757 13.1925L4.03508 13.37L3.95096 14.4884L3.84267 15.9283C3.8284 16.118 3.99202 16.2729 4.18065 16.2483L6.59787 15.9328L6.91831 16.2533C7.69935 17.0343 8.96568 17.0343 9.74673 16.2533L18.6966 7.30337C19.4777 6.52233 19.4777 5.256 18.6966 4.47495L15.6359 1.41421Z"/>
  </symbol>

  <symbol id="bin-icon">
    <path fill-rule="evenodd" clip-rule="evenodd" d="M5.89735 0C5.77071 0 5.64878 0.0480592 5.55619 0.134472L5.12762 0.534473C5.04478 0.611788 4.99629 0.704455 4.97722 0.799988H3.80078H1.90079C1.34828 0.799988 0.900391 1.24788 0.900391 1.80038C0.900391 2.31914 1.29523 2.74567 1.80079 2.79585L1.80078 2.79999V14C1.80078 15.1046 2.69621 16 3.80078 16H11.0008C12.1054 16 13.0008 15.1046 13.0008 14V2.79999L13.0008 2.79577C13.506 2.74523 13.9004 2.31887 13.9004 1.80038C13.9004 1.24788 13.4525 0.799988 12.9 0.799988H11.0008H9.88462C9.86648 0.709643 9.82194 0.621669 9.74672 0.546447L9.34672 0.146447C9.25295 0.0526784 9.12577 0 8.99316 0H5.89735ZM11.0008 2.80078H3.80078L3.80078 14L11.0008 14L11.0008 2.80078ZM6.90039 5.10986C6.90039 4.55758 6.45268 4.10986 5.90039 4.10986C5.34811 4.10986 4.90039 4.55758 4.90039 5.10986V11.7483C4.90039 12.3005 5.34811 12.7483 5.90039 12.7483C6.45268 12.7483 6.90039 12.3005 6.90039 11.7483V5.10986ZM8.90137 4.10986C9.45365 4.10986 9.90137 4.55758 9.90137 5.10986V11.7483C9.90137 12.3005 9.45365 12.7483 8.90137 12.7483C8.34908 12.7483 7.90137 12.3005 7.90137 11.7483V5.10986C7.90137 4.55758 8.34908 4.10986 8.90137 4.10986Z"/>
  </symbol>
</svg>