<svg xmlns="http://www.w3.org/2000/svg">
  
  <symbol id="icon-mes" >
    <path d="M1.76556 17.0239C1.34536 17.0239 1.01562 16.6854 1.01562 16.2878C1.01562 16.0754 1.10799 15.8733 1.27314 15.732C3.01696 14.2689 4.01562 12.1374 4.01562 9.87715V7.11113C4.01562 3.84168 6.70046 1.16675 10.0156 1.16675C13.3309 1.16675 16.0157 3.8417 16.0157 7.11113V9.87715C16.0157 12.1372 17.0143 14.2695 18.7495 15.7263C18.926 15.8762 19.0157 16.0788 19.0157 16.2878C19.0157 16.6853 18.686 17.0239 18.2656 17.0239H1.76556Z" fill="#E8F3FF" stroke="#107EFF" stroke-width="2"/>
  </symbol>

  <symbol id="audio-icon">
    <path d="M1.64958 3C1.87665 3 2.09696 2.92272 2.27428 2.78087L5.37567 0.299759C6.03043 -0.224052 7.00036 0.242121 7.00036 1.08063V8.91938C7.00036 9.75788 6.03043 10.2241 5.37567 9.70025L2.27428 7.21913C2.09696 7.07728 1.87665 7 1.64958 7H1C0.447716 7 0 6.55229 0 6V4C0 3.44772 0.447715 3 1 3H1.64958Z" fill="#FFAC2F"/>
  </symbol>

  <symbol id="photo-icon">
    <path fill-rule="evenodd" clip-rule="evenodd" d="M9.80952 7.11387C9.80952 7.9423 9.13795 8.61387 8.30952 8.61387H1.5C0.671573 8.61387 0 7.9423 0 7.11387V2.98574C0 2.15732 0.671573 1.48574 1.5 1.48574H2.22355C2.47152 1.48574 2.71064 1.39361 2.89451 1.22724L3.55191 0.632376C3.73577 0.466 3.9749 0.373871 4.22287 0.373871H5.93861C6.17086 0.373871 6.39586 0.454707 6.57501 0.602506L7.36844 1.25711C7.54759 1.40491 7.77259 1.48574 8.00483 1.48574H8.30952C9.13795 1.48574 9.80952 2.15732 9.80952 2.98574V7.11387ZM6.51333 4.69006C6.51333 5.53521 5.8282 6.22035 4.98304 6.22035C4.13789 6.22035 3.45276 5.53521 3.45276 4.69006C3.45276 3.84491 4.13789 3.15977 4.98304 3.15977C5.8282 3.15977 6.51333 3.84491 6.51333 4.69006Z" fill="#43DD9C"/>
  </symbol>

  <symbol id="video-icon">
    <path d="M5.86077 5.81373C6.41912 5.41491 6.41912 4.58508 5.86077 4.18626L1.58124 1.12945C0.91937 0.656688 0 1.12981 0 1.94318V8.05681C0 8.87018 0.91937 9.3433 1.58124 8.87054L5.86077 5.81373Z" fill="#107EFF"/>
  </symbol>
</svg>