<svg width="284" height="79" viewBox="0 0 284 79" fill="none" xmlns="http://www.w3.org/2000/svg">
<path d="M2 35.3289V46.0545M9 19.8365V59.7593M16 11.4945V67.5055M23 1.96072V77.0393M30 21.0283V59.1634M37 30.5621V50.8214M44 16.2614V65.122M51 23.4117V55.5883M58 12.6862V69.8889M65 16.2614V65.122M72 24.6035V56.78M79 37.7124V44.8627M86 35.3289V47.2462M93 37.7124V44.8627M100 29.3704V53.2048M107 32.9455V48.4379M114 19.8365V61.5468M121 24.6035V56.78M128 36.5207V47.2462M135 31.7538V52.0131M142 17.4531V66.3138M149 24.6035V56.78M156 13.878V71.0807M163 17.4531V66.3138M170 25.7952V57.9717M177 38.9041V46.0545M184 36.5207V48.4379M191 30.5621V54.3965M198 34.1372V49.6296M205 21.0283V62.7386M212 25.7952V57.9717M219 37.7124V47.2462M226 38.9041V46.0545M233 40.0958V44.8627M240 41.2876V43.671M247 40.0958V44.8627M254 37.7124V47.2462M261 25.7952V57.9717M268 29.3704V54.3965M275 32.9455V50.8214M282 41.2876V43.671" stroke="white" stroke-width="3" stroke-linecap="round"/>
</svg>
