<svg width="425" height="169" viewBox="0 0 425 169" fill="none" xmlns="http://www.w3.org/2000/svg">
<path d="M95.8637 89.2436C95.8637 92.0051 98.1023 94.2436 100.864 94.2436H106.256C109.018 94.2436 111.256 96.4822 111.256 99.2436V116.259C111.256 119.021 109.018 121.259 106.256 121.259H100.864C98.1023 121.259 95.8637 123.498 95.8637 126.259V148.367C95.8637 151.128 93.6251 153.367 90.8637 153.367H65.8143C63.0529 153.367 60.8143 151.128 60.8143 148.367V126.259C60.8143 123.498 58.5757 121.259 55.8143 121.259H6.79764C4.22353 121.259 2.07006 119.305 1.82108 116.743L0.343762 101.541C0.237484 100.447 0.494415 99.3491 1.07483 98.4161L58.4354 6.2138C60.1606 3.62982 63.0623 2.07814 66.1693 2.07814H90.8637C93.6251 2.07814 95.8637 4.31672 95.8637 7.07814V89.2436ZM43.702 86.7264C41.7598 90.0597 44.1643 94.2436 48.0222 94.2436H61.5711C64.3325 94.2436 66.5711 92.0051 66.5711 89.2436V51.8468C66.5711 50.658 65.0121 50.215 64.387 51.2261L43.702 86.7264Z" fill="#F3F8FB"/>
<path d="M260.005 91.5421C260.005 111.977 255.394 127.736 246.173 138.82C237.02 149.903 224.089 155.445 207.379 155.445C190.531 155.445 177.495 149.869 168.274 138.716C159.052 127.563 154.441 111.839 154.441 91.5421V63.9028C154.441 43.4678 159.017 27.7085 168.17 16.6251C177.391 5.54171 190.392 0 207.171 0C223.951 0 236.951 5.57634 246.173 16.729C255.394 27.8817 260.005 43.6409 260.005 64.0067V91.5421ZM224.956 59.4348C224.956 48.5592 223.535 40.4545 220.692 35.1206C217.849 29.7174 213.342 27.0158 207.171 27.0158C201.139 27.0158 196.736 29.5096 193.963 34.4971C191.259 39.4847 189.802 47.0352 189.594 57.1488V95.8022C189.594 107.093 191.016 115.371 193.859 120.636C196.701 125.831 201.208 128.429 207.379 128.429C213.342 128.429 217.745 125.901 220.588 120.844C223.43 115.718 224.887 107.717 224.956 96.8413V59.4348Z" fill="#F3F8FB"/>
<path fill-rule="evenodd" clip-rule="evenodd" d="M241.553 134.991L241.56 134.982C249.576 125.349 254.005 111.151 254.005 91.5421V64.0067C254.005 44.4762 249.58 30.2649 241.549 20.5524C233.655 11.0063 222.48 6 207.171 6C191.853 6 180.677 10.9784 172.788 20.455C164.838 30.0892 160.441 44.2912 160.441 63.9028V91.5421C160.441 110.997 164.864 125.177 172.898 134.892C180.786 144.433 191.992 149.445 207.379 149.445C222.624 149.445 233.725 144.47 241.546 134.999L241.553 134.991ZM189.594 57.1488C189.802 47.0352 191.259 39.4847 193.963 34.4971C196.736 29.5096 201.139 27.0158 207.171 27.0158C213.342 27.0158 217.849 29.7174 220.692 35.1206C223.535 40.4545 224.956 48.5592 224.956 59.4348V96.8413C224.887 107.717 223.43 115.718 220.588 120.844C217.745 125.901 213.342 128.429 207.379 128.429C201.208 128.429 196.701 125.831 193.859 120.636C191.016 115.371 189.594 107.093 189.594 95.8022V57.1488ZM225.994 32.3125C224.145 28.8042 221.6 25.8956 218.264 23.8958C214.927 21.8954 211.152 21.0158 207.171 21.0158C203.318 21.0158 199.65 21.8177 196.388 23.6654C193.108 25.5229 190.571 28.2499 188.719 31.5812L188.703 31.6092L188.688 31.6374C185.298 37.89 183.81 46.5946 183.596 57.0255L183.594 57.0872V95.8022C183.594 107.352 185.006 116.87 188.579 123.487L188.587 123.501L188.595 123.516C190.47 126.943 193.04 129.757 196.375 131.679C199.696 133.593 203.439 134.429 207.379 134.429C215.435 134.429 221.876 130.795 225.818 123.784L225.826 123.769L225.835 123.754C229.425 117.28 230.885 108.036 230.956 96.8796L230.956 96.8604V59.4348C230.956 48.2533 229.531 38.9581 225.994 32.3125ZM105.256 100.244H100.864C94.7886 100.244 89.8637 95.3188 89.8637 89.2436V8.07814H66.1693C65.0911 8.07814 64.0825 8.60487 63.4661 9.48588L6.3484 101.298L7.70517 115.259H55.8143C61.8894 115.259 66.8143 120.184 66.8143 126.259V147.367H89.8637V126.259C89.8637 120.184 94.7886 115.259 100.864 115.259H105.256V100.244ZM58.4354 6.2138L1.07483 98.4161C0.494415 99.3491 0.237484 100.447 0.343762 101.541L1.82108 116.743C2.07006 119.305 4.22353 121.259 6.79764 121.259H55.8143C58.5757 121.259 60.8143 123.498 60.8143 126.259V148.367C60.8143 151.128 63.0529 153.367 65.8143 153.367H90.8637C93.6251 153.367 95.8637 151.128 95.8637 148.367V126.259C95.8637 123.498 98.1023 121.259 100.864 121.259H106.256C109.018 121.259 111.256 119.021 111.256 116.259V99.2436C111.256 96.4822 109.018 94.2436 106.256 94.2436H100.864C98.1023 94.2436 95.8637 92.0051 95.8637 89.2436V7.07814C95.8637 4.31672 93.6251 2.07814 90.8637 2.07814H66.1693C63.0623 2.07814 60.1606 3.62982 58.4354 6.2138ZM61.5711 100.244H48.0222C39.5349 100.244 34.245 91.039 38.5179 83.7058L59.2028 48.2055L64.387 51.2261L43.702 86.7264C41.7598 90.0597 44.1643 94.2436 48.0222 94.2436H61.5711C64.3325 94.2436 66.5711 92.0051 66.5711 89.2436V51.8468C66.5711 50.658 65.0121 50.215 64.387 51.2261L59.2835 48.0711C63.0866 41.9194 72.5711 44.6146 72.5711 51.8468V89.2436C72.5711 95.3188 67.6462 100.244 61.5711 100.244ZM246.173 138.82C255.394 127.736 260.005 111.977 260.005 91.5421V64.0067C260.005 43.6409 255.394 27.8817 246.173 16.729C236.951 5.57634 223.951 0 207.171 0C190.392 0 177.391 5.54171 168.17 16.6251C159.017 27.7085 154.441 43.4678 154.441 63.9028V91.5421C154.441 111.839 159.052 127.563 168.274 138.716C177.495 149.869 190.531 155.445 207.379 155.445C224.089 155.445 237.02 149.903 246.173 138.82Z" fill="#107EFF"/>
<path d="M398.664 89.2437C398.664 92.0051 400.903 94.2437 403.664 94.2437H409.057C411.819 94.2437 414.057 96.4822 414.057 99.2437V116.259C414.057 119.021 411.819 121.259 409.057 121.259H403.664C400.903 121.259 398.664 123.498 398.664 126.259V148.367C398.664 151.128 396.426 153.367 393.664 153.367H368.615C365.854 153.367 363.615 151.128 363.615 148.367V126.259C363.615 123.498 361.377 121.259 358.615 121.259H309.598C307.024 121.259 304.871 119.305 304.622 116.743L303.145 101.541C303.038 100.447 303.295 99.3491 303.876 98.4161L361.236 6.21382C362.961 3.62983 365.863 2.07816 368.97 2.07816H393.664C396.426 2.07816 398.664 4.31673 398.664 7.07816V89.2437ZM346.503 86.7264C344.561 90.0597 346.965 94.2437 350.823 94.2437H364.372C367.133 94.2437 369.372 92.0051 369.372 89.2437V51.8468C369.372 50.658 367.813 50.215 367.188 51.2262L346.503 86.7264Z" fill="#F3F8FB"/>
<path fill-rule="evenodd" clip-rule="evenodd" d="M408.057 100.244H403.664C397.589 100.244 392.664 95.3188 392.664 89.2437V8.07816H368.97C367.892 8.07816 366.883 8.60489 366.267 9.4859L309.149 101.298L310.506 115.259H358.615C364.69 115.259 369.615 120.184 369.615 126.259V147.367H392.664V126.259C392.664 120.184 397.589 115.259 403.664 115.259H408.057V100.244ZM364.372 100.244H350.823C342.336 100.244 337.046 91.039 341.319 83.7058L362.004 48.2055L367.188 51.2262L346.503 86.7264C344.561 90.0597 346.965 94.2437 350.823 94.2437H364.372C367.133 94.2437 369.372 92.0051 369.372 89.2437V51.8468C369.372 50.658 367.813 50.215 367.188 51.2262L362.084 48.0711C365.887 41.9194 375.372 44.6146 375.372 51.8468V89.2437C375.372 95.3188 370.447 100.244 364.372 100.244ZM403.664 94.2437C400.903 94.2437 398.664 92.0051 398.664 89.2437V7.07816C398.664 4.31673 396.426 2.07816 393.664 2.07816H368.97C365.863 2.07816 362.961 3.62983 361.236 6.21382L303.876 98.4161C303.295 99.3491 303.038 100.447 303.145 101.541L304.622 116.743C304.871 119.305 307.024 121.259 309.598 121.259H358.615C361.377 121.259 363.615 123.498 363.615 126.259V148.367C363.615 151.128 365.854 153.367 368.615 153.367H393.664C396.426 153.367 398.664 151.128 398.664 148.367V126.259C398.664 123.498 400.903 121.259 403.664 121.259H409.057C411.819 121.259 414.057 119.021 414.057 116.259V99.2437C414.057 96.4822 411.819 94.2437 409.057 94.2437H403.664Z" fill="#107EFF"/>
<ellipse cx="218.937" cy="92.7412" rx="25.9055" ry="55.3572" fill="white"/>
<path d="M41.916 116.466L72.8586 64.7031L77.8958 56.076V116.466H41.916Z" fill="white"/>
<path d="M347.025 112.152L377.968 60.3896L383.005 51.7625V112.152H347.025Z" fill="white"/>
<path fill-rule="evenodd" clip-rule="evenodd" d="M257.116 151.76C266.338 140.677 270.949 124.918 270.949 104.483V76.9474C270.949 56.5816 266.338 40.8224 257.116 29.6697C247.894 18.517 234.894 12.9407 218.115 12.9407C201.335 12.9407 188.335 18.4824 179.113 29.5658C169.961 40.6492 165.384 56.4084 165.384 76.8435V104.483C165.384 124.779 169.995 140.504 179.217 151.657C188.439 162.809 201.474 168.386 218.323 168.386C235.033 168.386 247.964 162.844 257.116 151.76ZM231.635 48.0612C234.478 53.3951 235.899 61.4999 235.899 72.3755V109.782C235.83 120.658 234.374 128.658 231.531 133.785C228.688 138.841 224.285 141.37 218.323 141.37C212.152 141.37 207.645 138.772 204.802 133.577C201.959 128.312 200.538 120.034 200.538 108.743V70.0895C200.746 59.9759 202.202 52.4253 204.906 47.4378C207.679 42.4503 212.082 39.9565 218.115 39.9565C224.285 39.9565 228.792 42.6581 231.635 48.0612ZM111.807 107.184C109.046 107.184 106.807 104.946 106.807 102.184V20.0188C106.807 17.2574 104.568 15.0188 101.807 15.0188H77.1127C74.0057 15.0188 71.104 16.5705 69.3787 19.1545L12.0182 111.357C11.4378 112.29 11.1808 113.388 11.2871 114.482L12.7644 129.684C13.0134 132.246 15.1669 134.2 17.741 134.2H66.7577C69.5191 134.2 71.7577 136.439 71.7577 139.2V161.307C71.7577 164.069 73.9962 166.307 76.7577 166.307H101.807C104.568 166.307 106.807 164.069 106.807 161.307V139.2C106.807 136.439 109.046 134.2 111.807 134.2H117.2C119.961 134.2 122.2 131.962 122.2 129.2V112.184C122.2 109.423 119.961 107.184 117.2 107.184H111.807ZM58.9655 107.184C55.1077 107.184 52.7032 103 54.6454 99.6671L75.3303 64.1668C75.9555 63.1557 77.5144 63.5987 77.5144 64.7874V102.184C77.5144 104.946 75.2759 107.184 72.5144 107.184H58.9655ZM414.608 107.184C411.846 107.184 409.608 104.946 409.608 102.184V20.0188C409.608 17.2573 407.369 15.0188 404.608 15.0188H379.913C376.806 15.0188 373.905 16.5704 372.18 19.1544L314.819 111.357C314.239 112.29 313.982 113.388 314.088 114.482L315.565 129.684C315.814 132.246 317.968 134.2 320.542 134.2H369.558C372.32 134.2 374.558 136.439 374.558 139.2V161.307C374.558 164.069 376.797 166.307 379.558 166.307H404.608C407.369 166.307 409.608 164.069 409.608 161.307V139.2C409.608 136.439 411.846 134.2 414.608 134.2H420C422.762 134.2 425 131.962 425 129.2V112.184C425 109.423 422.762 107.184 420 107.184H414.608ZM361.766 107.184C357.908 107.184 355.504 103 357.446 99.6671L378.131 64.1668C378.756 63.1556 380.315 63.5986 380.315 64.7874V102.184C380.315 104.946 378.077 107.184 375.315 107.184H361.766Z" fill="#107EFF"/>
</svg>
