<svg width="18" height="18" viewBox="0 0 18 18" fill="none" xmlns="http://www.w3.org/2000/svg">
<circle cx="9" cy="9" r="9" fill="white"/>
<path fill-rule="evenodd" clip-rule="evenodd" d="M9.00122 5.46079L12.9497 7.87376V7.95405H5.05273V7.87376L9.00122 5.46079ZM3.55273 7.59334C3.55273 7.24497 3.73403 6.92171 4.03128 6.74006L8.47977 4.02154C8.79989 3.82591 9.20256 3.82591 9.52267 4.02153L13.9712 6.74006C14.2684 6.92171 14.4497 7.24497 14.4497 7.59334V8.45406C14.4497 9.00634 14.002 9.45405 13.4497 9.45405H13.2391V13.2971C13.2391 13.8494 12.7914 14.2971 12.2391 14.2971H5.76367C5.21139 14.2971 4.76367 13.8494 4.76367 13.2971V9.45405H4.55274C4.00045 9.45405 3.55273 9.00634 3.55273 8.45405V7.59334ZM6.26367 12.7971V9.45673H11.7391V12.7971H6.26367Z" fill="#107EFF"/>
</svg>
