<svg width="87" height="93" viewBox="0 0 87 93" fill="none" xmlns="http://www.w3.org/2000/svg">
<path d="M70.9394 26.8865C70.9394 41.7356 58.6548 53.7731 43.501 53.7731C28.3471 53.7731 16.0625 41.7356 16.0625 26.8865C16.0625 12.0375 28.3471 0 43.501 0C58.6548 0 70.9394 12.0375 70.9394 26.8865Z" fill="white"/>
<path fill-rule="evenodd" clip-rule="evenodd" d="M63.0283 26.8865C63.0283 37.4554 54.2847 46.0231 43.499 46.0231C32.7132 46.0231 23.9696 37.4554 23.9696 26.8865C23.9696 16.3177 32.7132 7.75 43.499 7.75C54.2847 7.75 63.0283 16.3177 63.0283 26.8865ZM58.7966 49.21C66.1197 44.382 70.9374 36.1856 70.9374 26.8865C70.9374 12.0375 58.6528 0 43.499 0C28.3451 0 16.0605 12.0375 16.0605 26.8865C16.0605 36.1859 20.8786 44.3826 28.2021 49.2105C11.7249 55.277 0 70.8593 0 89.125C0 91.2651 1.77051 93 3.95455 93C6.13858 93 7.90909 91.2651 7.90909 89.125C7.90909 69.864 23.8437 54.25 43.5 54.25C63.1563 54.25 79.0909 69.864 79.0909 89.125C79.0909 91.2651 80.8614 93 83.0455 93C85.2295 93 87 91.2651 87 89.125C87 70.8588 75.2745 55.2762 58.7966 49.21Z" fill="#D8E3EC"/>
</svg>
