<svg width="40" height="40" viewBox="0 0 40 40" fill="none" xmlns="http://www.w3.org/2000/svg">
<rect width="40" height="40" rx="4" fill="white"/>
<path fill-rule="evenodd" clip-rule="evenodd" d="M20.0001 31.9345C18.1318 31.9345 16.6001 30.4188 16.6001 28.5359H18.6001C18.6001 29.2933 19.2212 29.9241 20.0001 29.9241C20.7792 29.9241 21.4001 29.2934 21.4001 28.5359H23.4001C23.4001 30.4188 21.8687 31.9345 20.0001 31.9345Z" fill="#107EFF"/>
<path d="M28.2656 29.1342H11.7656C10.8006 29.1342 10.0156 28.3514 10.0156 27.3891C10.0156 26.8783 10.2386 26.3948 10.6276 26.0627C12.1486 24.7811 13.0156 22.9184 13.0156 20.9448V18.1643C13.0156 14.3151 16.1557 11.1836 20.0156 11.1836C23.8756 11.1836 27.0157 14.3151 27.0157 18.1643V20.9448C27.0157 22.9184 27.8827 24.7811 29.3937 26.0557C29.7927 26.3948 30.0157 26.8783 30.0157 27.3891C30.0157 28.3514 29.2307 29.1342 28.2656 29.1342Z" fill="#E8F3FF"/>
<path fill-rule="evenodd" clip-rule="evenodd" d="M29.3937 26.0557C27.8827 24.7811 27.0157 22.9184 27.0157 20.9448V18.1643C27.0157 14.3151 23.8756 11.1836 20.0156 11.1836C16.1557 11.1836 13.0156 14.3151 13.0156 18.1643V20.9448C13.0156 22.9184 12.1486 24.7811 10.6276 26.0627C10.2386 26.3948 10.0156 26.8783 10.0156 27.3891C10.0156 28.3514 10.8006 29.1342 11.7656 29.1342H28.2656C29.2307 29.1342 30.0157 28.3514 30.0157 27.3891C30.0157 26.8783 29.7927 26.3948 29.3937 26.0557ZM27.5918 27.1238C25.9498 25.4973 25.0157 23.2814 25.0157 20.9448V18.1643C25.0157 15.4405 22.7861 13.1941 20.0156 13.1941C17.2452 13.1941 15.0156 15.4405 15.0156 18.1643V20.9448C15.0156 23.2802 14.0827 25.4934 12.4372 27.1238H27.5918Z" fill="#107EFF"/>
<path fill-rule="evenodd" clip-rule="evenodd" d="M20 7.93452C20.5523 7.93452 21 8.38458 21 8.93976V11.9315C21 12.4867 20.5523 12.9368 20 12.9368C19.4477 12.9368 19 12.4867 19 11.9315V8.93976C19 8.38458 19.4477 7.93452 20 7.93452Z" fill="#107EFF"/>
<circle cx="29.5" cy="10.5" r="8.5" fill="#FF603E" stroke="white" stroke-width="2"/>
<path d="M28.4648 10.084H29.332C29.7695 10.0801 30.1152 9.9668 30.3691 9.74414C30.627 9.52148 30.7559 9.19922 30.7559 8.77734C30.7559 8.37109 30.6484 8.05664 30.4336 7.83398C30.2227 7.60742 29.8984 7.49414 29.4609 7.49414C29.0781 7.49414 28.7637 7.60547 28.5176 7.82812C28.2715 8.04688 28.1484 8.33398 28.1484 8.68945H26.7246C26.7246 8.25195 26.8398 7.85352 27.0703 7.49414C27.3047 7.13477 27.6289 6.85547 28.043 6.65625C28.4609 6.45312 28.9277 6.35156 29.4434 6.35156C30.2949 6.35156 30.9629 6.56641 31.4473 6.99609C31.9355 7.42188 32.1797 8.01562 32.1797 8.77734C32.1797 9.16016 32.0566 9.52148 31.8105 9.86133C31.5684 10.1973 31.2539 10.4512 30.8672 10.623C31.3359 10.7832 31.6914 11.0352 31.9336 11.3789C32.1797 11.7227 32.3027 12.1328 32.3027 12.6094C32.3027 13.375 32.0391 13.9844 31.5117 14.4375C30.9883 14.8906 30.2988 15.1172 29.4434 15.1172C28.623 15.1172 27.9512 14.8984 27.4277 14.4609C26.9043 14.0234 26.6426 13.4414 26.6426 12.7148H28.0664C28.0664 13.0898 28.1914 13.3945 28.4414 13.6289C28.6953 13.8633 29.0352 13.9805 29.4609 13.9805C29.9023 13.9805 30.25 13.8633 30.5039 13.6289C30.7578 13.3945 30.8848 13.0547 30.8848 12.6094C30.8848 12.1602 30.752 11.8145 30.4863 11.5723C30.2207 11.3301 29.8262 11.209 29.3027 11.209H28.4648V10.084Z" fill="white"/>
</svg>
