<svg width="0" height="0" class="hidden">
  <symbol xmlns="http://www.w3.org/2000/svg" viewBox="0 0 26 11" id="back">
    <path fill-rule="evenodd" clip-rule="evenodd" d="M6.25713 1.70711C6.65092 1.31658 6.65092 0.683417 6.25713 0.292893C5.86335 -0.0976311 5.2249 -0.0976311 4.83111 0.292893L0.65004 4.43934C0.0593631 5.02513 0.0593604 5.97487 0.65004 6.56066L4.83111 10.7071C5.2249 11.0976 5.86335 11.0976 6.25713 10.7071C6.65092 10.3166 6.65092 9.68342 6.25713 9.29289L3.44092 6.5H24.1987C24.7556 6.5 25.207 6.05228 25.207 5.5C25.207 4.94772 24.7556 4.5 24.1987 4.5H3.44092L6.25713 1.70711Z"></path>
  </symbol>
  <symbol  xmlns="http://www.w3.org/2000/svg" viewBox="0 0 16 16" id="fullscreen-icon">
    <path fill-rule="evenodd" clip-rule="evenodd" d="M0 2C0 0.89543 0.895431 0 2 0H4.5C5.05228 0 5.5 0.447715 5.5 1C5.5 1.55228 5.05228 2 4.5 2H2V4.5C2 5.05228 1.55228 5.5 1 5.5C0.447715 5.5 0 5.05228 0 4.5V2Z" ></path>
    <path fill-rule="evenodd" clip-rule="evenodd" d="M0 14C0 15.1046 0.895431 16 2 16H4.5C5.05228 16 5.5 15.5523 5.5 15C5.5 14.4477 5.05228 14 4.5 14H2V11.5C2 10.9477 1.55228 10.5 1 10.5C0.447715 10.5 0 10.9477 0 11.5V14Z" fill="white"></path>
    <path fill-rule="evenodd" clip-rule="evenodd" d="M16 2C16 0.89543 15.1046 0 14 0H11.5C10.9477 0 10.5 0.447715 10.5 1C10.5 1.55228 10.9477 2 11.5 2H14V4.5C14 5.05228 14.4477 5.5 15 5.5C15.5523 5.5 16 5.05228 16 4.5V2Z" ></path>
    <path fill-rule="evenodd" clip-rule="evenodd" d="M16 14C16 15.1046 15.1046 16 14 16H11.5C10.9477 16 10.5 15.5523 10.5 15C10.5 14.4477 10.9477 14 11.5 14H14V11.5C14 10.9477 14.4477 10.5 15 10.5C15.5523 10.5 16 10.9477 16 11.5V14Z" ></path>
  </symbol>
  <symbol  xmlns="http://www.w3.org/2000/svg" viewBox="0 0 9 12" id="play-icon">
    <path opacity="0.8" d="M8.39982 7.20298C9.20006 6.61339 9.20006 5.38661 8.39982 4.79702L2.26627 0.277974C1.31767 -0.420937 0 0.278508 0 1.48096V10.519C0 11.7215 1.31767 12.4209 2.26627 11.722L8.39982 7.20298Z" ></path>
  </symbol>
  <symbol xmlns="http://www.w3.org/2000/svg" viewBox="0 0 18 16" id="volume-icon">
    <path fill-rule="evenodd" clip-rule="evenodd" d="M8.47789 3.02688L4.46918 6.06617C3.94793 6.46136 3.31201 6.67523 2.65819 6.67523H2V8.34406H2.65819C3.31201 8.34406 3.94793 8.55793 4.46918 8.95312L8.47789 11.9924V3.02688ZM3.26185 4.46962C3.0881 4.60135 2.87613 4.67265 2.65819 4.67265H1C0.447715 4.67265 0 5.12094 0 5.67394V9.34535C0 9.89835 0.447716 10.3466 1 10.3466H2.65819C2.87613 10.3466 3.0881 10.4179 3.26185 10.5497L8.87423 14.8048C9.53288 15.3042 10.4779 14.8338 10.4779 14.0065V1.01276C10.4779 0.185537 9.53288 -0.284873 8.87423 0.214493L3.26185 4.46962Z" ></path>
    <path fill-rule="evenodd" clip-rule="evenodd" d="M13.9842 4.00198C14.1894 3.48857 14.7714 3.23892 15.2842 3.44438C16.8834 4.08519 17.9997 5.67139 17.9997 7.50963C17.9997 9.34786 16.8834 10.9341 15.2842 11.5749C14.7714 11.7803 14.1894 11.5307 13.9842 11.0173C13.779 10.5039 14.0283 9.92109 14.5411 9.71564C15.3851 9.37745 15.9997 8.52491 15.9997 7.50963C15.9997 6.49434 15.3851 5.6418 14.5411 5.30362C14.0283 5.09816 13.779 4.5154 13.9842 4.00198Z"></path>
    <path fill-rule="evenodd" clip-rule="evenodd" d="M11.2778 5.65639C11.4564 5.13309 12.0248 4.85378 12.5474 5.03255C13.5683 5.38176 14.4167 6.30473 14.4167 7.50964C14.4167 8.71455 13.5683 9.63752 12.5474 9.98673C12.0248 10.1655 11.4564 9.88619 11.2778 9.36289C11.0993 8.83958 11.3782 8.27044 11.9009 8.09167C12.2761 7.96332 12.4167 7.69667 12.4167 7.50964C12.4167 7.32261 12.2761 7.05596 11.9009 6.92761C11.3782 6.74884 11.0993 6.1797 11.2778 5.65639Z" ></path>
  </symbol>
</svg>