<svg width="21" height="25" viewBox="0 0 21 25" fill="none" xmlns="http://www.w3.org/2000/svg">
<path d="M7.6001 21.4286C7.6001 22.7419 8.67646 23.8095 10.0001 23.8095C11.3239 23.8095 12.4001 22.7419 12.4001 21.4286" stroke="#107EFF" stroke-width="2"/>
<path d="M1.76556 21.0239C1.34536 21.0239 1.01562 20.6854 1.01562 20.2878C1.01562 20.0754 1.10799 19.8733 1.27314 19.732C3.01696 18.2689 4.01562 16.1374 4.01562 13.8772V11.1111C4.01562 7.84168 6.70046 5.16675 10.0156 5.16675C13.3309 5.16675 16.0157 7.8417 16.0157 11.1111V13.8772C16.0157 16.1372 17.0143 18.2695 18.7495 19.7263C18.926 19.8762 19.0157 20.0788 19.0157 20.2878C19.0157 20.6853 18.686 21.0239 18.2656 21.0239H1.76556Z" fill="#E8F3FF" stroke="#107EFF" stroke-width="2"/>
<path d="M10 4.91076V1.93457" stroke="#107EFF" stroke-width="2" stroke-linecap="round"/>
</svg>
