<svg width="0" height="0" class="hidden">
  <symbol xmlns="http://www.w3.org/2000/svg" viewBox="0 0 8 10" id="audio-icon">
    <path d="M1.73869 2.92125C1.96577 2.92125 2.18608 2.84397 2.36339 2.70212L5.46478 0.221009C6.11954 -0.302802 7.08947 0.163371 7.08947 1.00188V8.84063C7.08947 9.67913 6.11954 10.1453 5.46478 9.6215L2.36339 7.14038C2.18608 6.99853 1.96577 6.92125 1.73869 6.92125H1.08911C0.536827 6.92125 0.0891113 6.47354 0.0891113 5.92125V3.92125C0.0891113 3.36897 0.536826 2.92125 1.08911 2.92125H1.73869Z"></path>
  </symbol>
  <symbol xmlns="http://www.w3.org/2000/svg" viewBox="0 0 10 10" id="close-icon">
    <path fill-rule="evenodd" clip-rule="evenodd" d="M0.292893 0.292893C0.683417 -0.0976311 1.31658 -0.0976311 1.70711 0.292893L9.70711 8.29289C10.0976 8.68342 10.0976 9.31658 9.70711 9.70711C9.31658 10.0976 8.68342 10.0976 8.29289 9.70711L0.292893 1.70711C-0.0976311 1.31658 -0.0976311 0.683417 0.292893 0.292893Z"></path>
    <path fill-rule="evenodd" clip-rule="evenodd" d="M9.70711 0.292893C9.31658 -0.0976311 8.68342 -0.0976311 8.29289 0.292893L0.292893 8.29289C-0.0976315 8.68342 -0.0976315 9.31658 0.292893 9.70711C0.683417 10.0976 1.31658 10.0976 1.70711 9.70711L9.70711 1.70711C10.0976 1.31658 10.0976 0.683417 9.70711 0.292893Z"></path>
  </symbol>
  <symbol xmlns="http://www.w3.org/2000/svg" viewBox="0 0 11 9" id="photo-icon">
    <path fill-rule="evenodd" clip-rule="evenodd" d="M10.0891 7.03512C10.0891 7.86355 9.41749 8.53512 8.58906 8.53512H1.77954C0.951114 8.53512 0.279541 7.86355 0.279541 7.03512V2.90699C0.279541 2.07857 0.951114 1.40699 1.77954 1.40699H2.50309C2.75106 1.40699 2.99018 1.31486 3.17405 1.14849L3.83145 0.553626C4.01531 0.387249 4.25444 0.29512 4.50241 0.29512H6.21815C6.4504 0.29512 6.6754 0.375956 6.85455 0.523755L7.64798 1.17836C7.82713 1.32616 8.05213 1.40699 8.28438 1.40699H8.58906C9.41749 1.40699 10.0891 2.07857 10.0891 2.90699V7.03512ZM6.79287 4.61131C6.79287 5.45646 6.10774 6.1416 5.26259 6.1416C4.41743 6.1416 3.7323 5.45646 3.7323 4.61131C3.7323 3.76616 4.41743 3.08102 5.26259 3.08102C6.10774 3.08102 6.79287 3.76616 6.79287 4.61131Z"></path>
  </symbol>
  <symbol xmlns="http://www.w3.org/2000/svg" viewBox="0 0 7 9" id="play-icon">
    <path d="M5.86077 5.73498C6.41912 5.33616 6.41912 4.50633 5.86077 4.10751L1.58124 1.0507C0.91937 0.577937 0 1.05106 0 1.86443V7.97806C0 8.79143 0.91937 9.26455 1.58124 8.79179L5.86077 5.73498Z"></path>
  </symbol>
  <symbol  xmlns="http://www.w3.org/2000/svg" viewBox="0 0 20 20" id="edit-icon">
    <path fill-rule="evenodd" clip-rule="evenodd" d="M16.862 5.73483L13.922 2.79483L12.8248 3.89204L15.7648 6.83204L16.862 5.73483ZM14.3284 8.26844L11.3884 5.32844L4.83169 11.8852L7.77169 14.8252L14.3284 8.26844ZM15.3584 1.35843C14.6082 0.608189 13.3569 0.6431 12.5636 1.4364L3.47327 10.5267C2.67996 11.32 2.64505 12.5713 3.39529 13.3216L3.56577 13.492L3.45181 14.5995L3.30511 16.0253C3.28578 16.2131 3.44318 16.3616 3.63025 16.3321L6.02748 15.9538L6.33529 16.2616C7.08553 17.0118 8.33682 16.9769 9.13012 16.1836L18.2204 7.09326C19.0138 6.29995 19.0487 5.04867 18.2984 4.29843L15.3584 1.35843Z"></path>
  </symbol>
</svg>